{
date = "2013-03-12 07:38:46 +0200";
familyName = "Open Sans Hebrew Condensed";
fontMaster = (
{
alignmentZones = (
"{1567, 16}",
"{1462, 22}",
"{1290, 30}",
"{1085, 22}",
"{0, -31}",
"{-492, -46}"
);
ascender = 1567;
capHeight = 1462;
descender = "-492";
id = UUID0;
italicAngle = 12;
weight = Light;
width = Condensed;
xHeight = 1085;
}
);
glyphs = (
{
glyphname = A;
lastChange = "2013-03-10 17:26:55 +0200";
layers = (
{
layerId = UUID0;
name = "Light Condensed Italic";
paths = (
{
closed = 1;
nodes = (
"651 0 LINE",
"651 1468 LINE",
"528 1468 LINE",
"-78 0 LINE",
"27 0 LINE",
"248 530 LINE",
"555 530 LINE",
"555 0 LINE"
);
},
{
closed = 1;
nodes = (
"283 629 LINE",
"409 944 OFFCURVE",
"484 1135 OFFCURVE",
"509 1202 CURVE SMOOTH",
"534 1269 OFFCURVE",
"551 1319 OFFCURVE",
"561 1354 CURVE",
"555 999 LINE",
"555 629 LINE"
);
}
);
width = 731;
}
);
unicode = 0041;
},
{
glyphname = AE;
lastChange = "2013-03-10 17:26:55 +0200";
layers = (
{
layerId = UUID0;
name = "Light Condensed Italic";
paths = (
{
closed = 1;
nodes = (
"889 94 LINE",
"512 94 LINE",
"645 719 LINE",
"1001 719 LINE",
"1022 813 LINE",
"666 813 LINE",
"782 1366 LINE",
"1159 1366 LINE",
"1180 1462 LINE",
"608 1462 LINE",
"-76 0 LINE",
"25 0 LINE",
"270 530 LINE",
"506 530 LINE",
"393 0 LINE",
"870 0 LINE"
);
},
{
closed = 1;
nodes = (
"653 1364 LINE",
"682 1364 LINE",
"526 629 LINE",
"313 629 LINE"
);
}
);
width = 1036;
}
);
unicode = 00C6;
},
{
glyphname = B;
lastChange = "2013-03-10 17:26:55 +0200";
layers = (
{
layerId = UUID0;
name = "Light Condensed Italic";
paths = (
{
closed = 1;
nodes = (
"66 0 LINE",
"338 0 LINE",
"609 -4 OFFCURVE",
"771 209 OFFCURVE",
"770 510 CURVE SMOOTH",
"770 574 OFFCURVE",
"755 629 OFFCURVE",
"724 676 CURVE SMOOTH",
"694 723 OFFCURVE",
"655 753 OFFCURVE",
"606 766 CURVE",
"608 772 LINE",
"695 789 OFFCURVE",
"763 834 OFFCURVE",
"812 909 CURVE SMOOTH",
"862 984 OFFCURVE",
"887 1077 OFFCURVE",
"887 1188 CURVE SMOOTH",
"887 1271 OFFCURVE",
"861 1337 OFFCURVE",
"808 1387 CURVE SMOOTH",
"756 1437 OFFCURVE",
"687 1462 OFFCURVE",
"600 1462 CURVE SMOOTH",
"375 1462 LINE"
);
},
{
closed = 1;
nodes = (
"455 1366 LINE",
"578 1366 LINE SMOOTH",
"717 1366 OFFCURVE",
"784 1305 OFFCURVE",
"784 1176 CURVE",
"786 968 OFFCURVE",
"662 809 OFFCURVE",
"483 813 CURVE",
"336 813 LINE"
);
},
{
closed = 1;
nodes = (
"475 719 LINE",
"596 719 OFFCURVE",
"668 633 OFFCURVE",
"668 494 CURVE SMOOTH",
"668 371 OFFCURVE",
"639 273 OFFCURVE",
"582 201 CURVE SMOOTH",
"525 130 OFFCURVE",
"445 94 OFFCURVE",
"342 94 CURVE SMOOTH",
"184 94 LINE",
"317 719 LINE"
);
}
);
width = 817;
}
);
unicode = 0042;
},
{
glyphname = C;
lastChange = "2013-03-10 17:26:55 +0200";
layers = (
{
layerId = UUID0;
name = "Light Condensed Italic";
paths = (
{
closed = 1;
nodes = (
"796 1389 OFFCURVE",
"845 1372 OFFCURVE",
"885 1337 CURVE",
"946 1423 LINE",
"897 1464 OFFCURVE",
"831 1485 OFFCURVE",
"750 1485 CURVE SMOOTH",
"641 1485 OFFCURVE",
"540 1438 OFFCURVE",
"446 1343 CURVE SMOOTH",
"353 1249 OFFCURVE",
"277 1119 OFFCURVE",
"220 953 CURVE SMOOTH",
"163 788 OFFCURVE",
"135 620 OFFCURVE",
"135 449 CURVE SMOOTH",
"135 132 OFFCURVE",
"238 -20 OFFCURVE",
"442 -20 CURVE SMOOTH",
"504 -20 OFFCURVE",
"566 -8 OFFCURVE",
"629 16 CURVE",
"629 111 LINE",
"565 85 OFFCURVE",
"508 72 OFFCURVE",
"457 72 CURVE SMOOTH",
"296 72 OFFCURVE",
"233 195 OFFCURVE",
"233 467 CURVE SMOOTH",
"233 608 OFFCURVE",
"257 753 OFFCURVE",
"305 904 CURVE SMOOTH",
"354 1055 OFFCURVE",
"416 1174 OFFCURVE",
"493 1260 CURVE SMOOTH",
"570 1346 OFFCURVE",
"652 1389 OFFCURVE",
"739 1389 CURVE SMOOTH"
);
}
);
width = 727;
}
);
unicode = 0043;
},
{
glyphname = D;
lastChange = "2013-03-10 17:26:55 +0200";
layers = (
{
layerId = UUID0;
name = "Light Condensed Italic";
paths = (
{
closed = 1;
nodes = (
"913 1320 OFFCURVE",
"797 1462 OFFCURVE",
"592 1462 CURVE SMOOTH",
"375 1462 LINE",
"66 0 LINE",
"256 0 LINE SMOOTH",
"519 0 OFFCURVE",
"721 177 OFFCURVE",
"830 502 CURVE SMOOTH",
"885 665 OFFCURVE",
"913 847 OFFCURVE",
"913 1047 CURVE SMOOTH"
);
},
{
closed = 1;
nodes = (
"184 94 LINE",
"455 1366 LINE",
"578 1366 LINE SMOOTH",
"732 1366 OFFCURVE",
"809 1260 OFFCURVE",
"809 1047 CURVE SMOOTH",
"809 872 OFFCURVE",
"785 708 OFFCURVE",
"737 555 CURVE SMOOTH",
"690 402 OFFCURVE",
"626 287 OFFCURVE",
"546 210 CURVE SMOOTH",
"467 133 OFFCURVE",
"377 94 OFFCURVE",
"276 94 CURVE SMOOTH"
);
}
);
width = 895;
}
);
unicode = 0044;
},
{
glyphname = E;
lastChange = "2013-03-10 17:26:55 +0200";
layers = (
{
layerId = UUID0;
name = "Light Condensed Italic";
paths = (
{
closed = 1;
nodes = (
"561 94 LINE",
"184 94 LINE",
"317 719 LINE",
"672 719 LINE",
"692 813 LINE",
"338 813 LINE",
"455 1366 LINE",
"831 1366 LINE",
"852 1462 LINE",
"375 1462 LINE",
"66 0 LINE",
"543 0 LINE"
);
}
);
width = 709;
}
);
unicode = 0045;
},
{
glyphname = F;
lastChange = "2013-03-10 17:26:55 +0200";
layers = (
{
layerId = UUID0;
name = "Light Condensed Italic";
paths = (
{
closed = 1;
nodes = (
"305 657 LINE",
"662 657 LINE",
"682 752 LINE",
"326 752 LINE",
"455 1366 LINE",
"834 1366 LINE",
"854 1462 LINE",
"375 1462 LINE",
"66 0 LINE",
"166 0 LINE"
);
}
);
width = 655;
}
);
unicode = 0046;
},
{
glyphname = G;
lastChange = "2013-03-10 17:26:55 +0200";
layers = (
{
layerId = UUID0;
name = "Light Condensed Italic";
paths = (
{
closed = 1;
nodes = (
"625 647 LINE",
"819 647 LINE",
"702 100 LINE",
"641 81 OFFCURVE",
"577 72 OFFCURVE",
"510 72 CURVE SMOOTH",
"323 72 OFFCURVE",
"233 177 OFFCURVE",
"233 432 CURVE SMOOTH",
"233 546 OFFCURVE",
"247 664 OFFCURVE",
"275 787 CURVE SMOOTH",
"303 910 OFFCURVE",
"341 1017 OFFCURVE",
"388 1108 CURVE SMOOTH",
"484 1291 OFFCURVE",
"610 1389 OFFCURVE",
"758 1389 CURVE SMOOTH",
"841 1389 OFFCURVE",
"910 1370 OFFCURVE",
"1001 1303 CURVE",
"1065 1391 LINE",
"978 1454 OFFCURVE",
"877 1485 OFFCURVE",
"764 1485 CURVE SMOOTH",
"592 1485 OFFCURVE",
"441 1387 OFFCURVE",
"324 1184 CURVE SMOOTH",
"266 1083 OFFCURVE",
"220 964 OFFCURVE",
"186 827 CURVE SMOOTH",
"152 690 OFFCURVE",
"135 561 OFFCURVE",
"135 438 CURVE SMOOTH",
"135 133 OFFCURVE",
"257 -20 OFFCURVE",
"500 -20 CURVE SMOOTH",
"601 -20 OFFCURVE",
"697 -2 OFFCURVE",
"788 33 CURVE",
"940 741 LINE",
"645 741 LINE"
);
}
);
width = 967;
}
);
unicode = 0047;
},
{
glyphname = H;
lastChange = "2013-03-10 17:26:55 +0200";
layers = (
{
layerId = UUID0;
name = "Light Condensed Italic";
paths = (
{
closed = 1;
nodes = (
"1012 1462 LINE",
"913 1462 LINE",
"776 815 LINE",
"336 815 LINE",
"473 1462 LINE",
"375 1462 LINE",
"66 0 LINE",
"164 0 LINE",
"315 717 LINE",
"756 717 LINE",
"604 0 LINE",
"702 0 LINE"
);
}
);
width = 924;
}
);
unicode = 0048;
},
{
glyphname = I;
lastChange = "2013-03-10 17:26:55 +0200";
layers = (
{
layerId = UUID0;
name = "Light Condensed Italic";
paths = (
{
closed = 1;
nodes = (
"164 0 LINE",
"473 1462 LINE",
"375 1462 LINE",
"66 0 LINE"
);
}
);
width = 418;
}
);
unicode = 0049;
},
{
glyphname = J;
lastChange = "2013-03-10 17:26:55 +0200";
layers = (
{
layerId = UUID0;
name = "Light Condensed Italic";
paths = (
{
closed = 1;
nodes = (
"27 -369 OFFCURVE",
"109 -272 OFFCURVE",
"154 -57 CURVE SMOOTH",
"475 1462 LINE",
"377 1462 LINE",
"59 -35 LINE",
"24 -204 OFFCURVE",
"-18 -272 OFFCURVE",
"-109 -272 CURVE SMOOTH",
"-141 -272 OFFCURVE",
"-171 -265 OFFCURVE",
"-199 -252 CURVE",
"-227 -344 LINE",
"-198 -361 OFFCURVE",
"-160 -369 OFFCURVE",
"-113 -369 CURVE SMOOTH"
);
}
);
width = 360;
}
);
unicode = 004A;
},
{
glyphname = K;
lastChange = "2013-03-10 17:26:55 +0200";
layers = (
{
layerId = UUID0;
name = "Light Condensed Italic";
paths = (
{
closed = 1;
nodes = (
"496 795 LINE",
"948 1462 LINE",
"848 1462 LINE",
"432 868 LINE",
"309 688 LINE",
"473 1462 LINE",
"375 1462 LINE",
"66 0 LINE",
"164 0 LINE",
"287 580 LINE",
"416 709 LINE",
"565 0 LINE",
"666 0 LINE"
);
}
);
width = 743;
}
);
unicode = 004B;
},
{
glyphname = L;
lastChange = "2013-03-10 17:26:55 +0200";
layers = (
{
layerId = UUID0;
name = "Light Condensed Italic";
paths = (
{
closed = 1;
nodes = (
"524 0 LINE",
"543 94 LINE",
"184 94 LINE",
"473 1462 LINE",
"375 1462 LINE",
"66 0 LINE"
);
}
);
width = 639;
}
);
unicode = 004C;
},
{
glyphname = M;
lastChange = "2013-03-10 17:26:55 +0200";
layers = (
{
layerId = UUID0;
name = "Light Condensed Italic";
paths = (
{
closed = 1;
nodes = (
"621 0 LINE",
"1217 1329 LINE",
"1221 1329 LINE",
"1172 1122 LINE",
"934 0 LINE",
"1034 0 LINE",
"1343 1462 LINE",
"1174 1462 LINE",
"680 352 LINE SMOOTH",
"620 219 OFFCURVE",
"584 135 OFFCURVE",
"573 102 CURVE",
"571 102 LINE",
"573 190 LINE",
"569 354 LINE",
"535 1462 LINE",
"375 1462 LINE",
"66 0 LINE",
"162 0 LINE",
"392 1091 LINE",
"436 1331 LINE",
"442 1331 LINE",
"494 0 LINE"
);
}
);
width = 1255;
}
);
unicode = 004D;
},
{
glyphname = N;
lastChange = "2013-03-10 17:26:55 +0200";
layers = (
{
layerId = UUID0;
name = "Light Condensed Italic";
paths = (
{
closed = 1;
nodes = (
"1069 1462 LINE",
"971 1462 LINE",
"754 440 LINE",
"719 252 LINE",
"705 166 LINE",
"698 166 LINE",
"506 1462 LINE",
"375 1462 LINE",
"66 0 LINE",
"164 0 LINE",
"385 1049 LINE SMOOTH",
"406 1147 OFFCURVE",
"421 1234 OFFCURVE",
"430 1311 CURVE",
"438 1311 LINE",
"639 0 LINE",
"760 0 LINE"
);
}
);
width = 981;
}
);
unicode = 004E;
},
{
glyphname = O;
lastChange = "2013-03-10 17:26:55 +0200";
layers = (
{
layerId = UUID0;
name = "Light Condensed Italic";
paths = (
{
closed = 1;
nodes = (
"513 -20 OFFCURVE",
"605 28 OFFCURVE",
"690 125 CURVE SMOOTH",
"775 222 OFFCURVE",
"844 361 OFFCURVE",
"897 543 CURVE SMOOTH",
"950 725 OFFCURVE",
"977 911 OFFCURVE",
"977 1100 CURVE SMOOTH",
"977 1355 OFFCURVE",
"885 1483 OFFCURVE",
"702 1483 CURVE SMOOTH",
"545 1483 OFFCURVE",
"410 1381 OFFCURVE",
"305 1169 CURVE SMOOTH",
"253 1064 OFFCURVE",
"212 938 OFFCURVE",
"181 793 CURVE SMOOTH",
"150 648 OFFCURVE",
"135 510 OFFCURVE",
"135 379 CURVE SMOOTH",
"135 113 OFFCURVE",
"227 -20 OFFCURVE",
"412 -20 CURVE SMOOTH"
);
},
{
closed = 1;
nodes = (
"233 487 OFFCURVE",
"246 610 OFFCURVE",
"272 745 CURVE SMOOTH",
"299 880 OFFCURVE",
"333 997 OFFCURVE",
"376 1095 CURVE SMOOTH",
"461 1291 OFFCURVE",
"571 1389 OFFCURVE",
"692 1389 CURVE SMOOTH",
"817 1389 OFFCURVE",
"879 1293 OFFCURVE",
"879 1100 CURVE SMOOTH",
"879 989 OFFCURVE",
"866 867 OFFCURVE",
"840 734 CURVE SMOOTH",
"814 601 OFFCURVE",
"780 484 OFFCURVE",
"738 384 CURVE SMOOTH",
"654 185 OFFCURVE",
"543 74 OFFCURVE",
"420 74 CURVE SMOOTH",
"295 74 OFFCURVE",
"233 175 OFFCURVE",
"233 377 CURVE SMOOTH"
);
}
);
width = 958;
}
);
unicode = 004F;
},
{
glyphname = Oslash;
lastChange = "2013-03-10 17:26:55 +0200";
layers = (
{
layerId = UUID0;
name = "Light Condensed Italic";
paths = (
{
closed = 1;
nodes = (
"513 -20 OFFCURVE",
"605 28 OFFCURVE",
"690 125 CURVE SMOOTH",
"775 222 OFFCURVE",
"844 361 OFFCURVE",
"897 543 CURVE SMOOTH",
"950 725 OFFCURVE",
"977 911 OFFCURVE",
"977 1100 CURVE SMOOTH",
"977 1167 OFFCURVE",
"970 1227 OFFCURVE",
"956 1280 CURVE",
"1096 1501 LINE",
"1024 1546 LINE",
"915 1374 LINE",
"870 1447 OFFCURVE",
"799 1483 OFFCURVE",
"702 1483 CURVE SMOOTH",
"545 1483 OFFCURVE",
"410 1381 OFFCURVE",
"305 1169 CURVE SMOOTH",
"253 1064 OFFCURVE",
"212 938 OFFCURVE",
"181 793 CURVE SMOOTH",
"150 648 OFFCURVE",
"135 510 OFFCURVE",
"135 379 CURVE SMOOTH",
"135 295 OFFCURVE",
"144 225 OFFCURVE",
"162 170 CURVE",
"23 -53 LINE",
"92 -94 LINE",
"203 82 LINE",
"250 14 OFFCURVE",
"319 -20 OFFCURVE",
"412 -20 CURVE SMOOTH"
);
},
{
closed = 1;
nodes = (
"233 487 OFFCURVE",
"246 610 OFFCURVE",
"272 745 CURVE SMOOTH",
"299 880 OFFCURVE",
"333 997 OFFCURVE",
"376 1095 CURVE SMOOTH",
"461 1291 OFFCURVE",
"571 1389 OFFCURVE",
"692 1389 CURVE SMOOTH",
"769 1389 OFFCURVE",
"822 1350 OFFCURVE",
"852 1272 CURVE",
"238 291 LINE",
"235 308 OFFCURVE",
"233 336 OFFCURVE",
"233 377 CURVE SMOOTH"
);
},
{
closed = 1;
nodes = (
"346 74 OFFCURVE",
"294 109 OFFCURVE",
"264 180 CURVE",
"877 1153 LINE",
"879 1100 LINE",
"879 989 OFFCURVE",
"866 867 OFFCURVE",
"840 734 CURVE SMOOTH",
"814 601 OFFCURVE",
"780 484 OFFCURVE",
"738 384 CURVE SMOOTH",
"654 185 OFFCURVE",
"543 74 OFFCURVE",
"420 74 CURVE SMOOTH"
);
}
);
width = 958;
}
);
unicode = 00D8;
},
{
glyphname = OE;
lastChange = "2013-03-10 17:26:55 +0200";
layers = (
{
layerId = UUID0;
name = "Light Condensed Italic";
paths = (
{
closed = 1;
nodes = (
"956 94 LINE",
"580 94 LINE",
"713 719 LINE",
"1067 719 LINE",
"1087 813 LINE",
"733 813 LINE",
"850 1366 LINE",
"1227 1366 LINE",
"1247 1462 LINE",
"895 1462 LINE",
"707 1468 LINE",
"490 1468 OFFCURVE",
"312 1274 OFFCURVE",
"211 918 CURVE SMOOTH",
"160 741 OFFCURVE",
"135 566 OFFCURVE",
"135 395 CURVE SMOOTH",
"135 138 OFFCURVE",
"246 -6 OFFCURVE",
"438 -6 CURVE",
"590 0 LINE",
"938 0 LINE"
);
},
{
closed = 1;
nodes = (
"479 86 LINE",
"394 86 OFFCURVE",
"331 109 OFFCURVE",
"292 156 CURVE SMOOTH",
"253 203 OFFCURVE",
"233 282 OFFCURVE",
"233 393 CURVE SMOOTH",
"233 506 OFFCURVE",
"246 626 OFFCURVE",
"272 755 CURVE SMOOTH",
"298 884 OFFCURVE",
"331 993 OFFCURVE",
"371 1084 CURVE SMOOTH",
"452 1267 OFFCURVE",
"562 1374 OFFCURVE",
"690 1374 CURVE SMOOTH",
"720 1374 LINE",
"750 1372 LINE"
);
}
);
width = 1104;
}
);
unicode = 0152;
},
{
glyphname = P;
lastChange = "2013-03-10 17:26:55 +0200";
layers = (
{
layerId = UUID0;
name = "Light Condensed Italic";
paths = (
{
closed = 1;
nodes = (
"858 1248 OFFCURVE",
"830 1323 OFFCURVE",
"774 1378 CURVE SMOOTH",
"718 1434 OFFCURVE",
"642 1462 OFFCURVE",
"545 1462 CURVE SMOOTH",
"375 1462 LINE",
"66 0 LINE",
"164 0 LINE",
"291 604 LINE",
"387 604 LINE",
"673 599 OFFCURVE",
"861 842 OFFCURVE",
"858 1155 CURVE"
);
},
{
closed = 1;
nodes = (
"453 1366 LINE",
"530 1366 LINE SMOOTH",
"673 1366 OFFCURVE",
"754 1282 OFFCURVE",
"754 1139 CURVE SMOOTH",
"754 999 OFFCURVE",
"721 890 OFFCURVE",
"656 813 CURVE SMOOTH",
"591 736 OFFCURVE",
"500 698 OFFCURVE",
"381 698 CURVE SMOOTH",
"311 698 LINE"
);
}
);
width = 772;
}
);
unicode = 0050;
},
{
glyphname = Q;
lastChange = "2013-03-10 17:26:55 +0200";
layers = (
{
layerId = UUID0;
name = "Light Condensed Italic";
paths = (
{
closed = 1;
nodes = (
"442 -18 LINE",
"539 -348 LINE",
"655 -348 LINE",
"541 8 LINE",
"621 42 OFFCURVE",
"694 111 OFFCURVE",
"759 214 CURVE SMOOTH",
"824 318 OFFCURVE",
"877 450 OFFCURVE",
"917 609 CURVE SMOOTH",
"957 769 OFFCURVE",
"977 926 OFFCURVE",
"977 1081 CURVE SMOOTH",
"977 1349 OFFCURVE",
"885 1483 OFFCURVE",
"702 1483 CURVE SMOOTH",
"545 1483 OFFCURVE",
"410 1381 OFFCURVE",
"305 1169 CURVE SMOOTH",
"253 1064 OFFCURVE",
"212 938 OFFCURVE",
"181 793 CURVE SMOOTH",
"150 648 OFFCURVE",
"135 510 OFFCURVE",
"135 379 CURVE SMOOTH",
"135 113 OFFCURVE",
"227 -20 OFFCURVE",
"412 -20 CURVE"
);
},
{
closed = 1;
nodes = (
"233 519 OFFCURVE",
"254 679 OFFCURVE",
"296 850 CURVE SMOOTH",
"338 1022 OFFCURVE",
"393 1155 OFFCURVE",
"462 1248 CURVE SMOOTH",
"531 1342 OFFCURVE",
"607 1389 OFFCURVE",
"692 1389 CURVE SMOOTH",
"817 1389 OFFCURVE",
"879 1295 OFFCURVE",
"879 1108 CURVE SMOOTH",
"879 957 OFFCURVE",
"858 796 OFFCURVE",
"815 625 CURVE SMOOTH",
"773 454 OFFCURVE",
"717 319 OFFCURVE",
"648 221 CURVE SMOOTH",
"579 123 OFFCURVE",
"503 74 OFFCURVE",
"420 74 CURVE SMOOTH",
"295 74 OFFCURVE",
"233 173 OFFCURVE",
"233 371 CURVE SMOOTH"
);
}
);
width = 958;
}
);
unicode = 0051;
},
{
glyphname = R;
lastChange = "2013-03-10 17:26:55 +0200";
layers = (
{
layerId = UUID0;
name = "Light Condensed Italic";
paths = (
{
closed = 1;
nodes = (
"444 639 LINE",
"561 0 LINE",
"668 0 LINE",
"547 657 LINE",
"727 687 OFFCURVE",
"859 914 OFFCURVE",
"856 1153 CURVE",
"856 1250 OFFCURVE",
"829 1325 OFFCURVE",
"775 1380 CURVE SMOOTH",
"722 1435 OFFCURVE",
"648 1462 OFFCURVE",
"555 1462 CURVE SMOOTH",
"375 1462 LINE",
"66 0 LINE",
"164 0 LINE",
"299 639 LINE"
);
},
{
closed = 1;
nodes = (
"453 1366 LINE",
"530 1366 LINE SMOOTH",
"673 1366 OFFCURVE",
"754 1288 OFFCURVE",
"754 1145 CURVE SMOOTH",
"754 880 OFFCURVE",
"631 729 OFFCURVE",
"422 729 CURVE SMOOTH",
"317 729 LINE"
);
}
);
width = 795;
}
);
unicode = 0052;
},
{
glyphname = S;
lastChange = "2013-03-10 17:26:55 +0200";
layers = (
{
layerId = UUID0;
name = "Light Condensed Italic";
paths = (
{
closed = 1;
nodes = (
"655 512 OFFCURVE",
"628 595 OFFCURVE",
"585 666 CURVE SMOOTH",
"564 701 OFFCURVE",
"522 750 OFFCURVE",
"461 813 CURVE SMOOTH",
"404 870 OFFCURVE",
"365 920 OFFCURVE",
"345 962 CURVE SMOOTH",
"325 1004 OFFCURVE",
"315 1050 OFFCURVE",
"315 1100 CURVE SMOOTH",
"314 1260 OFFCURVE",
"425 1390 OFFCURVE",
"592 1386 CURVE",
"664 1386 OFFCURVE",
"730 1367 OFFCURVE",
"791 1329 CURVE",
"844 1423 LINE",
"821 1439 OFFCURVE",
"785 1453 OFFCURVE",
"738 1465 CURVE SMOOTH",
"691 1477 OFFCURVE",
"645 1483 OFFCURVE",
"602 1483 CURVE SMOOTH",
"446 1483 OFFCURVE",
"326 1415 OFFCURVE",
"261 1291 CURVE SMOOTH",
"229 1230 OFFCURVE",
"213 1161 OFFCURVE",
"213 1085 CURVE SMOOTH",
"213 1000 OFFCURVE",
"235 932 OFFCURVE",
"275 869 CURVE SMOOTH",
"295 838 OFFCURVE",
"331 794 OFFCURVE",
"383 739 CURVE SMOOTH",
"438 681 OFFCURVE",
"474 637 OFFCURVE",
"493 607 CURVE SMOOTH",
"512 578 OFFCURVE",
"526 546 OFFCURVE",
"537 512 CURVE SMOOTH",
"548 478 OFFCURVE",
"553 440 OFFCURVE",
"553 397 CURVE SMOOTH",
"553 297 OFFCURVE",
"528 218 OFFCURVE",
"479 160 CURVE SMOOTH",
"430 103 OFFCURVE",
"361 74 OFFCURVE",
"272 74 CURVE SMOOTH",
"178 74 OFFCURVE",
"91 98 OFFCURVE",
"10 145 CURVE",
"10 37 LINE",
"59 6 OFFCURVE",
"159 -20 OFFCURVE",
"264 -20 CURVE SMOOTH",
"386 -20 OFFCURVE",
"482 17 OFFCURVE",
"551 91 CURVE SMOOTH",
"620 166 OFFCURVE",
"655 268 OFFCURVE",
"655 399 CURVE SMOOTH"
);
}
);
width = 727;
}
);
unicode = 0053;
},
{
glyphname = T;
lastChange = "2013-03-10 17:26:55 +0200";
layers = (
{
layerId = UUID0;
name = "Light Condensed Italic";
paths = (
{
closed = 1;
nodes = (
"580 1366 LINE",
"836 1366 LINE",
"856 1462 LINE",
"244 1462 LINE",
"223 1366 LINE",
"479 1366 LINE",
"190 0 LINE",
"291 0 LINE"
);
}
);
width = 639;
}
);
unicode = 0054;
},
{
glyphname = U;
lastChange = "2013-03-10 17:26:55 +0200";
layers = (
{
layerId = UUID0;
name = "Light Condensed Italic";
paths = (
{
closed = 1;
nodes = (
"913 1462 LINE",
"698 457 LINE",
"642 186 OFFCURVE",
"549 74 OFFCURVE",
"397 74 CURVE SMOOTH",
"282 74 OFFCURVE",
"225 141 OFFCURVE",
"225 276 CURVE SMOOTH",
"225 324 OFFCURVE",
"231 375 OFFCURVE",
"244 428 CURVE",
"465 1462 LINE",
"367 1462 LINE",
"147 440 LINE",
"135 381 OFFCURVE",
"129 326 OFFCURVE",
"129 276 CURVE SMOOTH",
"129 89 OFFCURVE",
"218 -20 OFFCURVE",
"385 -20 CURVE SMOOTH",
"494 -20 OFFCURVE",
"581 18 OFFCURVE",
"645 93 CURVE SMOOTH",
"710 168 OFFCURVE",
"760 290 OFFCURVE",
"797 459 CURVE",
"1012 1462 LINE"
);
}
);
width = 911;
}
);
unicode = 0055;
},
{
glyphname = V;
lastChange = "2013-03-10 17:26:55 +0200";
layers = (
{
layerId = UUID0;
name = "Light Condensed Italic";
paths = (
{
closed = 1;
nodes = (
"432 455 LINE",
"371 302 OFFCURVE",
"330 191 OFFCURVE",
"307 121 CURVE",
"322 298 OFFCURVE",
"330 442 OFFCURVE",
"330 553 CURVE SMOOTH",
"330 1462 LINE",
"231 1462 LINE",
"231 0 LINE",
"340 0 LINE",
"950 1462 LINE",
"850 1462 LINE"
);
}
);
width = 729;
}
);
unicode = 0056;
},
{
glyphname = W;
lastChange = "2013-03-10 17:26:55 +0200";
layers = (
{
layerId = UUID0;
name = "Light Condensed Italic";
paths = (
{
closed = 1;
nodes = (
"979 455 LINE",
"951 386 OFFCURVE",
"909 272 OFFCURVE",
"852 111 CURVE",
"861 196 OFFCURVE",
"870 323 OFFCURVE",
"877 492 CURVE",
"909 1462 LINE",
"801 1462 LINE",
"412 451 LINE",
"313 185 LINE",
"287 111 LINE",
"294 200 OFFCURVE",
"300 314 OFFCURVE",
"305 455 CURVE",
"332 1462 LINE",
"231 1462 LINE",
"205 0 LINE",
"326 0 LINE",
"752 1096 LINE",
"831 1333 LINE",
"815 1094 LINE",
"768 0 LINE",
"889 0 LINE",
"1477 1462 LINE",
"1376 1462 LINE"
);
}
);
width = 1270;
}
);
unicode = 0057;
},
{
glyphname = X;
lastChange = "2013-03-10 17:26:55 +0200";
layers = (
{
layerId = UUID0;
name = "Light Condensed Italic";
paths = (
{
closed = 1;
nodes = (
"479 743 LINE",
"856 1462 LINE",
"756 1462 LINE",
"449 856 LINE",
"381 1462 LINE",
"281 1462 LINE",
"362 791 LINE",
"-57 0 LINE",
"45 0 LINE",
"393 666 LINE",
"446 0 LINE",
"547 0 LINE"
);
}
);
width = 651;
}
);
unicode = 0058;
},
{
glyphname = Y;
lastChange = "2013-03-10 17:26:55 +0200";
layers = (
{
layerId = UUID0;
name = "Light Condensed Italic";
paths = (
{
closed = 1;
nodes = (
"328 1462 LINE",
"227 1462 LINE",
"301 571 LINE",
"180 0 LINE",
"281 0 LINE",
"401 571 LINE",
"848 1462 LINE",
"745 1462 LINE",
"379 707 LINE"
);
}
);
width = 616;
}
);
unicode = 0059;
},
{
glyphname = Z;
lastChange = "2013-03-10 17:26:55 +0200";
layers = (
{
layerId = UUID0;
name = "Light Condensed Italic";
paths = (
{
closed = 1;
nodes = (
"483 94 LINE",
"92 94 LINE",
"743 1372 LINE",
"762 1462 LINE",
"289 1462 LINE",
"268 1366 LINE",
"635 1366 LINE",
"-6 88 LINE",
"-25 0 LINE",
"465 0 LINE"
);
}
);
width = 580;
}
);
unicode = 005A;
},
{
glyphname = a;
lastChange = "2013-03-10 17:26:55 +0200";
layers = (
{
layerId = UUID0;
name = "Light Condensed Italic";
paths = (
{
closed = 1;
nodes = (
"410 -20 OFFCURVE",
"493 39 OFFCURVE",
"569 156 CURVE",
"573 156 LINE",
"555 0 LINE",
"631 0 LINE",
"860 1085 LINE",
"780 1085 LINE",
"741 956 LINE",
"735 956 LINE",
"708 1056 OFFCURVE",
"650 1106 OFFCURVE",
"561 1106 CURVE SMOOTH",
"404 1106 OFFCURVE",
"265 949 OFFCURVE",
"181 676 CURVE",
"140 539 OFFCURVE",
"119 401 OFFCURVE",
"119 262 CURVE SMOOTH",
"119 74 OFFCURVE",
"186 -20 OFFCURVE",
"319 -20 CURVE SMOOTH"
);
},
{
closed = 1;
nodes = (
"247 63 OFFCURVE",
"217 127 OFFCURVE",
"217 248 CURVE SMOOTH",
"217 363 OFFCURVE",
"234 486 OFFCURVE",
"268 617 CURVE SMOOTH",
"302 748 OFFCURVE",
"344 847 OFFCURVE",
"394 914 CURVE SMOOTH",
"444 982 OFFCURVE",
"498 1016 OFFCURVE",
"557 1016 CURVE SMOOTH",
"642 1016 OFFCURVE",
"692 959 OFFCURVE",
"692 848 CURVE SMOOTH",
"692 730 OFFCURVE",
"674 604 OFFCURVE",
"638 471 CURVE SMOOTH",
"602 338 OFFCURVE",
"558 236 OFFCURVE",
"506 167 CURVE SMOOTH",
"454 98 OFFCURVE",
"398 63 OFFCURVE",
"338 63 CURVE SMOOTH"
);
}
);
width = 817;
}
);
unicode = 0061;
},
{
glyphname = ae;
lastChange = "2013-03-10 17:26:55 +0200";
layers = (
{
layerId = UUID0;
name = "Light Condensed Italic";
paths = (
{
closed = 1;
nodes = (
"415 -20 OFFCURVE",
"492 39 OFFCURVE",
"551 156 CURVE",
"528 0 LINE",
"604 0 LINE",
"637 164 LINE",
"660 47 OFFCURVE",
"741 -20 OFFCURVE",
"858 -20 CURVE SMOOTH",
"938 -20 OFFCURVE",
"991 -4 OFFCURVE",
"1059 35 CURVE",
"1059 121 LINE",
"995 84 OFFCURVE",
"933 66 OFFCURVE",
"874 66 CURVE SMOOTH",
"749 66 OFFCURVE",
"686 142 OFFCURVE",
"686 307 CURVE SMOOTH",
"686 374 OFFCURVE",
"693 440 OFFCURVE",
"707 506 CURVE",
"719 506 LINE SMOOTH",
"1024 500 OFFCURVE",
"1213 654 OFFCURVE",
"1212 903 CURVE SMOOTH",
"1212 1039 OFFCURVE",
"1146 1106 OFFCURVE",
"1030 1106 CURVE SMOOTH",
"951 1106 OFFCURVE",
"874 1052 OFFCURVE",
"801 944 CURVE",
"834 1085 LINE",
"754 1085 LINE",
"715 952 LINE",
"688 1065 OFFCURVE",
"640 1106 OFFCURVE",
"561 1106 CURVE SMOOTH",
"404 1106 OFFCURVE",
"265 949 OFFCURVE",
"181 676 CURVE",
"140 539 OFFCURVE",
"119 401 OFFCURVE",
"119 262 CURVE SMOOTH",
"119 74 OFFCURVE",
"186 -20 OFFCURVE",
"319 -20 CURVE SMOOTH"
);
},
{
closed = 1;
nodes = (
"247 63 OFFCURVE",
"217 127 OFFCURVE",
"217 248 CURVE SMOOTH",
"217 363 OFFCURVE",
"234 486 OFFCURVE",
"268 617 CURVE SMOOTH",
"302 748 OFFCURVE",
"344 847 OFFCURVE",
"394 914 CURVE SMOOTH",
"444 982 OFFCURVE",
"498 1016 OFFCURVE",
"557 1016 CURVE SMOOTH",
"622 1016 OFFCURVE",
"659 956 OFFCURVE",
"659 848 CURVE SMOOTH",
"659 721 OFFCURVE",
"644 592 OFFCURVE",
"614 461 CURVE SMOOTH",
"584 330 OFFCURVE",
"545 231 OFFCURVE",
"497 164 CURVE SMOOTH",
"450 97 OFFCURVE",
"397 63 OFFCURVE",
"338 63 CURVE SMOOTH"
);
},
{
closed = 1;
nodes = (
"1093 1018 OFFCURVE",
"1118 976 OFFCURVE",
"1118 905 CURVE SMOOTH",
"1118 694 OFFCURVE",
"981 588 OFFCURVE",
"721 588 CURVE",
"797 872 OFFCURVE",
"902 1018 OFFCURVE",
"1014 1018 CURVE SMOOTH"
);
}
);
width = 1192;
}
);
unicode = 00E6;
},
{
glyphname = b;
lastChange = "2013-03-10 17:26:55 +0200";
layers = (
{
layerId = UUID0;
name = "Light Condensed Italic";
paths = (
{
closed = 1;
nodes = (
"519 1106 OFFCURVE",
"427 1041 OFFCURVE",
"358 920 CURVE",
"354 920 LINE",
"375 1001 LINE",
"494 1556 LINE",
"399 1556 LINE",
"72 0 LINE",
"145 0 LINE",
"190 131 LINE",
"197 131 LINE",
"213 39 OFFCURVE",
"280 -20 OFFCURVE",
"371 -20 CURVE SMOOTH",
"527 -20 OFFCURVE",
"666 135 OFFCURVE",
"750 407 CURVE SMOOTH",
"792 544 OFFCURVE",
"813 682 OFFCURVE",
"813 823 CURVE SMOOTH",
"813 1012 OFFCURVE",
"746 1106 OFFCURVE",
"612 1106 CURVE SMOOTH"
);
},
{
closed = 1;
nodes = (
"685 1022 OFFCURVE",
"715 959 OFFCURVE",
"715 838 CURVE SMOOTH",
"715 723 OFFCURVE",
"698 600 OFFCURVE",
"664 469 CURVE SMOOTH",
"631 338 OFFCURVE",
"589 238 OFFCURVE",
"538 169 CURVE SMOOTH",
"488 100 OFFCURVE",
"434 66 OFFCURVE",
"375 66 CURVE SMOOTH",
"285 66 OFFCURVE",
"240 128 OFFCURVE",
"240 252 CURVE SMOOTH",
"240 373 OFFCURVE",
"257 497 OFFCURVE",
"291 623 CURVE SMOOTH",
"325 750 OFFCURVE",
"368 848 OFFCURVE",
"421 917 CURVE SMOOTH",
"474 987 OFFCURVE",
"531 1022 OFFCURVE",
"594 1022 CURVE SMOOTH"
);
}
);
width = 803;
}
);
unicode = 0062;
},
{
glyphname = c;
lastChange = "2013-03-10 17:26:55 +0200";
layers = (
{
layerId = UUID0;
name = "Light Condensed Italic";
paths = (
{
closed = 1;
nodes = (
"416 -20 OFFCURVE",
"470 -7 OFFCURVE",
"520 20 CURVE",
"520 106 LINE",
"467 79 OFFCURVE",
"419 66 OFFCURVE",
"377 66 CURVE SMOOTH",
"270 66 OFFCURVE",
"217 140 OFFCURVE",
"217 289 CURVE SMOOTH",
"217 404 OFFCURVE",
"233 522 OFFCURVE",
"266 642 CURVE SMOOTH",
"299 762 OFFCURVE",
"341 854 OFFCURVE",
"392 919 CURVE SMOOTH",
"443 984 OFFCURVE",
"500 1016 OFFCURVE",
"561 1016 CURVE SMOOTH",
"601 1016 OFFCURVE",
"639 1006 OFFCURVE",
"674 987 CURVE",
"713 1073 LINE",
"674 1095 OFFCURVE",
"626 1106 OFFCURVE",
"569 1106 CURVE SMOOTH",
"404 1106 OFFCURVE",
"266 967 OFFCURVE",
"182 704 CURVE SMOOTH",
"140 573 OFFCURVE",
"119 436 OFFCURVE",
"119 291 CURVE SMOOTH",
"119 90 OFFCURVE",
"203 -20 OFFCURVE",
"358 -20 CURVE SMOOTH"
);
}
);
width = 588;
}
);
unicode = 0063;
},
{
glyphname = d;
lastChange = "2013-03-10 17:26:55 +0200";
layers = (
{
layerId = UUID0;
name = "Light Condensed Italic";
paths = (
{
closed = 1;
nodes = (
"410 -20 OFFCURVE",
"493 39 OFFCURVE",
"569 156 CURVE",
"573 156 LINE",
"555 0 LINE",
"631 0 LINE",
"961 1556 LINE",
"866 1556 LINE",
"741 954 LINE",
"735 954 LINE",
"719 1045 OFFCURVE",
"653 1106 OFFCURVE",
"561 1106 CURVE SMOOTH",
"404 1106 OFFCURVE",
"265 949 OFFCURVE",
"181 676 CURVE",
"140 539 OFFCURVE",
"119 401 OFFCURVE",
"119 262 CURVE SMOOTH",
"119 74 OFFCURVE",
"186 -20 OFFCURVE",
"319 -20 CURVE SMOOTH"
);
},
{
closed = 1;
nodes = (
"247 63 OFFCURVE",
"217 127 OFFCURVE",
"217 248 CURVE SMOOTH",
"217 363 OFFCURVE",
"234 486 OFFCURVE",
"268 617 CURVE SMOOTH",
"302 748 OFFCURVE",
"344 847 OFFCURVE",
"394 914 CURVE SMOOTH",
"444 982 OFFCURVE",
"498 1016 OFFCURVE",
"557 1016 CURVE SMOOTH",
"652 1016 OFFCURVE",
"692 957 OFFCURVE",
"692 844 CURVE SMOOTH",
"692 723 OFFCURVE",
"674 597 OFFCURVE",
"638 465 CURVE SMOOTH",
"602 334 OFFCURVE",
"558 234 OFFCURVE",
"506 165 CURVE SMOOTH",
"454 97 OFFCURVE",
"398 63 OFFCURVE",
"338 63 CURVE SMOOTH"
);
}
);
width = 817;
}
);
unicode = 0064;
},
{
glyphname = e;
lastChange = "2013-03-10 17:26:55 +0200";
layers = (
{
layerId = UUID0;
name = "Light Condensed Italic";
paths = (
{
closed = 1;
nodes = (
"458 -20 OFFCURVE",
"528 -4 OFFCURVE",
"584 27 CURVE",
"584 123 LINE",
"513 82 OFFCURVE",
"464 66 OFFCURVE",
"401 66 CURVE SMOOTH",
"278 66 OFFCURVE",
"217 146 OFFCURVE",
"217 307 CURVE SMOOTH",
"217 374 OFFCURVE",
"224 440 OFFCURVE",
"238 506 CURVE",
"250 506 LINE SMOOTH",
"555 500 OFFCURVE",
"744 654 OFFCURVE",
"743 903 CURVE SMOOTH",
"743 1039 OFFCURVE",
"677 1106 OFFCURVE",
"561 1106 CURVE SMOOTH",
"485 1106 OFFCURVE",
"412 1069 OFFCURVE",
"343 996 CURVE SMOOTH",
"274 923 OFFCURVE",
"220 823 OFFCURVE",
"179 698 CURVE SMOOTH",
"139 573 OFFCURVE",
"119 440 OFFCURVE",
"119 297 CURVE SMOOTH",
"119 97 OFFCURVE",
"213 -20 OFFCURVE",
"373 -20 CURVE SMOOTH"
);
},
{
closed = 1;
nodes = (
"624 1018 OFFCURVE",
"649 976 OFFCURVE",
"649 905 CURVE SMOOTH",
"649 694 OFFCURVE",
"516 588 OFFCURVE",
"250 588 CURVE",
"281 717 OFFCURVE",
"323 821 OFFCURVE",
"376 900 CURVE SMOOTH",
"429 979 OFFCURVE",
"486 1018 OFFCURVE",
"545 1018 CURVE SMOOTH"
);
}
);
width = 723;
}
);
unicode = 0065;
},
{
glyphname = f;
lastChange = "2013-03-10 17:26:55 +0200";
layers = (
{
layerId = UUID0;
name = "Light Condensed Italic";
paths = (
{
closed = 1;
nodes = (
"-12 -492 OFFCURVE",
"37 -450 OFFCURVE",
"78 -345 CURVE SMOOTH",
"99 -292 OFFCURVE",
"120 -213 OFFCURVE",
"143 -106 CURVE SMOOTH",
"383 1001 LINE",
"526 1001 LINE",
"545 1085 LINE",
"401 1085 LINE",
"430 1226 OFFCURVE",
"452 1317 OFFCURVE",
"466 1359 CURVE SMOOTH",
"481 1401 OFFCURVE",
"496 1431 OFFCURVE",
"513 1448 CURVE SMOOTH",
"530 1466 OFFCURVE",
"555 1475 OFFCURVE",
"586 1475 CURVE SMOOTH",
"613 1475 OFFCURVE",
"640 1468 OFFCURVE",
"668 1454 CURVE",
"709 1542 LINE",
"679 1559 OFFCURVE",
"642 1567 OFFCURVE",
"598 1567 CURVE",
"440 1563 OFFCURVE",
"392 1480 OFFCURVE",
"328 1194 CURVE",
"307 1096 LINE",
"176 1055 LINE",
"166 1001 LINE",
"287 1001 LINE",
"51 -100 LINE",
"34 -183 OFFCURVE",
"18 -245 OFFCURVE",
"3 -286 CURVE SMOOTH",
"-11 -327 OFFCURVE",
"-27 -357 OFFCURVE",
"-44 -374 CURVE SMOOTH",
"-61 -392 OFFCURVE",
"-86 -401 OFFCURVE",
"-117 -401 CURVE SMOOTH",
"-148 -401 OFFCURVE",
"-176 -397 OFFCURVE",
"-201 -389 CURVE",
"-201 -481 LINE",
"-176 -488 OFFCURVE",
"-147 -492 OFFCURVE",
"-113 -492 CURVE SMOOTH"
);
}
);
width = 408;
}
);
unicode = 0066;
},
{
glyphname = g;
lastChange = "2013-03-10 17:26:55 +0200";
layers = (
{
layerId = UUID0;
name = "Light Condensed Italic";
paths = (
{
closed = 1;
nodes = (
"614 1085 LINE",
"591 1099 OFFCURVE",
"559 1106 OFFCURVE",
"516 1106 CURVE SMOOTH",
"393 1106 OFFCURVE",
"290 1024 OFFCURVE",
"223 867 CURVE SMOOTH",
"190 789 OFFCURVE",
"174 709 OFFCURVE",
"174 627 CURVE SMOOTH",
"174 536 OFFCURVE",
"203 466 OFFCURVE",
"260 418 CURVE",
"149 339 OFFCURVE",
"113 278 OFFCURVE",
"113 209 CURVE SMOOTH",
"113 162 OFFCURVE",
"134 124 OFFCURVE",
"176 96 CURVE",
"16 24 OFFCURVE",
"-74 -96 OFFCURVE",
"-74 -236 CURVE SMOOTH",
"-74 -399 OFFCURVE",
"27 -492 OFFCURVE",
"203 -492 CURVE SMOOTH",
"314 -492 OFFCURVE",
"405 -458 OFFCURVE",
"476 -391 CURVE SMOOTH",
"547 -324 OFFCURVE",
"582 -236 OFFCURVE",
"582 -129 CURVE SMOOTH",
"582 -62 OFFCURVE",
"565 -9 OFFCURVE",
"531 30 CURVE SMOOTH",
"497 70 OFFCURVE",
"438 103 OFFCURVE",
"354 129 CURVE SMOOTH",
"287 150 OFFCURVE",
"247 163 OFFCURVE",
"236 169 CURVE SMOOTH",
"225 176 OFFCURVE",
"216 184 OFFCURVE",
"211 193 CURVE SMOOTH",
"206 203 OFFCURVE",
"203 216 OFFCURVE",
"203 231 CURVE SMOOTH",
"203 278 OFFCURVE",
"245 331 OFFCURVE",
"328 389 CURVE",
"350 387 LINE",
"375 387 LINE SMOOTH",
"494 387 OFFCURVE",
"596 480 OFFCURVE",
"655 633 CURVE SMOOTH",
"685 710 OFFCURVE",
"700 785 OFFCURVE",
"700 858 CURVE SMOOTH",
"700 915 OFFCURVE",
"690 963 OFFCURVE",
"670 1001 CURVE",
"807 1018 LINE",
"821 1085 LINE"
);
},
{
closed = 1;
nodes = (
"16 -166 OFFCURVE",
"37 -108 OFFCURVE",
"80 -54 CURVE SMOOTH",
"123 0 OFFCURVE",
"176 38 OFFCURVE",
"240 59 CURVE",
"330 35 LINE",
"441 3 OFFCURVE",
"494 -62 OFFCURVE",
"494 -147 CURVE SMOOTH",
"494 -226 OFFCURVE",
"467 -291 OFFCURVE",
"413 -340 CURVE SMOOTH",
"360 -389 OFFCURVE",
"292 -414 OFFCURVE",
"211 -414 CURVE SMOOTH",
"83 -414 OFFCURVE",
"16 -360 OFFCURVE",
"16 -229 CURVE SMOOTH"
);
},
{
closed = 1;
nodes = (
"266 670 OFFCURVE",
"277 735 OFFCURVE",
"300 807 CURVE SMOOTH",
"323 880 OFFCURVE",
"351 935 OFFCURVE",
"385 972 CURVE SMOOTH",
"420 1009 OFFCURVE",
"457 1028 OFFCURVE",
"498 1028 CURVE SMOOTH",
"570 1028 OFFCURVE",
"606 977 OFFCURVE",
"606 874 CURVE SMOOTH",
"606 809 OFFCURVE",
"595 742 OFFCURVE",
"573 671 CURVE SMOOTH",
"551 601 OFFCURVE",
"523 548 OFFCURVE",
"489 513 CURVE SMOOTH",
"456 478 OFFCURVE",
"418 461 OFFCURVE",
"377 461 CURVE SMOOTH",
"305 461 OFFCURVE",
"266 513 OFFCURVE",
"266 612 CURVE SMOOTH"
);
}
);
width = 668;
}
);
unicode = 0067;
},
{
glyphname = h;
lastChange = "2013-03-10 17:26:55 +0200";
layers = (
{
layerId = UUID0;
name = "Light Condensed Italic";
paths = (
{
closed = 1;
nodes = (
"598 0 LINE",
"766 797 LINE SMOOTH",
"775 840 OFFCURVE",
"780 881 OFFCURVE",
"780 918 CURVE SMOOTH",
"780 1039 OFFCURVE",
"716 1106 OFFCURVE",
"604 1106 CURVE SMOOTH",
"505 1106 OFFCURVE",
"424 1049 OFFCURVE",
"362 934 CURVE",
"358 934 LINE",
"399 1102 LINE",
"498 1556 LINE",
"403 1556 LINE",
"74 0 LINE",
"168 0 LINE",
"295 596 LINE",
"354 881 OFFCURVE",
"446 1012 OFFCURVE",
"586 1012 CURVE SMOOTH",
"653 1012 OFFCURVE",
"686 974 OFFCURVE",
"686 899 CURVE SMOOTH",
"686 870 OFFCURVE",
"683 842 OFFCURVE",
"676 815 CURVE",
"504 0 LINE"
);
}
);
width = 784;
}
);
unicode = 0068;
},
{
glyphname = i;
lastChange = "2013-03-10 17:26:55 +0200";
layers = (
{
layerId = UUID0;
name = "Light Condensed Italic";
paths = (
{
closed = 1;
nodes = (
"393 1085 LINE",
"299 1085 LINE",
"68 0 LINE",
"162 0 LINE"
);
},
{
closed = 1;
nodes = (
"346 1313 OFFCURVE",
"362 1292 OFFCURVE",
"395 1292 CURVE SMOOTH",
"443 1292 OFFCURVE",
"475 1347 OFFCURVE",
"475 1423 CURVE SMOOTH",
"475 1462 OFFCURVE",
"459 1481 OFFCURVE",
"428 1481 CURVE SMOOTH",
"380 1481 OFFCURVE",
"346 1424 OFFCURVE",
"346 1356 CURVE SMOOTH"
);
}
);
width = 348;
}
);
unicode = 0069;
},
{
glyphname = dotlessi;
lastChange = "2013-03-10 17:26:55 +0200";
layers = (
{
layerId = UUID0;
name = "Light Condensed Italic";
paths = (
{
closed = 1;
nodes = (
"393 1085 LINE",
"299 1085 LINE",
"68 0 LINE",
"162 0 LINE"
);
}
);
width = 348;
}
);
unicode = 0131;
},
{
glyphname = j;
lastChange = "2013-03-10 17:26:55 +0200";
layers = (
{
layerId = UUID0;
name = "Light Condensed Italic";
paths = (
{
closed = 1;
nodes = (
"346 1313 OFFCURVE",
"362 1292 OFFCURVE",
"395 1292 CURVE SMOOTH",
"443 1292 OFFCURVE",
"475 1347 OFFCURVE",
"475 1423 CURVE SMOOTH",
"475 1462 OFFCURVE",
"459 1481 OFFCURVE",
"428 1481 CURVE SMOOTH",
"380 1481 OFFCURVE",
"346 1424 OFFCURVE",
"346 1356 CURVE SMOOTH"
);
},
{
closed = 1;
nodes = (
"47 -100 LINE",
"30 -183 OFFCURVE",
"14 -245 OFFCURVE",
"0 -286 CURVE SMOOTH",
"-15 -327 OFFCURVE",
"-31 -357 OFFCURVE",
"-48 -374 CURVE SMOOTH",
"-65 -392 OFFCURVE",
"-90 -401 OFFCURVE",
"-121 -401 CURVE SMOOTH",
"-152 -401 OFFCURVE",
"-180 -397 OFFCURVE",
"-205 -389 CURVE",
"-205 -481 LINE",
"-180 -488 OFFCURVE",
"-151 -492 OFFCURVE",
"-117 -492 CURVE SMOOTH",
"-17 -492 OFFCURVE",
"33 -448 OFFCURVE",
"74 -344 CURVE SMOOTH",
"95 -292 OFFCURVE",
"116 -213 OFFCURVE",
"139 -106 CURVE SMOOTH",
"393 1085 LINE",
"299 1085 LINE"
);
}
);
width = 348;
}
);
unicode = 006A;
},
{
glyphname = k;
lastChange = "2013-03-10 17:26:55 +0200";
layers = (
{
layerId = UUID0;
name = "Light Condensed Italic";
paths = (
{
closed = 1;
nodes = (
"274 549 LINE",
"299 649 OFFCURVE",
"314 712 OFFCURVE",
"319 739 CURVE",
"498 1556 LINE",
"403 1556 LINE",
"72 0 LINE",
"166 0 LINE",
"258 434 LINE",
"385 573 LINE",
"469 0 LINE",
"567 0 LINE",
"471 655 LINE",
"778 1085 LINE",
"676 1085 LINE",
"406 713 LINE",
"324 608 LINE",
"276 549 LINE"
);
}
);
width = 639;
}
);
unicode = 006B;
},
{
glyphname = l;
lastChange = "2013-03-10 17:26:55 +0200";
layers = (
{
layerId = UUID0;
name = "Light Condensed Italic";
paths = (
{
closed = 1;
nodes = (
"498 1556 LINE",
"403 1556 LINE",
"72 0 LINE",
"166 0 LINE"
);
}
);
width = 346;
}
);
unicode = 006C;
},
{
glyphname = m;
lastChange = "2013-03-10 17:26:55 +0200";
layers = (
{
layerId = UUID0;
name = "Light Condensed Italic";
paths = (
{
closed = 1;
nodes = (
"985 0 LINE",
"1151 786 LINE SMOOTH",
"1160 829 OFFCURVE",
"1165 869 OFFCURVE",
"1165 907 CURVE SMOOTH",
"1165 1039 OFFCURVE",
"1107 1106 OFFCURVE",
"1004 1106 CURVE SMOOTH",
"904 1106 OFFCURVE",
"834 1056 OFFCURVE",
"766 956 CURVE",
"753 1060 OFFCURVE",
"697 1106 OFFCURVE",
"600 1106 CURVE SMOOTH",
"501 1106 OFFCURVE",
"421 1049 OFFCURVE",
"360 934 CURVE",
"356 934 LINE",
"381 1085 LINE",
"301 1085 LINE",
"72 0 LINE",
"166 0 LINE",
"293 596 LINE SMOOTH",
"324 745 OFFCURVE",
"362 852 OFFCURVE",
"407 916 CURVE SMOOTH",
"452 980 OFFCURVE",
"508 1012 OFFCURVE",
"575 1012 CURVE SMOOTH",
"641 1012 OFFCURVE",
"674 974 OFFCURVE",
"674 897 CURVE SMOOTH",
"674 870 OFFCURVE",
"670 838 OFFCURVE",
"662 799 CURVE SMOOTH",
"494 0 LINE",
"588 0 LINE",
"745 752 LINE SMOOTH",
"761 830 OFFCURVE",
"790 893 OFFCURVE",
"833 940 CURVE SMOOTH",
"876 988 OFFCURVE",
"924 1012 OFFCURVE",
"979 1012 CURVE SMOOTH",
"1042 1012 OFFCURVE",
"1073 974 OFFCURVE",
"1073 897 CURVE SMOOTH",
"1073 872 OFFCURVE",
"1070 844 OFFCURVE",
"1063 813 CURVE SMOOTH",
"891 0 LINE"
);
}
);
width = 1171;
}
);
unicode = 006D;
},
{
glyphname = n;
lastChange = "2013-03-10 17:26:55 +0200";
layers = (
{
layerId = UUID0;
name = "Light Condensed Italic";
paths = (
{
closed = 1;
nodes = (
"596 0 LINE",
"764 797 LINE SMOOTH",
"773 840 OFFCURVE",
"778 881 OFFCURVE",
"778 918 CURVE SMOOTH",
"778 1039 OFFCURVE",
"714 1106 OFFCURVE",
"602 1106 CURVE SMOOTH",
"503 1106 OFFCURVE",
"422 1049 OFFCURVE",
"360 934 CURVE",
"356 934 LINE",
"381 1085 LINE",
"301 1085 LINE",
"72 0 LINE",
"166 0 LINE",
"293 596 LINE",
"352 881 OFFCURVE",
"444 1012 OFFCURVE",
"584 1012 CURVE SMOOTH",
"651 1012 OFFCURVE",
"684 974 OFFCURVE",
"684 899 CURVE SMOOTH",
"684 870 OFFCURVE",
"681 842 OFFCURVE",
"674 815 CURVE",
"502 0 LINE"
);
}
);
width = 782;
}
);
unicode = 006E;
},
{
glyphname = o;
lastChange = "2013-03-10 17:26:55 +0200";
layers = (
{
layerId = UUID0;
name = "Light Condensed Italic";
paths = (
{
closed = 1;
nodes = (
"467 -20 OFFCURVE",
"573 66 OFFCURVE",
"652 218 CURVE SMOOTH",
"691 295 OFFCURVE",
"723 386 OFFCURVE",
"747 492 CURVE SMOOTH",
"772 599 OFFCURVE",
"784 698 OFFCURVE",
"784 791 CURVE SMOOTH",
"784 991 OFFCURVE",
"700 1106 OFFCURVE",
"559 1106 CURVE SMOOTH",
"431 1106 OFFCURVE",
"326 1020 OFFCURVE",
"249 868 CURVE SMOOTH",
"210 793 OFFCURVE",
"179 701 OFFCURVE",
"155 592 CURVE SMOOTH",
"131 483 OFFCURVE",
"119 382 OFFCURVE",
"119 287 CURVE SMOOTH",
"119 91 OFFCURVE",
"197 -20 OFFCURVE",
"340 -20 CURVE SMOOTH"
);
},
{
closed = 1;
nodes = (
"217 385 OFFCURVE",
"233 507 OFFCURVE",
"266 632 CURVE SMOOTH",
"299 757 OFFCURVE",
"340 853 OFFCURVE",
"389 918 CURVE SMOOTH",
"438 983 OFFCURVE",
"491 1016 OFFCURVE",
"547 1016 CURVE SMOOTH",
"640 1016 OFFCURVE",
"686 948 OFFCURVE",
"686 811 CURVE SMOOTH",
"686 696 OFFCURVE",
"670 577 OFFCURVE",
"638 454 CURVE SMOOTH",
"607 331 OFFCURVE",
"566 235 OFFCURVE",
"516 167 CURVE SMOOTH",
"466 100 OFFCURVE",
"411 66 OFFCURVE",
"352 66 CURVE SMOOTH",
"262 66 OFFCURVE",
"217 133 OFFCURVE",
"217 268 CURVE SMOOTH"
);
}
);
width = 780;
}
);
unicode = 006F;
},
{
glyphname = oslash;
lastChange = "2013-03-10 17:26:55 +0200";
layers = (
{
layerId = UUID0;
name = "Light Condensed Italic";
paths = (
{
closed = 1;
nodes = (
"467 -20 OFFCURVE",
"573 66 OFFCURVE",
"652 218 CURVE SMOOTH",
"691 295 OFFCURVE",
"723 386 OFFCURVE",
"747 492 CURVE SMOOTH",
"772 599 OFFCURVE",
"784 698 OFFCURVE",
"784 791 CURVE SMOOTH",
"784 842 OFFCURVE",
"779 887 OFFCURVE",
"768 926 CURVE",
"903 1128 LINE",
"836 1171 LINE",
"731 1014 LINE",
"692 1075 OFFCURVE",
"634 1106 OFFCURVE",
"559 1106 CURVE SMOOTH",
"431 1106 OFFCURVE",
"326 1020 OFFCURVE",
"249 868 CURVE SMOOTH",
"210 793 OFFCURVE",
"179 701 OFFCURVE",
"155 592 CURVE SMOOTH",
"131 483 OFFCURVE",
"119 382 OFFCURVE",
"119 287 CURVE SMOOTH",
"119 222 OFFCURVE",
"126 168 OFFCURVE",
"141 125 CURVE",
"10 -74 LINE",
"74 -117 LINE",
"184 49 LINE",
"222 3 OFFCURVE",
"274 -20 OFFCURVE",
"340 -20 CURVE SMOOTH"
);
},
{
closed = 1;
nodes = (
"215 240 LINE",
"215 365 OFFCURVE",
"231 491 OFFCURVE",
"263 619 CURVE SMOOTH",
"296 747 OFFCURVE",
"337 845 OFFCURVE",
"386 913 CURVE SMOOTH",
"436 982 OFFCURVE",
"490 1016 OFFCURVE",
"547 1016 CURVE SMOOTH",
"608 1016 OFFCURVE",
"649 985 OFFCURVE",
"670 922 CURVE"
);
},
{
closed = 1;
nodes = (
"299 66 OFFCURVE",
"262 88 OFFCURVE",
"240 133 CURVE",
"688 803 LINE",
"686 679 OFFCURVE",
"669 558 OFFCURVE",
"636 439 CURVE SMOOTH",
"604 320 OFFCURVE",
"563 228 OFFCURVE",
"514 163 CURVE SMOOTH",
"465 98 OFFCURVE",
"411 66 OFFCURVE",
"352 66 CURVE SMOOTH"
);
}
);
width = 780;
}
);
unicode = 00F8;
},
{
glyphname = oe;
lastChange = "2013-03-10 17:26:55 +0200";
layers = (
{
layerId = UUID0;
name = "Light Condensed Italic";
paths = (
{
closed = 1;
nodes = (
"469 -20 OFFCURVE",
"570 64 OFFCURVE",
"645 231 CURVE",
"663 64 OFFCURVE",
"743 -20 OFFCURVE",
"885 -20 CURVE SMOOTH",
"963 -20 OFFCURVE",
"1034 -2 OFFCURVE",
"1098 35 CURVE",
"1098 121 LINE",
"1026 80 OFFCURVE",
"974 66 OFFCURVE",
"909 66 CURVE SMOOTH",
"786 66 OFFCURVE",
"725 146 OFFCURVE",
"725 307 CURVE SMOOTH",
"725 370 OFFCURVE",
"732 437 OFFCURVE",
"745 506 CURVE",
"758 506 LINE SMOOTH",
"1063 500 OFFCURVE",
"1252 654 OFFCURVE",
"1251 903 CURVE SMOOTH",
"1251 1039 OFFCURVE",
"1185 1106 OFFCURVE",
"1069 1106 CURVE SMOOTH",
"945 1106 OFFCURVE",
"835 1007 OFFCURVE",
"756 842 CURVE",
"746 1018 OFFCURVE",
"680 1106 OFFCURVE",
"559 1106 CURVE SMOOTH",
"431 1106 OFFCURVE",
"326 1020 OFFCURVE",
"249 868 CURVE SMOOTH",
"210 793 OFFCURVE",
"179 701 OFFCURVE",
"155 592 CURVE SMOOTH",
"131 483 OFFCURVE",
"119 382 OFFCURVE",
"119 287 CURVE SMOOTH",
"119 91 OFFCURVE",
"197 -20 OFFCURVE",
"340 -20 CURVE SMOOTH"
);
},
{
closed = 1;
nodes = (
"217 385 OFFCURVE",
"233 507 OFFCURVE",
"266 632 CURVE SMOOTH",
"299 757 OFFCURVE",
"340 853 OFFCURVE",
"389 918 CURVE SMOOTH",
"438 983 OFFCURVE",
"491 1016 OFFCURVE",
"547 1016 CURVE SMOOTH",
"640 1016 OFFCURVE",
"686 948 OFFCURVE",
"686 811 CURVE SMOOTH",
"686 696 OFFCURVE",
"670 577 OFFCURVE",
"638 454 CURVE SMOOTH",
"607 331 OFFCURVE",
"566 235 OFFCURVE",
"516 167 CURVE SMOOTH",
"466 100 OFFCURVE",
"411 66 OFFCURVE",
"352 66 CURVE SMOOTH",
"262 66 OFFCURVE",
"217 133 OFFCURVE",
"217 268 CURVE SMOOTH"
);
},
{
closed = 1;
nodes = (
"1130 1018 OFFCURVE",
"1157 976 OFFCURVE",
"1157 905 CURVE SMOOTH",
"1157 694 OFFCURVE",
"1024 588 OFFCURVE",
"758 588 CURVE",
"789 717 OFFCURVE",
"831 821 OFFCURVE",
"884 900 CURVE SMOOTH",
"937 979 OFFCURVE",
"994 1018 OFFCURVE",
"1053 1018 CURVE SMOOTH"
);
}
);
width = 1227;
}
);
unicode = 0153;
},
{
glyphname = p;
lastChange = "2013-03-10 17:26:55 +0200";
layers = (
{
layerId = UUID0;
name = "Light Condensed Italic";
paths = (
{
closed = 1;
nodes = (
"524 1106 OFFCURVE",
"441 1047 OFFCURVE",
"365 930 CURVE",
"360 930 LINE",
"385 1085 LINE",
"303 1085 LINE",
"-27 -471 LINE",
"68 -471 LINE",
"193 131 LINE",
"199 131 LINE",
"215 39 OFFCURVE",
"282 -20 OFFCURVE",
"373 -20 CURVE SMOOTH",
"530 -20 OFFCURVE",
"668 136 OFFCURVE",
"752 408 CURVE SMOOTH",
"794 545 OFFCURVE",
"815 683 OFFCURVE",
"815 823 CURVE SMOOTH",
"815 1012 OFFCURVE",
"748 1106 OFFCURVE",
"614 1106 CURVE SMOOTH"
);
},
{
closed = 1;
nodes = (
"687 1022 OFFCURVE",
"717 959 OFFCURVE",
"717 838 CURVE SMOOTH",
"717 723 OFFCURVE",
"700 600 OFFCURVE",
"666 469 CURVE SMOOTH",
"633 338 OFFCURVE",
"591 238 OFFCURVE",
"540 169 CURVE SMOOTH",
"490 100 OFFCURVE",
"436 66 OFFCURVE",
"377 66 CURVE SMOOTH",
"287 66 OFFCURVE",
"242 128 OFFCURVE",
"242 252 CURVE SMOOTH",
"242 373 OFFCURVE",
"259 497 OFFCURVE",
"293 623 CURVE SMOOTH",
"327 750 OFFCURVE",
"370 848 OFFCURVE",
"423 917 CURVE SMOOTH",
"476 987 OFFCURVE",
"533 1022 OFFCURVE",
"596 1022 CURVE SMOOTH"
);
}
);
width = 803;
}
);
unicode = 0070;
},
{
glyphname = q;
lastChange = "2013-03-10 17:26:55 +0200";
layers = (
{
layerId = UUID0;
name = "Light Condensed Italic";
paths = (
{
closed = 1;
nodes = (
"412 -20 OFFCURVE",
"496 39 OFFCURVE",
"573 158 CURVE",
"578 158 LINE",
"535 -4 LINE",
"432 -492 LINE",
"526 -492 LINE",
"860 1085 LINE",
"780 1085 LINE",
"741 956 LINE",
"735 956 LINE",
"708 1056 OFFCURVE",
"650 1106 OFFCURVE",
"561 1106 CURVE SMOOTH",
"404 1106 OFFCURVE",
"265 949 OFFCURVE",
"181 676 CURVE",
"140 539 OFFCURVE",
"119 401 OFFCURVE",
"119 262 CURVE SMOOTH",
"119 74 OFFCURVE",
"186 -20 OFFCURVE",
"319 -20 CURVE SMOOTH"
);
},
{
closed = 1;
nodes = (
"247 63 OFFCURVE",
"217 127 OFFCURVE",
"217 248 CURVE SMOOTH",
"217 363 OFFCURVE",
"234 486 OFFCURVE",
"268 617 CURVE SMOOTH",
"302 748 OFFCURVE",
"344 847 OFFCURVE",
"394 914 CURVE SMOOTH",
"444 982 OFFCURVE",
"498 1016 OFFCURVE",
"557 1016 CURVE SMOOTH",
"642 1016 OFFCURVE",
"692 959 OFFCURVE",
"692 848 CURVE SMOOTH",
"692 730 OFFCURVE",
"674 604 OFFCURVE",
"638 471 CURVE SMOOTH",
"602 338 OFFCURVE",
"558 236 OFFCURVE",
"506 167 CURVE SMOOTH",
"454 98 OFFCURVE",
"398 63 OFFCURVE",
"338 63 CURVE SMOOTH"
);
}
);
width = 817;
}
);
unicode = 0071;
},
{
glyphname = r;
lastChange = "2013-03-10 17:26:55 +0200";
layers = (
{
layerId = UUID0;
name = "Light Condensed Italic";
paths = (
{
closed = 1;
nodes = (
"483 1106 OFFCURVE",
"405 1036 OFFCURVE",
"346 895 CURVE",
"342 895 LINE",
"371 1085 LINE",
"301 1085 LINE",
"72 0 LINE",
"166 0 LINE",
"289 575 LINE SMOOTH",
"318 710 OFFCURVE",
"356 817 OFFCURVE",
"405 895 CURVE SMOOTH",
"454 973 OFFCURVE",
"506 1012 OFFCURVE",
"563 1012 CURVE SMOOTH",
"587 1012 OFFCURVE",
"609 1007 OFFCURVE",
"629 997 CURVE",
"655 1094 LINE",
"632 1102 OFFCURVE",
"608 1106 OFFCURVE",
"582 1106 CURVE SMOOTH"
);
}
);
width = 504;
}
);
unicode = 0072;
},
{
glyphname = s;
lastChange = "2013-03-10 17:26:55 +0200";
layers = (
{
layerId = UUID0;
name = "Light Condensed Italic";
paths = (
{
closed = 1;
nodes = (
"418 -20 OFFCURVE",
"524 94 OFFCURVE",
"524 297 CURVE SMOOTH",
"524 373 OFFCURVE",
"503 435 OFFCURVE",
"468 488 CURVE SMOOTH",
"451 515 OFFCURVE",
"419 554 OFFCURVE",
"371 606 CURVE SMOOTH",
"331 650 OFFCURVE",
"304 688 OFFCURVE",
"289 720 CURVE SMOOTH",
"275 752 OFFCURVE",
"268 788 OFFCURVE",
"268 827 CURVE SMOOTH",
"268 884 OFFCURVE",
"286 930 OFFCURVE",
"321 964 CURVE SMOOTH",
"357 999 OFFCURVE",
"402 1016 OFFCURVE",
"457 1016 CURVE SMOOTH",
"524 1016 OFFCURVE",
"582 997 OFFCURVE",
"629 958 CURVE",
"680 1044 LINE",
"625 1085 OFFCURVE",
"552 1106 OFFCURVE",
"461 1106 CURVE SMOOTH",
"376 1106 OFFCURVE",
"307 1079 OFFCURVE",
"254 1025 CURVE SMOOTH",
"201 972 OFFCURVE",
"174 902 OFFCURVE",
"174 815 CURVE SMOOTH",
"174 742 OFFCURVE",
"192 688 OFFCURVE",
"223 639 CURVE SMOOTH",
"238 615 OFFCURVE",
"268 579 OFFCURVE",
"311 532 CURVE SMOOTH",
"351 488 OFFCURVE",
"377 456 OFFCURVE",
"388 435 CURVE SMOOTH",
"400 414 OFFCURVE",
"410 392 OFFCURVE",
"417 367 CURVE SMOOTH",
"424 343 OFFCURVE",
"428 316 OFFCURVE",
"428 287 CURVE SMOOTH",
"428 148 OFFCURVE",
"352 70 OFFCURVE",
"223 70 CURVE SMOOTH",
"185 70 OFFCURVE",
"147 77 OFFCURVE",
"109 90 CURVE",
"72 104 OFFCURVE",
"45 119 OFFCURVE",
"29 135 CURVE",
"29 25 LINE",
"44 14 OFFCURVE",
"71 3 OFFCURVE",
"112 -6 CURVE SMOOTH",
"153 -15 OFFCURVE",
"192 -20 OFFCURVE",
"229 -20 CURVE SMOOTH"
);
}
);
width = 594;
}
);
unicode = 0073;
},
{
glyphname = germandbls;
lastChange = "2013-03-10 17:26:55 +0200";
layers = (
{
layerId = UUID0;
name = "Light Condensed Italic";
paths = (
{
closed = 1;
nodes = (
"458 1567 OFFCURVE",
"362 1445 OFFCURVE",
"311 1204 CURVE SMOOTH",
"33 -100 LINE",
"16 -183 OFFCURVE",
"0 -245 OFFCURVE",
"-14 -286 CURVE SMOOTH",
"-29 -327 OFFCURVE",
"-45 -357 OFFCURVE",
"-62 -374 CURVE SMOOTH",
"-79 -392 OFFCURVE",
"-104 -401 OFFCURVE",
"-135 -401 CURVE SMOOTH",
"-167 -401 OFFCURVE",
"-195 -397 OFFCURVE",
"-219 -389 CURVE",
"-219 -481 LINE",
"-194 -488 OFFCURVE",
"-165 -492 OFFCURVE",
"-131 -492 CURVE SMOOTH",
"-32 -492 OFFCURVE",
"17 -451 OFFCURVE",
"58 -347 CURVE SMOOTH",
"79 -296 OFFCURVE",
"101 -215 OFFCURVE",
"125 -106 CURVE SMOOTH",
"410 1214 LINE",
"446 1389 OFFCURVE",
"509 1473 OFFCURVE",
"606 1473 CURVE SMOOTH",
"674 1473 OFFCURVE",
"717 1437 OFFCURVE",
"717 1358 CURVE SMOOTH",
"717 1304 OFFCURVE",
"705 1255 OFFCURVE",
"682 1212 CURVE SMOOTH",
"659 1169 OFFCURVE",
"619 1116 OFFCURVE",
"563 1055 CURVE SMOOTH",
"484 968 OFFCURVE",
"449 889 OFFCURVE",
"449 793 CURVE SMOOTH",
"449 740 OFFCURVE",
"469 673 OFFCURVE",
"510 592 CURVE",
"541 524 LINE",
"575 446 OFFCURVE",
"592 374 OFFCURVE",
"592 307 CURVE SMOOTH",
"592 162 OFFCURVE",
"514 70 OFFCURVE",
"393 70 CURVE SMOOTH",
"335 70 OFFCURVE",
"280 88 OFFCURVE",
"229 125 CURVE",
"229 25 LINE",
"260 0 OFFCURVE",
"321 -20 OFFCURVE",
"389 -20 CURVE SMOOTH",
"479 -20 OFFCURVE",
"551 11 OFFCURVE",
"606 74 CURVE SMOOTH",
"661 137 OFFCURVE",
"688 219 OFFCURVE",
"688 319 CURVE SMOOTH",
"688 419 OFFCURVE",
"656 502 OFFCURVE",
"621 578 CURVE SMOOTH",
"584 659 OFFCURVE",
"545 731 OFFCURVE",
"545 803 CURVE SMOOTH",
"545 836 OFFCURVE",
"553 869 OFFCURVE",
"568 903 CURVE SMOOTH",
"583 937 OFFCURVE",
"615 982 OFFCURVE",
"662 1038 CURVE SMOOTH",
"721 1107 OFFCURVE",
"761 1165 OFFCURVE",
"782 1212 CURVE SMOOTH",
"803 1259 OFFCURVE",
"813 1308 OFFCURVE",
"813 1358 CURVE SMOOTH",
"813 1483 OFFCURVE",
"742 1567 OFFCURVE",
"623 1567 CURVE SMOOTH"
);
}
);
width = 741;
}
);
unicode = 00DF;
},
{
glyphname = t;
lastChange = "2013-03-10 17:26:55 +0200";
layers = (
{
layerId = UUID0;
name = "Light Condensed Italic";
paths = (
{
closed = 1;
nodes = (
"328 80 LINE",
"305 72 OFFCURVE",
"283 68 OFFCURVE",
"262 68 CURVE SMOOTH",
"214 68 OFFCURVE",
"193 92 OFFCURVE",
"193 152 CURVE SMOOTH",
"193 180 OFFCURVE",
"198 215 OFFCURVE",
"207 258 CURVE SMOOTH",
"365 1001 LINE",
"508 1001 LINE",
"526 1085 LINE",
"383 1085 LINE",
"438 1343 LINE",
"369 1343 LINE",
"289 1085 LINE",
"186 1057 LINE",
"174 1001 LINE",
"272 1001 LINE",
"109 231 LINE SMOOTH",
"100 190 OFFCURVE",
"96 156 OFFCURVE",
"96 131 CURVE SMOOTH",
"96 30 OFFCURVE",
"138 -20 OFFCURVE",
"223 -20 CURVE SMOOTH",
"256 -20 OFFCURVE",
"291 -13 OFFCURVE",
"328 0 CURVE",
"328 80 LINE"
);
}
);
width = 403;
}
);
unicode = 0074;
},
{
glyphname = u;
lastChange = "2013-03-10 17:26:55 +0200";
layers = (
{
layerId = UUID0;
name = "Light Condensed Italic";
paths = (
{
closed = 1;
nodes = (
"301 1085 LINE",
"143 344 LINE SMOOTH",
"130 286 OFFCURVE",
"123 231 OFFCURVE",
"123 178 CURVE SMOOTH",
"123 46 OFFCURVE",
"178 -20 OFFCURVE",
"287 -20 CURVE SMOOTH",
"379 -20 OFFCURVE",
"459 32 OFFCURVE",
"526 135 CURVE",
"530 135 LINE",
"522 0 LINE",
"596 0 LINE",
"827 1085 LINE",
"733 1085 LINE",
"606 489 LINE SMOOTH",
"547 211 OFFCURVE",
"448 72 OFFCURVE",
"309 72 CURVE SMOOTH",
"246 72 OFFCURVE",
"215 113 OFFCURVE",
"215 195 CURVE SMOOTH",
"215 233 OFFCURVE",
"221 278 OFFCURVE",
"233 330 CURVE",
"395 1085 LINE"
);
}
);
width = 786;
}
);
unicode = 0075;
},
{
glyphname = v;
lastChange = "2013-03-10 17:26:55 +0200";
layers = (
{
layerId = UUID0;
name = "Light Condensed Italic";
paths = (
{
closed = 1;
nodes = (
"291 0 LINE",
"750 1085 LINE",
"651 1085 LINE",
"446 590 OFFCURVE",
"333 317 OFFCURVE",
"313 264 CURVE SMOOTH",
"293 211 OFFCURVE",
"276 164 OFFCURVE",
"262 123 CURVE",
"256 123 LINE",
"261 162 OFFCURVE",
"264 215 OFFCURVE",
"267 284 CURVE SMOOTH",
"270 353 OFFCURVE",
"272 401 OFFCURVE",
"272 426 CURVE SMOOTH",
"272 1085 LINE",
"178 1085 LINE",
"178 0 LINE"
);
}
);
width = 588;
}
);
unicode = 0076;
},
{
glyphname = w;
lastChange = "2013-03-10 17:26:55 +0200";
layers = (
{
layerId = UUID0;
name = "Light Condensed Italic";
paths = (
{
closed = 1;
nodes = (
"729 0 LINE",
"1165 1085 LINE",
"1069 1085 LINE",
"756 280 LINE",
"696 123 LINE",
"692 123 LINE",
"696 191 LINE SMOOTH",
"704 306 OFFCURVE",
"709 393 OFFCURVE",
"711 453 CURVE SMOOTH",
"727 1085 LINE",
"618 1085 LINE",
"423 578 OFFCURVE",
"314 296 OFFCURVE",
"293 238 CURVE SMOOTH",
"272 180 OFFCURVE",
"259 142 OFFCURVE",
"254 123 CURVE",
"250 123 LINE",
"262 226 OFFCURVE",
"269 336 OFFCURVE",
"272 453 CURVE SMOOTH",
"285 1085 LINE",
"190 1085 LINE",
"170 0 LINE",
"287 0 LINE",
"483 510 OFFCURVE",
"586 778 OFFCURVE",
"595 805 CURVE SMOOTH",
"649 963 LINE",
"637 735 LINE",
"608 0 LINE"
);
}
);
width = 1012;
}
);
unicode = 0077;
},
{
glyphname = x;
lastChange = "2013-03-10 17:26:55 +0200";
layers = (
{
layerId = UUID0;
name = "Light Condensed Italic";
paths = (
{
closed = 1;
nodes = (
"-27 0 LINE",
"74 0 LINE",
"342 461 LINE",
"422 0 LINE",
"518 0 LINE",
"410 547 LINE",
"737 1085 LINE",
"637 1085 LINE",
"387 651 LINE",
"317 1085 LINE",
"221 1085 LINE",
"313 571 LINE"
);
}
);
width = 608;
}
);
unicode = 0078;
},
{
glyphname = y;
lastChange = "2013-03-10 17:26:55 +0200";
layers = (
{
layerId = UUID0;
name = "Light Condensed Italic";
paths = (
{
closed = 1;
nodes = (
"-12 -492 OFFCURVE",
"35 -474 OFFCURVE",
"74 -437 CURVE SMOOTH",
"113 -400 OFFCURVE",
"151 -336 OFFCURVE",
"190 -244 CURVE SMOOTH",
"752 1085 LINE",
"653 1085 LINE",
"365 387 LINE SMOOTH",
"336 316 OFFCURVE",
"303 228 OFFCURVE",
"268 123 CURVE",
"262 123 LINE",
"270 231 OFFCURVE",
"274 339 OFFCURVE",
"274 446 CURVE SMOOTH",
"274 1085 LINE",
"180 1085 LINE",
"188 -16 LINE",
"117 -186 LINE SMOOTH",
"80 -273 OFFCURVE",
"48 -330 OFFCURVE",
"22 -359 CURVE SMOOTH",
"-3 -388 OFFCURVE",
"-34 -403 OFFCURVE",
"-70 -403 CURVE SMOOTH",
"-104 -403 OFFCURVE",
"-133 -398 OFFCURVE",
"-158 -387 CURVE",
"-158 -473 LINE",
"-129 -486 OFFCURVE",
"-99 -492 OFFCURVE",
"-68 -492 CURVE SMOOTH"
);
}
);
width = 588;
}
);
unicode = 0079;
},
{
glyphname = z;
lastChange = "2013-03-10 17:26:55 +0200";
layers = (
{
layerId = UUID0;
name = "Light Condensed Italic";
paths = (
{
closed = 1;
nodes = (
"408 84 LINE",
"111 84 LINE",
"588 1008 LINE",
"604 1085 LINE",
"240 1085 LINE",
"221 1001 LINE",
"485 1001 LINE",
"10 76 LINE",
"-4 0 LINE",
"389 0 LINE"
);
}
);
width = 487;
}
);
unicode = 007A;
},
{
glyphname = ordfeminine;
lastChange = "2013-03-10 17:26:55 +0200";
layers = (
{
layerId = UUID0;
name = "Light Condensed Italic";
paths = (
{
closed = 1;
nodes = (
"483 817 LINE",
"580 1272 LINE SMOOTH",
"588 1307 OFFCURVE",
"592 1336 OFFCURVE",
"592 1360 CURVE SMOOTH",
"592 1439 OFFCURVE",
"548 1479 OFFCURVE",
"459 1479 CURVE SMOOTH",
"399 1479 OFFCURVE",
"330 1457 OFFCURVE",
"289 1436 CURVE",
"309 1370 LINE",
"333 1381 LINE SMOOTH",
"371 1400 OFFCURVE",
"405 1409 OFFCURVE",
"436 1409 CURVE SMOOTH",
"481 1409 OFFCURVE",
"510 1394 OFFCURVE",
"510 1335 CURVE SMOOTH",
"510 1313 OFFCURVE",
"507 1291 OFFCURVE",
"502 1270 CURVE SMOOTH",
"487 1200 LINE",
"389 1190 LINE SMOOTH",
"232 1174 OFFCURVE",
"143 1085 OFFCURVE",
"143 944 CURVE SMOOTH",
"143 860 OFFCURVE",
"195 805 OFFCURVE",
"264 805 CURVE SMOOTH",
"324 805 OFFCURVE",
"371 830 OFFCURVE",
"422 901 CURVE",
"428 901 LINE",
"426 817 LINE"
);
},
{
closed = 1;
nodes = (
"225 1056 OFFCURVE",
"288 1115 OFFCURVE",
"414 1128 CURVE",
"473 1135 LINE",
"459 1069 LINE SMOOTH",
"434 950 OFFCURVE",
"366 874 OFFCURVE",
"293 874 CURVE SMOOTH",
"248 874 OFFCURVE",
"225 899 OFFCURVE",
"225 950 CURVE SMOOTH"
);
}
);
width = 510;
}
);
unicode = 00AA;
},
{
glyphname = ordmasculine;
lastChange = "2013-03-10 17:26:55 +0200";
layers = (
{
layerId = UUID0;
name = "Light Condensed Italic";
paths = (
{
closed = 1;
nodes = (
"637 1414 OFFCURVE",
"569 1479 OFFCURVE",
"465 1479 CURVE SMOOTH",
"354 1479 OFFCURVE",
"262 1400 OFFCURVE",
"206 1241 CURVE SMOOTH",
"178 1162 OFFCURVE",
"164 1081 OFFCURVE",
"164 999 CURVE SMOOTH",
"164 875 OFFCURVE",
"231 805 OFFCURVE",
"342 805 CURVE SMOOTH",
"450 805 OFFCURVE",
"539 889 OFFCURVE",
"595 1046 CURVE SMOOTH",
"623 1125 OFFCURVE",
"637 1204 OFFCURVE",
"637 1282 CURVE SMOOTH"
);
},
{
closed = 1;
nodes = (
"522 1409 OFFCURVE",
"549 1368 OFFCURVE",
"549 1280 CURVE SMOOTH",
"549 1209 OFFCURVE",
"540 1140 OFFCURVE",
"521 1072 CURVE SMOOTH",
"502 1004 OFFCURVE",
"477 953 OFFCURVE",
"446 920 CURVE SMOOTH",
"415 887 OFFCURVE",
"381 870 OFFCURVE",
"342 870 CURVE SMOOTH",
"275 870 OFFCURVE",
"252 912 OFFCURVE",
"252 1004 CURVE SMOOTH",
"252 1069 OFFCURVE",
"262 1136 OFFCURVE",
"281 1204 CURVE SMOOTH",
"300 1272 OFFCURVE",
"325 1323 OFFCURVE",
"354 1357 CURVE SMOOTH",
"384 1392 OFFCURVE",
"418 1409 OFFCURVE",
"457 1409 CURVE SMOOTH"
);
}
);
width = 557;
}
);
unicode = 00BA;
},
{
glyphname = "alef-hb";
lastChange = "2013-03-10 17:29:08 +0200";
layers = (
{
anchors = (
{
name = bottom;
position = "{236, 0}";
},
{
name = bottomleft;
position = "{-117, 0}";
},
{
name = center;
position = "{241, 307}";
},
{
name = top;
position = "{490, 1118}";
},
{
name = topleft;
position = "{201, 1118}";
}
);
layerId = UUID0;
name = "Light Condensed Italic";
paths = (
{
closed = 1;
nodes = (
"738 1290 LINE",
"639 823 LINE SMOOTH",
"605 665 OFFCURVE",
"556 581 OFFCURVE",
"461 528 CURVE",
"311 1290 LINE",
"209 1290 LINE",
"295 855 LINE",
"118 776 OFFCURVE",
"60 587 OFFCURVE",
"31 453 CURVE SMOOTH",
"-65 0 LINE",
"26 0 LINE",
"122 452 LINE SMOOTH",
"156 614 OFFCURVE",
"211 714 OFFCURVE",
"311 771 CURVE",
"463 0 LINE",
"566 0 LINE",
"478 440 LINE",
"650 515 OFFCURVE",
"701 688 OFFCURVE",
"730 822 CURVE SMOOTH",
"829 1290 LINE"
);
}
);
width = 777;
}
);
unicode = 05D0;
},
{
glyphname = "bet-hb";
lastChange = "2013-03-12 07:41:21 +0200";
layers = (
{
anchors = (
{
name = bottom;
position = "{274, 0}";
},
{
name = bottomleft;
position = "{-119, 0}";
},
{
name = center;
position = "{290, 670}";
},
{
name = top;
position = "{474, 1118}";
},
{
name = topleft;
position = "{231, 1118}";
}
);
layerId = UUID0;
name = "Light Condensed Italic";
paths = (
{
closed = 1;
nodes = (
"339 1310 OFFCURVE",
"235 1300 OFFCURVE",
"235 1300 CURVE",
"217 1213 LINE",
"217 1213 OFFCURVE",
"328 1224 OFFCURVE",
"427 1224 CURVE SMOOTH",
"584 1224 OFFCURVE",
"654 1190 OFFCURVE",
"603 950 CURVE SMOOTH",
"419 84 LINE",
"-22 84 LINE",
"-40 0 LINE",
"582 0 LINE",
"600 84 LINE",
"514 84 LINE",
"698 950 LINE SMOOTH",
"762 1251 OFFCURVE",
"642 1310 OFFCURVE",
"445 1310 CURVE SMOOTH"
);
}
);
width = 748;
}
);
unicode = 05D1;
},
{
glyphname = "gimel-hb";
lastChange = "2013-03-10 17:29:08 +0200";
layers = (
{
anchors = (
{
name = bottom;
position = "{189, 0}";
},
{
name = bottomleft;
position = "{-119, 0}";
},
{
name = center;
position = "{257, 670}";
},
{
name = top;
position = "{427, 1118}";
},
{
name = topleft;
position = "{299, 1118}";
}
);
layerId = UUID0;
name = "Light Condensed Italic";
paths = (
{
closed = 1;
nodes = (
"369 1310 OFFCURVE",
"333 1301 OFFCURVE",
"309 1295 CURVE",
"291 1207 LINE",
"314 1213 OFFCURVE",
"358 1224 OFFCURVE",
"391 1224 CURVE SMOOTH",
"520 1224 OFFCURVE",
"522 1131 OFFCURVE",
"498 1019 CURVE SMOOTH",
"390 511 LINE SMOOTH",
"334 249 OFFCURVE",
"226 88 OFFCURVE",
"67 88 CURVE SMOOTH",
"36 88 OFFCURVE",
"16 101 OFFCURVE",
"16 101 CURVE",
"-22 7 LINE",
"-22 7 OFFCURVE",
"2 -4 OFFCURVE",
"38 -4 CURVE SMOOTH",
"215 -4 OFFCURVE",
"280 131 OFFCURVE",
"324 213 CURVE",
"331 213 LINE",
"296 0 LINE",
"376 0 LINE",
"593 1019 LINE SMOOTH",
"629 1188 OFFCURVE",
"597 1310 OFFCURVE",
"418 1310 CURVE SMOOTH"
);
}
);
width = 656;
}
);
unicode = 05D2;
},
{
glyphname = "dalet-hb";
lastChange = "2013-03-10 17:29:08 +0200";
layers = (
{
anchors = (
{
name = bottom;
position = "{202, 0}";
},
{
name = bottomleft;
position = "{-117, 0}";
},
{
name = center;
position = "{225, 670}";
},
{
name = top;
position = "{440, 1118}";
},
{
name = topleft;
position = "{174, 1118}";
}
);
layerId = UUID0;
name = "Light Condensed Italic";
paths = (
{
closed = 1;
nodes = (
"154 1290 LINE",
"136 1206 LINE",
"591 1206 LINE",
"591 1206 OFFCURVE",
"443 1139 OFFCURVE",
"398 928 CURVE SMOOTH",
"201 0 LINE",
"296 0 LINE",
"493 928 LINE SMOOTH",
"534 1118 OFFCURVE",
"660 1181 OFFCURVE",
"769 1217 CURVE",
"784 1290 LINE"
);
}
);
width = 678;
}
);
unicode = 05D3;
},
{
glyphname = "he-hb";
lastChange = "2013-03-10 17:29:08 +0200";
layers = (
{
anchors = (
{
name = bottom;
position = "{319, 0}";
},
{
name = bottomleft;
position = "{-119, 0}";
},
{
name = center;
position = "{461, 670}";
},
{
name = top;
position = "{556, 1118}";
},
{
name = topleft;
position = "{278, 1118}";
}
);
layerId = UUID0;
name = "Light Condensed Italic";
paths = (
{
closed = 1;
nodes = (
"455 1310 OFFCURVE",
"332 1295 OFFCURVE",
"280 1290 CURVE",
"261 1203 LINE",
"318 1208 OFFCURVE",
"460 1224 OFFCURVE",
"527 1224 CURVE SMOOTH",
"723 1224 OFFCURVE",
"793 1190 OFFCURVE",
"742 950 CURVE SMOOTH",
"540 0 LINE",
"636 0 LINE",
"838 950 LINE SMOOTH",
"902 1251 OFFCURVE",
"787 1310 OFFCURVE",
"545 1310 CURVE SMOOTH"
);
},
{
closed = 1;
nodes = (
"179 813 LINE",
"6 0 LINE",
"101 0 LINE",
"274 813 LINE"
);
}
);
width = 916;
}
);
unicode = 05D4;
},
{
glyphname = "vav-hb";
lastChange = "2013-03-10 17:29:08 +0200";
layers = (
{
anchors = (
{
name = bottom;
position = "{56, 0}";
},
{
name = bottomleft;
position = "{-117, 0}";
},
{
name = center;
position = "{14, 670}";
},
{
name = top;
position = "{335, 1118}";
},
{
name = topleft;
position = "{264, 1118}";
}
);
layerId = UUID0;
name = "Light Condensed Italic";
paths = (
{
closed = 1;
nodes = (
"282 1290 LINE",
"8 0 LINE",
"103 0 LINE",
"377 1290 LINE"
);
}
);
width = 385;
}
);
unicode = 05D5;
},
{
glyphname = "zayin-hb";
lastChange = "2013-03-10 17:29:08 +0200";
layers = (
{
anchors = (
{
name = bottom;
position = "{84, 0}";
},
{
name = bottomleft;
position = "{-127, 0}";
},
{
name = center;
position = "{46, 670}";
},
{
name = top;
position = "{310, 1118}";
},
{
name = topleft;
position = "{248, 1118}";
}
);
layerId = UUID0;
name = "Light Condensed Italic";
paths = (
{
closed = 1;
nodes = (
"272 1290 LINE",
"254 1206 LINE",
"406 1206 LINE",
"365 1175 OFFCURVE",
"260 1042 OFFCURVE",
"212 815 CURVE SMOOTH",
"39 0 LINE",
"134 0 LINE",
"307 815 LINE SMOOTH",
"348 1005 OFFCURVE",
"432 1159 OFFCURVE",
"518 1217 CURVE",
"533 1290 LINE"
);
}
);
width = 427;
}
);
unicode = 05D6;
},
{
glyphname = "het-hb";
lastChange = "2013-03-10 17:29:08 +0200";
layers = (
{
anchors = (
{
name = bottom;
position = "{319, 0}";
},
{
name = bottomleft;
position = "{-119, 0}";
},
{
name = center;
position = "{461, 670}";
},
{
name = top;
position = "{556, 1118}";
},
{
name = topleft;
position = "{271, 1118}";
}
);
layerId = UUID0;
name = "Light Condensed Italic";
paths = (
{
closed = 1;
nodes = (
"455 1310 OFFCURVE",
"332 1295 OFFCURVE",
"280 1290 CURVE",
"6 0 LINE",
"101 0 LINE",
"358 1212 LINE",
"418 1218 OFFCURVE",
"486 1224 OFFCURVE",
"527 1224 CURVE SMOOTH",
"723 1224 OFFCURVE",
"793 1190 OFFCURVE",
"742 950 CURVE SMOOTH",
"540 0 LINE",
"636 0 LINE",
"838 950 LINE SMOOTH",
"902 1251 OFFCURVE",
"787 1310 OFFCURVE",
"545 1310 CURVE SMOOTH"
);
}
);
width = 916;
}
);
unicode = 05D7;
},
{
glyphname = "tet-hb";
lastChange = "2013-03-10 17:29:08 +0200";
layers = (
{
anchors = (
{
name = bottom;
position = "{305, 0}";
},
{
name = bottomleft;
position = "{-117, 0}";
},
{
name = center;
position = "{447, 670}";
},
{
name = top;
position = "{543, 1118}";
},
{
name = topleft;
position = "{241, 1118}";
}
);
layerId = UUID0;
name = "Light Condensed Italic";
paths = (
{
closed = 1;
nodes = (
"550 1310 OFFCURVE",
"519 1307 OFFCURVE",
"489 1302 CURVE",
"470 1214 LINE",
"499 1220 OFFCURVE",
"531 1224 OFFCURVE",
"564 1224 CURVE SMOOTH",
"700 1220 OFFCURVE",
"788 1102 OFFCURVE",
"691 645 CURVE SMOOTH",
"594 188 OFFCURVE",
"456 70 OFFCURVE",
"320 70 CURVE SMOOTH",
"184 70 OFFCURVE",
"94 188 OFFCURVE",
"191 645 CURVE SMOOTH",
"328 1290 LINE",
"232 1290 LINE",
"94 645 LINE SMOOTH",
"-3 188 OFFCURVE",
"77 -20 OFFCURVE",
"301 -20 CURVE SMOOTH",
"525 -20 OFFCURVE",
"693 188 OFFCURVE",
"790 645 CURVE SMOOTH",
"887 1102 OFFCURVE",
"807 1310 OFFCURVE",
"583 1310 CURVE SMOOTH"
);
}
);
width = 884;
}
);
unicode = 05D8;
},
{
glyphname = "yod-hb";
lastChange = "2013-03-12 07:42:00 +0200";
layers = (
{
anchors = (
{
name = bottom;
position = "{48, 0}";
},
{
name = bottomleft;
position = "{-120, 0}";
},
{
name = center;
position = "{34, 787}";
},
{
name = top;
position = "{285, 1118}";
},
{
name = topleft;
position = "{264, 1118}";
}
);
layerId = UUID0;
name = "Light Condensed Italic";
paths = (
{
closed = 1;
nodes = (
"274 1290 LINE",
"102 482 LINE",
"111 482 LINE",
"221 592 LINE",
"369 1290 LINE"
);
}
);
width = 375;
}
);
unicode = 05D9;
},
{
glyphname = "finalkaf-hb";
lastChange = "2013-03-12 07:42:20 +0200";
layers = (
{
anchors = (
{
name = bottom;
position = "{-1, 340}";
},
{
name = bottomleft;
position = "{-120, 0}";
},
{
name = center;
position = "{195, 670}";
},
{
name = top;
position = "{438, 1118}";
},
{
name = topleft;
position = "{178, 1118}";
}
);
layerId = UUID0;
name = "Light Condensed Italic";
paths = (
{
closed = 1;
nodes = (
"251 1310 OFFCURVE",
"172 1273 OFFCURVE",
"172 1273 CURVE",
"150 1170 LINE",
"203 1200 OFFCURVE",
"270 1220 OFFCURVE",
"319 1220 CURVE SMOOTH",
"476 1220 OFFCURVE",
"528 1064 OFFCURVE",
"455 721 CURVE SMOOTH",
"197 -492 LINE",
"294 -492 LINE",
"552 721 LINE SMOOTH",
"624 1058 OFFCURVE",
"598 1310 OFFCURVE",
"340 1310 CURVE SMOOTH"
);
}
);
width = 680;
}
);
unicode = 05DA;
},
{
glyphname = "kaf-hb";
lastChange = "2013-03-10 17:29:08 +0200";
layers = (
{
anchors = (
{
name = bottom;
position = "{181, 0}";
},
{
name = bottomleft;
position = "{-117, 0}";
},
{
name = center;
position = "{198, 670}";
},
{
name = top;
position = "{419, 1118}";
},
{
name = topleft;
position = "{194, 1118}";
}
);
layerId = UUID0;
name = "Light Condensed Italic";
paths = (
{
closed = 1;
nodes = (
"253 1310 OFFCURVE",
"174 1273 OFFCURVE",
"174 1273 CURVE",
"153 1170 LINE",
"206 1200 OFFCURVE",
"273 1220 OFFCURVE",
"322 1220 CURVE SMOOTH",
"479 1220 OFFCURVE",
"531 1064 OFFCURVE",
"458 721 CURVE SMOOTH",
"418 532 LINE SMOOTH",
"400 446 OFFCURVE",
"319 66 OFFCURVE",
"77 66 CURVE SMOOTH",
"-19 66 OFFCURVE",
"-69 99 OFFCURVE",
"-69 99 CURVE",
"-89 7 LINE",
"-89 7 OFFCURVE",
"-22 -20 OFFCURVE",
"60 -20 CURVE SMOOTH",
"354 -20 OFFCURVE",
"463 289 OFFCURVE",
"515 532 CURVE SMOOTH",
"555 721 LINE SMOOTH",
"627 1058 OFFCURVE",
"600 1310 OFFCURVE",
"342 1310 CURVE SMOOTH"
);
}
);
width = 635;
}
);
unicode = 05DB;
},
{
glyphname = "lamed-hb";
lastChange = "2013-03-12 07:42:38 +0200";
layers = (
{
anchors = (
{
name = bottom;
position = "{167, 0}";
},
{
name = bottomleft;
position = "{-116, 0}";
},
{
name = center;
position = "{154, 670}";
},
{
name = top;
position = "{405, 1118}";
},
{
name = topleft;
position = "{35, 1118}";
}
);
layerId = UUID0;
name = "Light Condensed Italic";
paths = (
{
closed = 1;
nodes = (
"243 1569 LINE",
"165 1204 LINE",
"606 1204 LINE",
"287 496 LINE",
"92 0 LINE",
"189 0 LINE",
"388 507 LINE",
"690 1186 LINE",
"714 1296 LINE",
"280 1296 LINE",
"338 1569 LINE"
);
}
);
width = 606;
}
);
unicode = 05DC;
},
{
glyphname = "finalmem-hb";
lastChange = "2013-03-10 17:29:08 +0200";
layers = (
{
anchors = (
{
name = bottom;
position = "{319, 0}";
},
{
name = bottomleft;
position = "{-119, 0}";
},
{
name = center;
position = "{461, 670}";
},
{
name = top;
position = "{556, 1118}";
},
{
name = topleft;
position = "{285, 1118}";
}
);
layerId = UUID0;
name = "Light Condensed Italic";
paths = (
{
closed = 1;
nodes = (
"455 1310 OFFCURVE",
"332 1295 OFFCURVE",
"280 1290 CURVE",
"6 0 LINE",
"636 0 LINE",
"840 962 LINE SMOOTH",
"904 1263 OFFCURVE",
"829 1310 OFFCURVE",
"545 1310 CURVE SMOOTH"
);
},
{
closed = 1;
nodes = (
"754 1224 OFFCURVE",
"796 1202 OFFCURVE",
"745 962 CURVE SMOOTH",
"559 84 LINE",
"119 84 LINE",
"358 1212 LINE",
"418 1218 OFFCURVE",
"486 1224 OFFCURVE",
"527 1224 CURVE SMOOTH"
);
}
);
width = 915;
}
);
unicode = 05DD;
},
{
glyphname = "mem-hb";
lastChange = "2013-03-10 17:29:08 +0200";
layers = (
{
anchors = (
{
name = bottom;
position = "{291, 0}";
},
{
name = bottomleft;
position = "{-119, 0}";
},
{
name = center;
position = "{433, 670}";
},
{
name = top;
position = "{528, 1118}";
},
{
name = topleft;
position = "{220, 1118}";
}
);
layerId = UUID0;
name = "Light Condensed Italic";
paths = (
{
closed = 1;
nodes = (
"448 1310 OFFCURVE",
"349 1155 OFFCURVE",
"349 1155 CURVE SMOOTH",
"343 1155 LINE",
"343 1221 OFFCURVE",
"334 1267 OFFCURVE",
"329 1290 CURVE",
"228 1290 LINE",
"235 1245 LINE SMOOTH",
"247 1170 OFFCURVE",
"256 1103 OFFCURVE",
"226 1005 CURVE SMOOTH",
"-80 0 LINE",
"16 0 LINE",
"322 1005 LINE",
"322 1005 OFFCURVE",
"428 1224 OFFCURVE",
"606 1224 CURVE SMOOTH",
"739 1224 OFFCURVE",
"714 1081 OFFCURVE",
"671 883 CURVE SMOOTH",
"502 84 LINE",
"280 84 LINE",
"262 0 LINE",
"579 0 LINE",
"766 883 LINE SMOOTH",
"821 1138 OFFCURVE",
"824 1310 OFFCURVE",
"624 1310 CURVE SMOOTH"
);
}
);
width = 859;
}
);
unicode = 05DE;
},
{
glyphname = "finalnun-hb";
lastChange = "2013-03-12 07:43:05 +0200";
layers = (
{
anchors = (
{
name = bottom;
position = "{-238, 347}";
},
{
name = bottomleft;
position = "{-119, 0}";
},
{
name = center;
position = "{37, 670}";
},
{
name = top;
position = "{299, 1118}";
},
{
name = topleft;
position = "{232, 1118}";
}
);
layerId = UUID0;
name = "Light Condensed Italic";
paths = (
{
closed = 1;
nodes = (
"250 1290 LINE SMOOTH",
"250 1290 OFFCURVE",
"256 1088 OFFCURVE",
"218 905 CURVE SMOOTH",
"-79 -492 LINE",
"16 -492 LINE",
"313 905 LINE SMOOTH",
"353 1095 OFFCURVE",
"346 1290 OFFCURVE",
"346 1290 CURVE SMOOTH"
);
}
);
width = 400;
}
);
unicode = 05DF;
},
{
glyphname = "nun-hb";
lastChange = "2013-03-12 07:43:27 +0200";
layers = (
{
anchors = (
{
name = bottom;
position = "{155, 0}";
},
{
name = bottomleft;
position = "{-110, 0}";
},
{
name = center;
position = "{179, 670}";
},
{
name = top;
position = "{392, 1118}";
},
{
name = topleft;
position = "{234, 1118}";
}
);
layerId = UUID0;
name = "Light Condensed Italic";
paths = (
{
closed = 1;
nodes = (
"291 1310 OFFCURVE",
"255 1301 OFFCURVE",
"232 1295 CURVE",
"213 1207 LINE",
"237 1213 OFFCURVE",
"281 1224 OFFCURVE",
"314 1224 CURVE SMOOTH",
"443 1224 OFFCURVE",
"444 1131 OFFCURVE",
"420 1019 CURVE SMOOTH",
"274 329 LINE SMOOTH",
"249 211 OFFCURVE",
"195 84 OFFCURVE",
"195 84 CURVE SMOOTH",
"195 84 OFFCURVE",
"-73 84 OFFCURVE",
"-73 84 CURVE",
"-91 0 LINE",
"260 0 LINE",
"260 0 OFFCURVE",
"336 177 OFFCURVE",
"369 329 CURVE SMOOTH",
"515 1019 LINE SMOOTH",
"551 1188 OFFCURVE",
"519 1310 OFFCURVE",
"340 1310 CURVE SMOOTH"
);
}
);
width = 569;
}
);
unicode = 05E0;
},
{
glyphname = "samekh-hb";
lastChange = "2013-03-10 17:29:08 +0200";
layers = (
{
anchors = (
{
name = bottom;
position = "{305, 0}";
},
{
name = bottomleft;
position = "{-117, 0}";
},
{
name = center;
position = "{447, 670}";
},
{
name = top;
position = "{543, 1118}";
},
{
name = topleft;
position = "{248, 1118}";
}
);
layerId = UUID0;
name = "Light Condensed Italic";
paths = (
{
closed = 1;
nodes = (
"418 1310 OFFCURVE",
"334 1301 OFFCURVE",
"253 1296 CURVE",
"235 1208 LINE",
"291 1211 OFFCURVE",
"323 1213 OFFCURVE",
"362 1215 CURVE",
"215 1070 OFFCURVE",
"149 903 OFFCURVE",
"94 645 CURVE SMOOTH",
"-3 188 OFFCURVE",
"77 -20 OFFCURVE",
"301 -20 CURVE SMOOTH",
"525 -20 OFFCURVE",
"693 188 OFFCURVE",
"790 645 CURVE SMOOTH",
"887 1102 OFFCURVE",
"807 1310 OFFCURVE",
"583 1310 CURVE SMOOTH"
);
},
{
closed = 1;
nodes = (
"700 1220 OFFCURVE",
"788 1102 OFFCURVE",
"691 645 CURVE SMOOTH",
"594 188 OFFCURVE",
"456 70 OFFCURVE",
"320 70 CURVE SMOOTH",
"184 70 OFFCURVE",
"96 188 OFFCURVE",
"193 645 CURVE SMOOTH",
"250 912 OFFCURVE",
"321 1095 OFFCURVE",
"470 1218 CURVE",
"470 1218 OFFCURVE",
"514 1220 OFFCURVE",
"564 1220 CURVE SMOOTH"
);
}
);
width = 884;
}
);
unicode = 05E1;
},
{
glyphname = "ayin-hb";
lastChange = "2013-03-10 17:29:08 +0200";
layers = (
{
anchors = (
{
name = bottom;
position = "{291, 0}";
},
{
name = bottomleft;
position = "{-112, 0}";
},
{
name = center;
position = "{498, 670}";
},
{
name = top;
position = "{529, 1118}";
},
{
name = topleft;
position = "{213, 1118}";
}
);
layerId = UUID0;
name = "Light Condensed Italic";
paths = (
{
closed = 1;
nodes = (
"861 1290 LINE",
"685 726 LINE SMOOTH",
"584 404 OFFCURVE",
"503 199 OFFCURVE",
"328 115 CURVE",
"328 706 LINE",
"318 1290 LINE",
"222 1290 LINE",
"239 84 LINE",
"207 78 LINE",
"-52 36 LINE",
"-70 -49 LINE",
"196 -6 LINE SMOOTH",
"578 48 OFFCURVE",
"668 372 OFFCURVE",
"779 725 CURVE SMOOTH",
"957 1290 LINE"
);
}
);
width = 846;
}
);
unicode = 05E2;
},
{
glyphname = "finalpe-hb";
lastChange = "2013-03-12 07:43:45 +0200";
layers = (
{
anchors = (
{
name = bottom;
position = "{245, 340}";
},
{
name = bottomleft;
position = "{-120, 0}";
},
{
name = center;
position = "{447, 847}";
},
{
name = top;
position = "{554, 1118}";
},
{
name = topleft;
position = "{251, 1118}";
}
);
layerId = UUID0;
name = "Light Condensed Italic";
paths = (
{
closed = 1;
nodes = (
"361 1310 OFFCURVE",
"193 1123 OFFCURVE",
"137 859 CURVE SMOOTH",
"84 610 OFFCURVE",
"136 441 OFFCURVE",
"346 441 CURVE SMOOTH",
"351 441 LINE",
"383 516 LINE",
"369 516 LINE SMOOTH",
"199 516 OFFCURVE",
"183 662 OFFCURVE",
"225 859 CURVE SMOOTH",
"256 1006 OFFCURVE",
"373 1220 OFFCURVE",
"543 1220 CURVE SMOOTH",
"679 1220 OFFCURVE",
"771 1102 OFFCURVE",
"674 645 CURVE SMOOTH",
"432 -492 LINE",
"527 -492 LINE",
"769 645 LINE SMOOTH",
"866 1102 OFFCURVE",
"787 1310 OFFCURVE",
"563 1310 CURVE SMOOTH"
);
}
);
width = 912;
}
);
unicode = 05E3;
},
{
glyphname = "pe-hb";
lastChange = "2013-03-10 17:29:08 +0200";
layers = (
{
anchors = (
{
name = bottom;
position = "{296, 0}";
},
{
name = bottomleft;
position = "{-117, 0}";
},
{
name = center;
position = "{476, 847}";
},
{
name = top;
position = "{534, 1118}";
},
{
name = topleft;
position = "{240, 1118}";
}
);
layerId = UUID0;
name = "Light Condensed Italic";
paths = (
{
closed = 1;
nodes = (
"363 1310 OFFCURVE",
"196 1123 OFFCURVE",
"139 859 CURVE SMOOTH",
"87 610 OFFCURVE",
"139 441 OFFCURVE",
"349 441 CURVE SMOOTH",
"354 441 LINE",
"386 516 LINE",
"372 516 LINE SMOOTH",
"202 516 OFFCURVE",
"186 662 OFFCURVE",
"227 859 CURVE SMOOTH",
"259 1006 OFFCURVE",
"376 1220 OFFCURVE",
"546 1220 CURVE SMOOTH",
"682 1220 OFFCURVE",
"770 1102 OFFCURVE",
"673 645 CURVE SMOOTH",
"576 188 OFFCURVE",
"421 70 OFFCURVE",
"285 70 CURVE SMOOTH",
"167 70 OFFCURVE",
"68 89 OFFCURVE",
"68 89 CURVE",
"49 0 LINE",
"49 0 OFFCURVE",
"148 -20 OFFCURVE",
"266 -20 CURVE SMOOTH",
"490 -20 OFFCURVE",
"675 188 OFFCURVE",
"772 645 CURVE SMOOTH",
"869 1102 OFFCURVE",
"789 1310 OFFCURVE",
"565 1310 CURVE SMOOTH"
);
}
);
width = 866;
}
);
unicode = 05E4;
},
{
glyphname = "finaltsadi-hb";
lastChange = "2013-03-12 07:44:19 +0200";
layers = (
{
anchors = (
{
name = bottom;
position = "{-193, 340}";
},
{
name = bottomleft;
position = "{-112, 0}";
},
{
name = center;
position = "{299, 559}";
},
{
name = top;
position = "{418, 1118}";
},
{
name = topleft;
position = "{126, 1118}";
}
);
layerId = UUID0;
name = "Light Condensed Italic";
paths = (
{
closed = 1;
nodes = (
"608 1290 LINE",
"515 849 LINE SMOOTH",
"479 680 OFFCURVE",
"396 596 OFFCURVE",
"287 543 CURVE",
"244 1290 LINE",
"142 1290 LINE",
"186 550 LINE",
"-35 -492 LINE",
"67 -492 LINE",
"266 445 LINE",
"486 504 OFFCURVE",
"578 700 OFFCURVE",
"609 848 CURVE SMOOTH",
"703 1290 LINE"
);
}
);
width = 623;
}
);
unicode = 05E5;
},
{
glyphname = "tsadi-hb";
lastChange = "2013-03-10 17:29:08 +0200";
layers = (
{
anchors = (
{
name = bottom;
position = "{241, 0}";
},
{
name = bottomleft;
position = "{-117, 0}";
},
{
name = center;
position = "{131, 353}";
},
{
name = top;
position = "{479, 1118}";
},
{
name = topleft;
position = "{181, 1118}";
}
);
layerId = UUID0;
name = "Light Condensed Italic";
paths = (
{
closed = 1;
nodes = (
"724 1290 LINE",
"626 981 LINE SMOOTH",
"582 844 OFFCURVE",
"528 689 OFFCURVE",
"433 574 CURVE",
"430 593 LINE",
"297 1290 LINE",
"196 1290 LINE",
"328 593 LINE",
"433 84 LINE",
"-60 84 LINE",
"-78 0 LINE",
"536 0 LINE",
"545 43 LINE",
"454 476 LINE",
"580 588 OFFCURVE",
"644 735 OFFCURVE",
"721 981 CURVE SMOOTH",
"818 1290 LINE"
);
}
);
width = 755;
}
);
unicode = 05E6;
},
{
glyphname = "qof-hb";
lastChange = "2013-03-12 07:44:46 +0200";
layers = (
{
anchors = (
{
name = bottom;
position = "{463, 0}";
},
{
name = bottomleft;
position = "{-116, 0}";
},
{
name = center;
position = "{394, 670}";
},
{
name = top;
position = "{529, 1118}";
},
{
name = topleft;
position = "{275, 1118}";
}
);
layerId = UUID0;
name = "Light Condensed Italic";
paths = (
{
closed = 1;
nodes = (
"283 1290 LINE",
"266 1206 LINE",
"807 1206 LINE",
"504 593 LINE SMOOTH",
"416 415 OFFCURVE",
"270 124 OFFCURVE",
"247 17 CURVE SMOOTH",
"243 0 LINE",
"336 0 LINE",
"340 17 LINE SMOOTH",
"361 117 OFFCURVE",
"510 411 OFFCURVE",
"599 593 CURVE SMOOTH",
"902 1206 LINE",
"919 1290 LINE"
);
},
{
closed = 1;
nodes = (
"172 759 LINE",
"-94 -492 LINE",
"1 -492 LINE",
"267 759 LINE"
);
}
);
width = 853;
}
);
unicode = 05E7;
},
{
glyphname = "resh-hb";
lastChange = "2013-03-10 17:29:08 +0200";
layers = (
{
anchors = (
{
name = bottom;
position = "{348, 0}";
},
{
name = bottomleft;
position = "{-119, 0}";
},
{
name = center;
position = "{223, 670}";
},
{
name = top;
position = "{432, 1118}";
},
{
name = topleft;
position = "{165, 1118}";
}
);
layerId = UUID0;
name = "Light Condensed Italic";
paths = (
{
closed = 1;
nodes = (
"239 1310 OFFCURVE",
"160 1300 OFFCURVE",
"160 1300 CURVE",
"142 1213 LINE",
"142 1213 OFFCURVE",
"228 1224 OFFCURVE",
"313 1224 CURVE SMOOTH",
"505 1224 OFFCURVE",
"547 1190 OFFCURVE",
"496 950 CURVE SMOOTH",
"294 0 LINE",
"389 0 LINE",
"591 950 LINE SMOOTH",
"655 1251 OFFCURVE",
"575 1310 OFFCURVE",
"331 1310 CURVE SMOOTH"
);
}
);
width = 668;
}
);
unicode = 05E8;
},
{
glyphname = "shin-hb";
lastChange = "2013-03-10 17:29:08 +0200";
layers = (
{
anchors = (
{
name = bottom;
position = "{387, 0}";
},
{
name = bottomleft;
position = "{-117, 0}";
},
{
name = center;
position = "{480, 440}";
},
{
name = top;
position = "{625, 1118}";
},
{
name = topleft;
position = "{208, 1118}";
},
{
name = topright;
position = "{1029, 1118}";
}
);
layerId = UUID0;
name = "Light Condensed Italic";
paths = (
{
closed = 1;
nodes = (
"1026 1290 LINE",
"854 735 LINE SMOOTH",
"740 366 OFFCURVE",
"483 86 OFFCURVE",
"169 87 CURVE SMOOTH",
"144 87 LINE",
"193 464 LINE",
"443 551 OFFCURVE",
"542 719 OFFCURVE",
"641 1036 CURVE SMOOTH",
"720 1290 LINE",
"636 1290 LINE",
"557 1036 LINE SMOOTH",
"467 749 OFFCURVE",
"374 627 OFFCURVE",
"204 557 CURVE",
"299 1290 LINE",
"211 1290 LINE",
"46 0 LINE",
"151 0 LINE SMOOTH",
"582 0 OFFCURVE",
"828 382 OFFCURVE",
"938 735 CURVE SMOOTH",
"1111 1290 LINE"
);
}
);
width = 1048;
}
);
unicode = 05E9;
},
{
glyphname = "tav-hb";
lastChange = "2013-03-10 17:29:08 +0200";
layers = (
{
anchors = (
{
name = bottom;
position = "{306, 0}";
},
{
name = bottomleft;
position = "{-119, 0}";
},
{
name = center;
position = "{448, 670}";
},
{
name = top;
position = "{543, 1118}";
},
{
name = topleft;
position = "{198, 1118}";
}
);
layerId = UUID0;
name = "Light Condensed Italic";
paths = (
{
closed = 1;
nodes = (
"387 1310 OFFCURVE",
"253 1294 OFFCURVE",
"199 1288 CURVE",
"180 1201 LINE",
"263 1208 LINE",
"49 204 LINE SMOOTH",
"31 120 OFFCURVE",
"-4 91 OFFCURVE",
"-43 91 CURVE SMOOTH",
"-68 91 OFFCURVE",
"-81 95 OFFCURVE",
"-102 99 CURVE",
"-122 8 LINE",
"-102 4 OFFCURVE",
"-67 0 OFFCURVE",
"-45 0 CURVE SMOOTH",
"47 0 OFFCURVE",
"111 50 OFFCURVE",
"144 204 CURVE SMOOTH",
"359 1217 LINE",
"436 1221 OFFCURVE",
"448 1224 OFFCURVE",
"521 1224 CURVE SMOOTH",
"687 1224 OFFCURVE",
"764 1190 OFFCURVE",
"713 950 CURVE SMOOTH",
"511 0 LINE",
"606 0 LINE",
"808 950 LINE SMOOTH",
"872 1251 OFFCURVE",
"751 1310 OFFCURVE",
"539 1310 CURVE SMOOTH"
);
}
);
width = 890;
}
);
unicode = 05EA;
},
{
glyphname = zero;
lastChange = "2013-03-10 17:26:55 +0200";
layers = (
{
layerId = UUID0;
name = "Light Condensed Italic";
paths = (
{
closed = 1;
nodes = (
"791 1378 OFFCURVE",
"719 1483 OFFCURVE",
"590 1483 CURVE SMOOTH",
"505 1483 OFFCURVE",
"425 1428 OFFCURVE",
"352 1318 CURVE SMOOTH",
"279 1209 OFFCURVE",
"217 1051 OFFCURVE",
"168 846 CURVE SMOOTH",
"119 641 OFFCURVE",
"94 455 OFFCURVE",
"94 289 CURVE SMOOTH",
"94 82 OFFCURVE",
"159 -20 OFFCURVE",
"295 -20 CURVE SMOOTH",
"423 -20 OFFCURVE",
"539 94 OFFCURVE",
"634 333 CURVE SMOOTH",
"682 453 OFFCURVE",
"720 591 OFFCURVE",
"748 747 CURVE SMOOTH",
"777 903 OFFCURVE",
"791 1047 OFFCURVE",
"791 1178 CURVE SMOOTH"
);
},
{
closed = 1;
nodes = (
"663 1389 OFFCURVE",
"692 1311 OFFCURVE",
"692 1178 CURVE SMOOTH",
"692 1032 OFFCURVE",
"672 864 OFFCURVE",
"631 673 CURVE SMOOTH",
"591 483 OFFCURVE",
"542 336 OFFCURVE",
"485 231 CURVE SMOOTH",
"428 126 OFFCURVE",
"367 74 OFFCURVE",
"303 74 CURVE SMOOTH",
"224 74 OFFCURVE",
"193 144 OFFCURVE",
"193 289 CURVE SMOOTH",
"193 426 OFFCURVE",
"213 589 OFFCURVE",
"254 778 CURVE SMOOTH",
"295 967 OFFCURVE",
"344 1116 OFFCURVE",
"401 1225 CURVE SMOOTH",
"459 1334 OFFCURVE",
"520 1389 OFFCURVE",
"584 1389 CURVE SMOOTH"
);
}
);
width = 737;
}
);
unicode = 0030;
},
{
glyphname = one;
lastChange = "2013-03-10 17:26:55 +0200";
layers = (
{
layerId = UUID0;
name = "Light Condensed Italic";
paths = (
{
closed = 1;
nodes = (
"692 1462 LINE",
"600 1462 LINE",
"287 1194 LINE",
"332 1126 LINE",
"441 1217 OFFCURVE",
"504 1271 OFFCURVE",
"523 1289 CURVE",
"578 1346 LINE",
"545 1211 LINE",
"512 1063 LINE",
"287 0 LINE",
"383 0 LINE"
);
}
);
width = 737;
}
);
unicode = 0031;
},
{
glyphname = two;
lastChange = "2013-03-10 17:26:55 +0200";
layers = (
{
layerId = UUID0;
name = "Light Condensed Italic";
paths = (
{
closed = 1;
nodes = (
"594 90 LINE",
"121 90 LINE",
"442 483 LINE SMOOTH",
"579 652 OFFCURVE",
"674 791 OFFCURVE",
"726 900 CURVE SMOOTH",
"779 1009 OFFCURVE",
"805 1111 OFFCURVE",
"805 1206 CURVE SMOOTH",
"805 1382 OFFCURVE",
"712 1483 OFFCURVE",
"555 1483 CURVE SMOOTH",
"444 1483 OFFCURVE",
"360 1438 OFFCURVE",
"287 1386 CURVE",
"332 1309 LINE",
"379 1342 OFFCURVE",
"417 1365 OFFCURVE",
"448 1376 CURVE SMOOTH",
"479 1387 OFFCURVE",
"510 1393 OFFCURVE",
"543 1393 CURVE SMOOTH",
"652 1393 OFFCURVE",
"707 1327 OFFCURVE",
"707 1196 CURVE SMOOTH",
"707 1060 OFFCURVE",
"656 933 OFFCURVE",
"575 805 CURVE SMOOTH",
"535 741 OFFCURVE",
"461 643 OFFCURVE",
"354 512 CURVE SMOOTH",
"2 78 LINE",
"-8 0 LINE",
"575 0 LINE"
);
}
);
width = 737;
}
);
unicode = 0032;
},
{
glyphname = three;
lastChange = "2013-03-10 17:26:55 +0200";
layers = (
{
layerId = UUID0;
name = "Light Condensed Italic";
paths = (
{
closed = 1;
nodes = (
"805 1289 OFFCURVE",
"782 1356 OFFCURVE",
"735 1407 CURVE SMOOTH",
"689 1458 OFFCURVE",
"626 1483 OFFCURVE",
"547 1483 CURVE SMOOTH",
"432 1483 OFFCURVE",
"347 1439 OFFCURVE",
"270 1378 CURVE",
"315 1307 LINE",
"392 1364 OFFCURVE",
"457 1395 OFFCURVE",
"545 1395 CURVE SMOOTH",
"652 1395 OFFCURVE",
"709 1319 OFFCURVE",
"709 1194 CURVE SMOOTH",
"709 1083 OFFCURVE",
"676 990 OFFCURVE",
"609 915 CURVE SMOOTH",
"542 840 OFFCURVE",
"459 803 OFFCURVE",
"360 803 CURVE SMOOTH",
"301 803 LINE",
"283 711 LINE",
"348 711 LINE SMOOTH",
"489 711 OFFCURVE",
"567 624 OFFCURVE",
"567 449 CURVE SMOOTH",
"568 231 OFFCURVE",
"441 64 OFFCURVE",
"242 68 CURVE",
"153 68 OFFCURVE",
"78 91 OFFCURVE",
"16 137 CURVE",
"16 29 LINE",
"73 -4 OFFCURVE",
"152 -20 OFFCURVE",
"254 -20 CURVE SMOOTH",
"414 -20 OFFCURVE",
"545 65 OFFCURVE",
"614 213 CURVE SMOOTH",
"649 288 OFFCURVE",
"666 371 OFFCURVE",
"666 463 CURVE SMOOTH",
"666 618 OFFCURVE",
"609 716 OFFCURVE",
"496 758 CURVE",
"498 764 LINE",
"591 786 OFFCURVE",
"666 836 OFFCURVE",
"721 915 CURVE SMOOTH",
"777 994 OFFCURVE",
"805 1091 OFFCURVE",
"805 1206 CURVE SMOOTH"
);
}
);
width = 737;
}
);
unicode = 0033;
},
{
glyphname = four;
lastChange = "2013-03-10 17:26:55 +0200";
layers = (
{
layerId = UUID0;
name = "Light Condensed Italic";
paths = (
{
closed = 1;
nodes = (
"723 422 LINE",
"584 422 LINE",
"809 1479 LINE",
"684 1479 LINE",
"33 416 LINE",
"16 332 LINE",
"471 332 LINE",
"399 0 LINE",
"494 0 LINE",
"565 332 LINE",
"705 332 LINE"
);
},
{
closed = 1;
nodes = (
"131 422 LINE",
"592 1178 LINE",
"667 1318 LINE",
"692 1366 LINE",
"700 1366 LINE",
"645 1142 LINE",
"489 422 LINE"
);
}
);
width = 737;
}
);
unicode = 0034;
},
{
glyphname = five;
lastChange = "2013-03-10 17:26:55 +0200";
layers = (
{
layerId = UUID0;
name = "Light Condensed Italic";
paths = (
{
closed = 1;
nodes = (
"596 365 OFFCURVE",
"563 262 OFFCURVE",
"496 184 CURVE SMOOTH",
"429 107 OFFCURVE",
"342 68 OFFCURVE",
"233 68 CURVE SMOOTH",
"139 68 OFFCURVE",
"67 91 OFFCURVE",
"16 137 CURVE",
"16 27 LINE",
"59 2 OFFCURVE",
"144 -20 OFFCURVE",
"229 -20 CURVE",
"511 -26 OFFCURVE",
"697 207 OFFCURVE",
"694 508 CURVE",
"694 744 OFFCURVE",
"590 874 OFFCURVE",
"403 874 CURVE SMOOTH",
"362 874 OFFCURVE",
"322 869 OFFCURVE",
"285 860 CURVE",
"430 1368 LINE",
"795 1368 LINE",
"815 1462 LINE",
"358 1462 LINE",
"180 821 LINE",
"219 758 LINE",
"263 773 OFFCURVE",
"295 783 OFFCURVE",
"315 786 CURVE SMOOTH",
"336 789 OFFCURVE",
"357 791 OFFCURVE",
"379 791 CURVE SMOOTH",
"526 791 OFFCURVE",
"596 680 OFFCURVE",
"596 492 CURVE SMOOTH"
);
}
);
width = 737;
}
);
unicode = 0035;
},
{
glyphname = six;
lastChange = "2013-03-10 17:26:55 +0200";
layers = (
{
layerId = UUID0;
name = "Light Condensed Italic";
paths = (
{
closed = 1;
nodes = (
"104 212 OFFCURVE",
"124 129 OFFCURVE",
"165 69 CURVE SMOOTH",
"206 10 OFFCURVE",
"261 -20 OFFCURVE",
"332 -20 CURVE SMOOTH",
"476 -20 OFFCURVE",
"596 87 OFFCURVE",
"667 295 CURVE SMOOTH",
"703 400 OFFCURVE",
"721 508 OFFCURVE",
"721 621 CURVE SMOOTH",
"721 706 OFFCURVE",
"702 774 OFFCURVE",
"664 825 CURVE",
"627 877 OFFCURVE",
"576 903 OFFCURVE",
"512 903 CURVE SMOOTH",
"404 903 OFFCURVE",
"307 841 OFFCURVE",
"246 741 CURVE",
"240 741 LINE",
"347 1164 OFFCURVE",
"501 1389 OFFCURVE",
"698 1389 CURVE SMOOTH",
"744 1389 OFFCURVE",
"782 1381 OFFCURVE",
"813 1366 CURVE",
"840 1460 LINE",
"805 1475 OFFCURVE",
"757 1483 OFFCURVE",
"696 1483 CURVE SMOOTH",
"591 1483 OFFCURVE",
"494 1432 OFFCURVE",
"406 1331 CURVE SMOOTH",
"318 1230 OFFCURVE",
"246 1085 OFFCURVE",
"189 894 CURVE SMOOTH",
"132 704 OFFCURVE",
"104 512 OFFCURVE",
"104 317 CURVE SMOOTH"
);
},
{
closed = 1;
nodes = (
"252 72 OFFCURVE",
"197 164 OFFCURVE",
"197 317 CURVE SMOOTH",
"197 434 OFFCURVE",
"208 526 OFFCURVE",
"231 592 CURVE SMOOTH",
"254 658 OFFCURVE",
"287 711 OFFCURVE",
"332 751 CURVE SMOOTH",
"377 791 OFFCURVE",
"428 811 OFFCURVE",
"485 811 CURVE SMOOTH",
"574 811 OFFCURVE",
"627 733 OFFCURVE",
"627 608 CURVE SMOOTH",
"627 525 OFFCURVE",
"613 437 OFFCURVE",
"586 345 CURVE SMOOTH",
"559 254 OFFCURVE",
"524 185 OFFCURVE",
"483 140 CURVE SMOOTH",
"442 95 OFFCURVE",
"395 72 OFFCURVE",
"344 72 CURVE SMOOTH"
);
}
);
width = 737;
}
);
unicode = 0036;
},
{
glyphname = seven;
lastChange = "2013-03-10 17:26:55 +0200";
layers = (
{
layerId = UUID0;
name = "Light Condensed Italic";
paths = (
{
closed = 1;
nodes = (
"227 0 LINE",
"866 1380 LINE",
"877 1462 LINE",
"262 1462 LINE",
"244 1368 LINE",
"762 1368 LINE",
"125 0 LINE"
);
}
);
width = 737;
}
);
unicode = 0037;
},
{
glyphname = eight;
lastChange = "2013-03-10 17:26:55 +0200";
layers = (
{
layerId = UUID0;
name = "Light Condensed Italic";
paths = (
{
closed = 1;
nodes = (
"35 95 OFFCURVE",
"142 -20 OFFCURVE",
"334 -20 CURVE SMOOTH",
"439 -20 OFFCURVE",
"523 17 OFFCURVE",
"588 91 CURVE SMOOTH",
"653 166 OFFCURVE",
"686 261 OFFCURVE",
"686 377 CURVE SMOOTH",
"686 514 OFFCURVE",
"639 635 OFFCURVE",
"514 760 CURVE",
"710 863 OFFCURVE",
"821 1021 OFFCURVE",
"821 1210 CURVE SMOOTH",
"821 1295 OFFCURVE",
"798 1361 OFFCURVE",
"752 1410 CURVE SMOOTH",
"707 1459 OFFCURVE",
"646 1483 OFFCURVE",
"571 1483 CURVE SMOOTH",
"472 1483 OFFCURVE",
"391 1449 OFFCURVE",
"330 1381 CURVE SMOOTH",
"269 1313 OFFCURVE",
"238 1227 OFFCURVE",
"238 1122 CURVE SMOOTH",
"238 989 OFFCURVE",
"280 881 OFFCURVE",
"375 776 CURVE",
"258 717 OFFCURVE",
"172 649 OFFCURVE",
"117 572 CURVE SMOOTH",
"62 495 OFFCURVE",
"35 400 OFFCURVE",
"35 287 CURVE SMOOTH"
);
},
{
closed = 1;
nodes = (
"588 280 OFFCURVE",
"565 206 OFFCURVE",
"519 151 CURVE SMOOTH",
"473 97 OFFCURVE",
"411 70 OFFCURVE",
"332 70 CURVE SMOOTH",
"272 70 OFFCURVE",
"224 91 OFFCURVE",
"187 132 CURVE SMOOTH",
"151 173 OFFCURVE",
"133 227 OFFCURVE",
"133 293 CURVE SMOOTH",
"133 388 OFFCURVE",
"155 468 OFFCURVE",
"200 534 CURVE SMOOTH",
"245 600 OFFCURVE",
"322 661 OFFCURVE",
"430 717 CURVE",
"489 657 OFFCURVE",
"530 600 OFFCURVE",
"553 547 CURVE SMOOTH",
"576 494 OFFCURVE",
"588 436 OFFCURVE",
"588 373 CURVE SMOOTH"
);
},
{
closed = 1;
nodes = (
"336 1291 OFFCURVE",
"420 1393 OFFCURVE",
"565 1393 CURVE SMOOTH",
"665 1393 OFFCURVE",
"725 1316 OFFCURVE",
"725 1192 CURVE SMOOTH",
"725 1041 OFFCURVE",
"632 906 OFFCURVE",
"459 815 CURVE",
"378 902 OFFCURVE",
"336 993 OFFCURVE",
"336 1116 CURVE SMOOTH"
);
}
);
width = 737;
}
);
unicode = 0038;
},
{
glyphname = nine;
lastChange = "2013-03-10 17:26:55 +0200";
layers = (
{
layerId = UUID0;
name = "Light Condensed Italic";
paths = (
{
closed = 1;
nodes = (
"784 1371 OFFCURVE",
"706 1483 OFFCURVE",
"561 1483 CURVE SMOOTH",
"414 1483 OFFCURVE",
"297 1383 OFFCURVE",
"224 1182 CURVE SMOOTH",
"188 1082 OFFCURVE",
"170 977 OFFCURVE",
"170 866 CURVE SMOOTH",
"170 775 OFFCURVE",
"189 701 OFFCURVE",
"228 644 CURVE SMOOTH",
"267 587 OFFCURVE",
"318 559 OFFCURVE",
"381 559 CURVE SMOOTH",
"484 559 OFFCURVE",
"584 624 OFFCURVE",
"645 723 CURVE",
"651 723 LINE",
"560 299 OFFCURVE",
"407 74 OFFCURVE",
"203 74 CURVE SMOOTH",
"133 74 OFFCURVE",
"82 81 OFFCURVE",
"49 96 CURVE",
"49 2 LINE",
"86 -13 OFFCURVE",
"138 -20 OFFCURVE",
"203 -20 CURVE SMOOTH",
"422 -20 OFFCURVE",
"601 181 OFFCURVE",
"705 565 CURVE",
"758 757 OFFCURVE",
"784 956 OFFCURVE",
"784 1163 CURVE SMOOTH"
);
},
{
closed = 1;
nodes = (
"642 1391 OFFCURVE",
"692 1302 OFFCURVE",
"692 1151 CURVE SMOOTH",
"692 944 OFFCURVE",
"647 796 OFFCURVE",
"555 713 CURVE SMOOTH",
"510 672 OFFCURVE",
"459 651 OFFCURVE",
"403 651 CURVE SMOOTH",
"314 651 OFFCURVE",
"262 733 OFFCURVE",
"262 877 CURVE SMOOTH",
"262 958 OFFCURVE",
"276 1041 OFFCURVE",
"303 1127 CURVE SMOOTH",
"330 1214 OFFCURVE",
"365 1279 OFFCURVE",
"407 1324 CURVE SMOOTH",
"449 1369 OFFCURVE",
"496 1391 OFFCURVE",
"549 1391 CURVE SMOOTH"
);
}
);
width = 737;
}
);
unicode = 0039;
},
{
glyphname = fraction;
lastChange = "2013-03-10 17:26:55 +0200";
layers = (
{
layerId = UUID0;
name = "Light Condensed Italic";
paths = (
{
closed = 1;
nodes = (
"709 1462 LINE",
"-414 0 LINE",
"-317 0 LINE",
"805 1462 LINE"
);
}
);
width = 240;
}
);
unicode = 2044;
},
{
glyphname = asterisk;
lastChange = "2013-03-10 17:26:55 +0200";
layers = (
{
layerId = UUID0;
name = "Light Condensed Italic";
paths = (
{
closed = 1;
nodes = (
"465 1563 LINE",
"461 1323 LINE",
"250 1405 LINE",
"221 1307 LINE",
"426 1270 LINE",
"256 1075 LINE",
"338 1020 LINE",
"479 1231 LINE",
"549 993 LINE",
"645 1024 LINE",
"528 1257 LINE",
"743 1235 LINE",
"743 1339 LINE",
"520 1315 LINE",
"578 1546 LINE"
);
}
);
width = 672;
}
);
unicode = 002A;
},
{
glyphname = backslash;
lastChange = "2013-03-10 17:26:55 +0200";
layers = (
{
layerId = UUID0;
name = "Light Condensed Italic";
paths = (
{
closed = 1;
nodes = (
"270 1462 LINE",
"432 0 LINE",
"528 0 LINE",
"365 1462 LINE"
);
}
);
width = 641;
}
);
unicode = 005C;
},
{
glyphname = bullet;
lastChange = "2013-03-10 17:26:55 +0200";
layers = (
{
layerId = UUID0;
name = "Light Condensed Italic";
paths = (
{
closed = 1;
nodes = (
"211 591 OFFCURVE",
"291 506 OFFCURVE",
"428 506 CURVE SMOOTH",
"567 506 OFFCURVE",
"645 591 OFFCURVE",
"645 748 CURVE SMOOTH",
"645 908 OFFCURVE",
"567 989 OFFCURVE",
"428 989 CURVE SMOOTH",
"289 989 OFFCURVE",
"211 908 OFFCURVE",
"211 748 CURVE SMOOTH"
);
}
);
width = 692;
}
);
unicode = 2022;
},
{
glyphname = colon;
lastChange = "2013-03-10 17:26:55 +0200";
layers = (
{
layerId = UUID0;
name = "Light Condensed Italic";
paths = (
{
closed = 1;
nodes = (
"70 8 OFFCURVE",
"98 -16 OFFCURVE",
"131 -16 CURVE SMOOTH",
"188 -16 OFFCURVE",
"229 40 OFFCURVE",
"229 121 CURVE SMOOTH",
"229 166 OFFCURVE",
"208 197 OFFCURVE",
"172 197 CURVE SMOOTH",
"108 197 OFFCURVE",
"70 133 OFFCURVE",
"70 53 CURVE SMOOTH"
);
},
{
closed = 1;
nodes = (
"260 899 OFFCURVE",
"289 874 OFFCURVE",
"322 874 CURVE SMOOTH",
"381 874 OFFCURVE",
"420 932 OFFCURVE",
"420 1012 CURVE SMOOTH",
"420 1049 OFFCURVE",
"403 1087 OFFCURVE",
"362 1087 CURVE SMOOTH",
"301 1087 OFFCURVE",
"260 1025 OFFCURVE",
"260 944 CURVE SMOOTH"
);
}
);
width = 379;
}
);
unicode = 003A;
},
{
glyphname = comma;
lastChange = "2013-03-10 17:26:55 +0200";
layers = (
{
layerId = UUID0;
name = "Light Condensed Italic";
paths = (
{
closed = 1;
nodes = (
"281 205 LINE",
"166 205 LINE",
"143 132 OFFCURVE",
"113 51 OFFCURVE",
"76 -40 CURVE SMOOTH",
"39 -131 OFFCURVE",
"7 -205 OFFCURVE",
"-20 -264 CURVE",
"45 -264 LINE",
"140 -109 OFFCURVE",
"221 39 OFFCURVE",
"289 182 CURVE"
);
}
);
width = 379;
}
);
unicode = 002C;
},
{
glyphname = ellipsis;
lastChange = "2013-03-10 17:26:55 +0200";
layers = (
{
layerId = UUID0;
name = "Light Condensed Italic";
paths = (
{
closed = 1;
nodes = (
"117 8 OFFCURVE",
"145 -16 OFFCURVE",
"178 -16 CURVE SMOOTH",
"235 -16 OFFCURVE",
"276 40 OFFCURVE",
"276 121 CURVE SMOOTH",
"276 166 OFFCURVE",
"255 197 OFFCURVE",
"219 197 CURVE SMOOTH",
"155 197 OFFCURVE",
"117 133 OFFCURVE",
"117 53 CURVE SMOOTH"
);
},
{
closed = 1;
nodes = (
"498 8 OFFCURVE",
"526 -16 OFFCURVE",
"559 -16 CURVE SMOOTH",
"616 -16 OFFCURVE",
"657 40 OFFCURVE",
"657 121 CURVE SMOOTH",
"657 166 OFFCURVE",
"636 197 OFFCURVE",
"600 197 CURVE SMOOTH",
"536 197 OFFCURVE",
"498 133 OFFCURVE",
"498 53 CURVE SMOOTH"
);
},
{
closed = 1;
nodes = (
"879 8 OFFCURVE",
"907 -16 OFFCURVE",
"940 -16 CURVE SMOOTH",
"997 -16 OFFCURVE",
"1038 40 OFFCURVE",
"1038 121 CURVE SMOOTH",
"1038 166 OFFCURVE",
"1017 197 OFFCURVE",
"981 197 CURVE SMOOTH",
"917 197 OFFCURVE",
"879 133 OFFCURVE",
"879 53 CURVE SMOOTH"
);
}
);
width = 1139;
}
);
unicode = 2026;
},
{
glyphname = exclam;
lastChange = "2013-03-10 17:26:55 +0200";
layers = (
{
layerId = UUID0;
name = "Light Condensed Italic";
paths = (
{
closed = 1;
nodes = (
"530 1462 LINE",
"408 1462 LINE",
"205 367 LINE",
"266 367 LINE"
);
},
{
closed = 1;
nodes = (
"96 8 OFFCURVE",
"125 -16 OFFCURVE",
"158 -16 CURVE SMOOTH",
"215 -16 OFFCURVE",
"256 40 OFFCURVE",
"256 121 CURVE SMOOTH",
"256 166 OFFCURVE",
"235 197 OFFCURVE",
"199 197 CURVE SMOOTH",
"136 197 OFFCURVE",
"96 134 OFFCURVE",
"96 53 CURVE SMOOTH"
);
}
);
width = 477;
}
);
unicode = 0021;
},
{
glyphname = exclamdown;
lastChange = "2013-03-10 17:26:55 +0200";
layers = (
{
layerId = UUID0;
name = "Light Condensed Italic";
paths = (
{
closed = 1;
nodes = (
"53 -391 LINE",
"176 -391 LINE",
"379 705 LINE",
"317 705 LINE"
);
},
{
closed = 1;
nodes = (
"487 1063 OFFCURVE",
"459 1087 OFFCURVE",
"426 1087 CURVE SMOOTH",
"369 1087 OFFCURVE",
"328 1031 OFFCURVE",
"328 950 CURVE SMOOTH",
"328 905 OFFCURVE",
"349 874 OFFCURVE",
"385 874 CURVE SMOOTH",
"449 874 OFFCURVE",
"487 938 OFFCURVE",
"487 1018 CURVE SMOOTH"
);
}
);
width = 477;
}
);
unicode = 00A1;
},
{
glyphname = numbersign;
lastChange = "2013-03-10 17:26:55 +0200";
layers = (
{
layerId = UUID0;
name = "Light Condensed Italic";
paths = (
{
closed = 1;
nodes = (
"197 467 LINE",
"51 0 LINE",
"131 0 LINE",
"276 467 LINE",
"479 467 LINE",
"330 0 LINE",
"412 0 LINE",
"559 467 LINE",
"725 467 LINE",
"743 557 LINE",
"586 557 LINE",
"713 956 LINE",
"870 956 LINE",
"889 1042 LINE",
"741 1042 LINE",
"870 1462 LINE",
"795 1462 LINE",
"662 1042 LINE",
"459 1042 LINE",
"590 1462 LINE",
"508 1462 LINE",
"379 1042 LINE",
"217 1042 LINE",
"199 956 LINE",
"350 956 LINE",
"223 557 LINE",
"72 557 LINE",
"53 467 LINE"
);
},
{
closed = 1;
nodes = (
"430 956 LINE",
"635 956 LINE",
"506 557 LINE",
"305 557 LINE"
);
}
);
width = 782;
}
);
unicode = 0023;
},
{
glyphname = period;
lastChange = "2013-03-13 10:49:26 +0200";
layers = (
{
layerId = UUID0;
name = "Light Condensed Italic";
paths = (
{
closed = 1;
nodes = (
"42 8 OFFCURVE",
"71 -16 OFFCURVE",
"104 -16 CURVE SMOOTH",
"161 -16 OFFCURVE",
"202 40 OFFCURVE",
"202 121 CURVE SMOOTH",
"202 166 OFFCURVE",
"181 197 OFFCURVE",
"145 197 CURVE SMOOTH",
"82 197 OFFCURVE",
"42 134 OFFCURVE",
"42 53 CURVE SMOOTH"
);
}
);
width = 379;
}
);
unicode = 002E;
},
{
glyphname = periodcentered;
lastChange = "2013-03-10 17:26:55 +0200";
layers = (
{
layerId = UUID0;
name = "Light Condensed Italic";
paths = (
{
closed = 1;
nodes = (
"186 641 OFFCURVE",
"215 616 OFFCURVE",
"248 616 CURVE SMOOTH",
"307 616 OFFCURVE",
"346 674 OFFCURVE",
"346 754 CURVE SMOOTH",
"346 791 OFFCURVE",
"330 829 OFFCURVE",
"289 829 CURVE SMOOTH",
"226 829 OFFCURVE",
"186 767 OFFCURVE",
"186 686 CURVE SMOOTH"
);
}
);
width = 379;
}
);
unicode = 00B7;
},
{
glyphname = question;
lastChange = "2013-03-10 17:26:55 +0200";
layers = (
{
layerId = UUID0;
name = "Light Condensed Italic";
paths = (
{
closed = 1;
nodes = (
"238 367 LINE",
"254 471 OFFCURVE",
"291 562 OFFCURVE",
"340 647 CURVE SMOOTH",
"365 690 OFFCURVE",
"406 746 OFFCURVE",
"461 817 CURVE SMOOTH",
"528 904 OFFCURVE",
"572 966 OFFCURVE",
"594 1005 CURVE SMOOTH",
"616 1044 OFFCURVE",
"633 1084 OFFCURVE",
"645 1125 CURVE SMOOTH",
"658 1166 OFFCURVE",
"664 1210 OFFCURVE",
"664 1257 CURVE SMOOTH",
"664 1398 OFFCURVE",
"585 1483 OFFCURVE",
"446 1483 CURVE SMOOTH",
"377 1483 OFFCURVE",
"307 1458 OFFCURVE",
"236 1407 CURVE",
"274 1329 LINE",
"313 1357 OFFCURVE",
"343 1375 OFFCURVE",
"365 1382 CURVE SMOOTH",
"387 1389 OFFCURVE",
"411 1393 OFFCURVE",
"438 1393 CURVE SMOOTH",
"510 1393 OFFCURVE",
"563 1348 OFFCURVE",
"563 1247 CURVE SMOOTH",
"563 1191 OFFCURVE",
"554 1138 OFFCURVE",
"535 1088 CURVE SMOOTH",
"516 1038 OFFCURVE",
"478 974 OFFCURVE",
"420 895 CURVE SMOOTH",
"350 801 LINE SMOOTH",
"259 678 OFFCURVE",
"201 551 OFFCURVE",
"174 418 CURVE SMOOTH",
"164 367 LINE"
);
},
{
closed = 1;
nodes = (
"72 8 OFFCURVE",
"100 -16 OFFCURVE",
"133 -16 CURVE SMOOTH",
"190 -16 OFFCURVE",
"231 40 OFFCURVE",
"231 121 CURVE SMOOTH",
"231 166 OFFCURVE",
"210 197 OFFCURVE",
"174 197 CURVE SMOOTH",
"110 197 OFFCURVE",
"72 133 OFFCURVE",
"72 53 CURVE SMOOTH"
);
}
);
width = 520;
}
);
unicode = 003F;
},
{
glyphname = questiondown;
lastChange = "2013-03-10 17:26:55 +0200";
layers = (
{
layerId = UUID0;
name = "Light Condensed Italic";
paths = (
{
closed = 1;
nodes = (
"397 705 LINE",
"380 597 OFFCURVE",
"346 511 OFFCURVE",
"298 428 CURVE SMOOTH",
"274 387 OFFCURVE",
"233 329 OFFCURVE",
"174 254 CURVE SMOOTH",
"108 169 OFFCURVE",
"64 106 OFFCURVE",
"41 67 CURVE SMOOTH",
"19 28 OFFCURVE",
"2 -12 OFFCURVE",
"-10 -53 CURVE SMOOTH",
"-23 -94 OFFCURVE",
"-29 -139 OFFCURVE",
"-29 -186 CURVE SMOOTH",
"-29 -327 OFFCURVE",
"45 -412 OFFCURVE",
"182 -412 CURVE SMOOTH",
"251 -412 OFFCURVE",
"322 -387 OFFCURVE",
"393 -336 CURVE",
"354 -258 LINE",
"315 -286 OFFCURVE",
"285 -304 OFFCURVE",
"263 -311 CURVE SMOOTH",
"241 -318 OFFCURVE",
"217 -322 OFFCURVE",
"190 -322 CURVE SMOOTH",
"118 -322 OFFCURVE",
"72 -276 OFFCURVE",
"72 -176 CURVE SMOOTH",
"72 -118 OFFCURVE",
"82 -62 OFFCURVE",
"102 -7 CURVE",
"123 47 OFFCURVE",
"159 108 OFFCURVE",
"211 176 CURVE",
"280 270 OFFCURVE",
"325 333 OFFCURVE",
"344 365 CURVE SMOOTH",
"363 397 OFFCURVE",
"381 430 OFFCURVE",
"396 464 CURVE SMOOTH",
"412 498 OFFCURVE",
"425 530 OFFCURVE",
"434 561 CURVE SMOOTH",
"443 592 OFFCURVE",
"454 640 OFFCURVE",
"467 705 CURVE"
);
},
{
closed = 1;
nodes = (
"563 1063 OFFCURVE",
"535 1087 OFFCURVE",
"502 1087 CURVE SMOOTH",
"442 1087 OFFCURVE",
"403 1031 OFFCURVE",
"403 950 CURVE SMOOTH",
"403 913 OFFCURVE",
"420 874 OFFCURVE",
"461 874 CURVE SMOOTH",
"522 874 OFFCURVE",
"563 937 OFFCURVE",
"563 1018 CURVE SMOOTH"
);
}
);
width = 520;
}
);
unicode = 00BF;
},
{
glyphname = quotedbl;
lastChange = "2013-03-10 17:26:55 +0200";
layers = (
{
layerId = UUID0;
name = "Light Condensed Italic";
paths = (
{
closed = 1;
nodes = (
"295 1462 LINE",
"213 934 LINE",
"274 934 LINE",
"412 1462 LINE"
);
},
{
closed = 1;
nodes = (
"563 1462 LINE",
"479 934 LINE",
"541 934 LINE",
"680 1462 LINE"
);
}
);
width = 616;
}
);
unicode = 0022;
},
{
glyphname = quotesingle;
lastChange = "2013-03-10 17:26:55 +0200";
layers = (
{
layerId = UUID0;
name = "Light Condensed Italic";
paths = (
{
closed = 1;
nodes = (
"295 1462 LINE",
"213 934 LINE",
"274 934 LINE",
"412 1462 LINE"
);
}
);
width = 350;
}
);
unicode = 0027;
},
{
glyphname = semicolon;
lastChange = "2013-03-13 10:49:40 +0200";
layers = (
{
layerId = UUID0;
name = "Light Condensed Italic";
paths = (
{
closed = 1;
nodes = (
"197 205 LINE",
"83 205 LINE",
"40 68 OFFCURVE",
"-23 -89 OFFCURVE",
"-104 -264 CURVE",
"-38 -264 LINE",
"59 -105 OFFCURVE",
"140 44 OFFCURVE",
"205 182 CURVE"
);
},
{
closed = 1;
nodes = (
"203 899 OFFCURVE",
"232 874 OFFCURVE",
"265 874 CURVE SMOOTH",
"324 874 OFFCURVE",
"363 932 OFFCURVE",
"363 1012 CURVE SMOOTH",
"363 1049 OFFCURVE",
"347 1087 OFFCURVE",
"306 1087 CURVE SMOOTH",
"243 1087 OFFCURVE",
"203 1025 OFFCURVE",
"203 944 CURVE SMOOTH"
);
}
);
width = 379;
}
);
unicode = 003B;
},
{
glyphname = slash;
lastChange = "2013-03-10 17:26:55 +0200";
layers = (
{
layerId = UUID0;
name = "Light Condensed Italic";
paths = (
{
closed = 1;
nodes = (
"745 1462 LINE",
"-33 0 LINE",
"59 0 LINE",
"838 1462 LINE"
);
}
);
width = 641;
}
);
unicode = 002F;
},
{
glyphname = underscore;
lastChange = "2013-03-10 17:26:55 +0200";
layers = (
{
layerId = UUID0;
name = "Light Condensed Italic";
paths = (
{
closed = 1;
nodes = (
"745 -184 LINE",
"-18 -184 LINE",
"-35 -266 LINE",
"729 -266 LINE"
);
}
);
width = 758;
}
);
unicode = 005F;
},
{
glyphname = braceleft;
lastChange = "2013-03-10 17:26:55 +0200";
layers = (
{
layerId = UUID0;
name = "Light Condensed Italic";
paths = (
{
closed = 1;
nodes = (
"838 1462 LINE",
"733 1462 OFFCURVE",
"654 1441 OFFCURVE",
"600 1398 CURVE SMOOTH",
"546 1356 OFFCURVE",
"509 1287 OFFCURVE",
"489 1190 CURVE SMOOTH",
"410 819 LINE",
"379 678 OFFCURVE",
"300 604 OFFCURVE",
"141 604 CURVE",
"125 535 LINE",
"249 535 OFFCURVE",
"311 486 OFFCURVE",
"311 389 CURVE SMOOTH",
"311 364 OFFCURVE",
"308 340 OFFCURVE",
"303 319 CURVE",
"236 -4 LINE",
"227 -38 OFFCURVE",
"223 -70 OFFCURVE",
"223 -100 CURVE SMOOTH",
"223 -244 OFFCURVE",
"297 -319 OFFCURVE",
"469 -324 CURVE",
"469 -244 LINE",
"361 -241 OFFCURVE",
"317 -194 OFFCURVE",
"317 -94 CURVE SMOOTH",
"317 -73 OFFCURVE",
"321 -45 OFFCURVE",
"328 -8 CURVE",
"395 307 LINE",
"402 344 OFFCURVE",
"406 373 OFFCURVE",
"406 395 CURVE SMOOTH",
"406 490 OFFCURVE",
"359 544 OFFCURVE",
"256 567 CURVE",
"256 571 LINE",
"400 600 OFFCURVE",
"475 683 OFFCURVE",
"506 831 CURVE",
"582 1184 LINE",
"596 1253 OFFCURVE",
"620 1303 OFFCURVE",
"654 1334 CURVE SMOOTH",
"689 1365 OFFCURVE",
"744 1381 OFFCURVE",
"819 1382 CURVE",
"838 1462 LINE"
);
}
);
width = 664;
}
);
unicode = 007B;
},
{
glyphname = braceright;
lastChange = "2013-03-10 17:26:55 +0200";
layers = (
{
layerId = UUID0;
name = "Light Condensed Italic";
paths = (
{
closed = 1;
nodes = (
"-59 -324 LINE",
"44 -324 OFFCURVE",
"123 -303 OFFCURVE",
"177 -260 CURVE",
"232 -218 OFFCURVE",
"269 -148 OFFCURVE",
"289 -51 CURVE",
"369 319 LINE SMOOTH",
"400 462 OFFCURVE",
"478 535 OFFCURVE",
"637 535 CURVE",
"653 604 LINE",
"529 604 OFFCURVE",
"467 653 OFFCURVE",
"467 750 CURVE SMOOTH",
"467 775 OFFCURVE",
"470 798 OFFCURVE",
"475 819 CURVE SMOOTH",
"543 1143 LINE SMOOTH",
"551 1178 OFFCURVE",
"555 1210 OFFCURVE",
"555 1239 CURVE SMOOTH",
"555 1382 OFFCURVE",
"481 1458 OFFCURVE",
"309 1462 CURVE",
"309 1382 LINE",
"417 1379 OFFCURVE",
"461 1332 OFFCURVE",
"461 1233 CURVE SMOOTH",
"461 1209 OFFCURVE",
"458 1180 OFFCURVE",
"451 1147 CURVE SMOOTH",
"383 831 LINE SMOOTH",
"376 799 OFFCURVE",
"373 770 OFFCURVE",
"373 743 CURVE SMOOTH",
"373 648 OFFCURVE",
"419 594 OFFCURVE",
"522 571 CURVE",
"522 567 LINE",
"378 539 OFFCURVE",
"303 456 OFFCURVE",
"272 307 CURVE SMOOTH",
"197 -45 LINE SMOOTH",
"182 -116 OFFCURVE",
"158 -167 OFFCURVE",
"123 -197 CURVE SMOOTH",
"88 -227 OFFCURVE",
"34 -243 OFFCURVE",
"-41 -244 CURVE",
"-59 -324 LINE"
);
}
);
width = 664;
}
);
unicode = 007D;
},
{
glyphname = bracketleft;
lastChange = "2013-03-10 17:26:55 +0200";
layers = (
{
layerId = UUID0;
name = "Light Condensed Italic";
paths = (
{
closed = 1;
nodes = (
"403 -233 LINE",
"139 -233 LINE",
"481 1372 LINE",
"743 1372 LINE",
"764 1462 LINE",
"406 1462 LINE",
"25 -324 LINE",
"383 -324 LINE"
);
}
);
width = 580;
}
);
unicode = 005B;
},
{
glyphname = bracketright;
lastChange = "2013-03-10 17:26:55 +0200";
layers = (
{
layerId = UUID0;
name = "Light Condensed Italic";
paths = (
{
closed = 1;
nodes = (
"-63 -324 LINE",
"293 -324 LINE",
"674 1462 LINE",
"315 1462 LINE",
"295 1372 LINE",
"559 1372 LINE",
"217 -233 LINE",
"-43 -233 LINE"
);
}
);
width = 580;
}
);
unicode = 005D;
},
{
glyphname = parenleft;
lastChange = "2013-03-10 17:26:55 +0200";
layers = (
{
layerId = UUID0;
name = "Light Condensed Italic";
paths = (
{
closed = 1;
nodes = (
"102 122 OFFCURVE",
"113 23 OFFCURVE",
"136 -77 CURVE SMOOTH",
"159 -177 OFFCURVE",
"188 -259 OFFCURVE",
"225 -324 CURVE",
"301 -324 LINE",
"270 -253 OFFCURVE",
"247 -169 OFFCURVE",
"231 -72 CURVE SMOOTH",
"215 25 OFFCURVE",
"207 122 OFFCURVE",
"207 219 CURVE SMOOTH",
"207 655 OFFCURVE",
"369 1079 OFFCURVE",
"682 1462 CURVE",
"606 1462 LINE",
"444 1285 OFFCURVE",
"319 1090 OFFCURVE",
"232 876 CURVE SMOOTH",
"145 662 OFFCURVE",
"102 443 OFFCURVE",
"102 219 CURVE SMOOTH"
);
}
);
width = 508;
}
);
unicode = 0028;
},
{
glyphname = parenright;
lastChange = "2013-03-10 17:26:55 +0200";
layers = (
{
layerId = UUID0;
name = "Light Condensed Italic";
paths = (
{
closed = 1;
nodes = (
"498 1017 OFFCURVE",
"487 1116 OFFCURVE",
"464 1215 CURVE SMOOTH",
"441 1314 OFFCURVE",
"412 1397 OFFCURVE",
"375 1462 CURVE",
"299 1462 LINE",
"329 1394 OFFCURVE",
"352 1311 OFFCURVE",
"368 1213 CURVE",
"385 1116 OFFCURVE",
"393 1018 OFFCURVE",
"393 920 CURVE SMOOTH",
"393 483 OFFCURVE",
"231 59 OFFCURVE",
"-82 -324 CURVE",
"-6 -324 LINE",
"159 -143 OFFCURVE",
"284 54 OFFCURVE",
"369 267 CURVE SMOOTH",
"455 480 OFFCURVE",
"498 698 OFFCURVE",
"498 920 CURVE SMOOTH"
);
}
);
width = 508;
}
);
unicode = 0029;
},
{
glyphname = emdash;
lastChange = "2013-03-10 17:26:55 +0200";
layers = (
{
layerId = UUID0;
name = "Light Condensed Italic";
paths = (
{
closed = 1;
nodes = (
"1819 512 LINE",
"1835 594 LINE",
"139 594 LINE",
"123 512 LINE"
);
}
);
width = 1843;
}
);
unicode = 2014;
},
{
glyphname = endash;
lastChange = "2013-03-10 17:26:55 +0200";
layers = (
{
layerId = UUID0;
name = "Light Condensed Italic";
paths = (
{
closed = 1;
nodes = (
"897 512 LINE",
"913 594 LINE",
"139 594 LINE",
"123 512 LINE"
);
}
);
width = 922;
}
);
unicode = 2013;
},
{
glyphname = hyphen;
lastChange = "2013-03-10 17:26:55 +0200";
layers = (
{
layerId = UUID0;
name = "Light Condensed Italic";
paths = (
{
closed = 1;
nodes = (
"463 502 LINE",
"485 604 LINE",
"117 604 LINE",
"94 502 LINE"
);
}
);
width = 465;
}
);
unicode = 002D;
},
{
glyphname = guillemotleft;
lastChange = "2013-03-10 17:26:55 +0200";
layers = (
{
layerId = UUID0;
name = "Light Condensed Italic";
paths = (
{
closed = 1;
nodes = (
"131 541 LINE",
"127 514 LINE",
"307 147 LINE",
"371 176 LINE",
"246 526 LINE",
"522 866 LINE",
"465 907 LINE"
);
},
{
closed = 1;
nodes = (
"440 541 LINE",
"436 514 LINE",
"618 147 LINE",
"680 176 LINE",
"557 526 LINE",
"831 866 LINE",
"776 907 LINE"
);
}
);
width = 770;
}
);
unicode = 00AB;
},
{
glyphname = guillemotright;
lastChange = "2013-03-10 17:26:55 +0200";
layers = (
{
layerId = UUID0;
name = "Light Condensed Italic";
paths = (
{
closed = 1;
nodes = (
"750 514 LINE",
"754 541 LINE",
"573 907 LINE",
"510 879 LINE",
"635 528 LINE",
"358 188 LINE",
"416 147 LINE"
);
},
{
closed = 1;
nodes = (
"440 514 LINE",
"444 541 LINE",
"262 907 LINE",
"201 879 LINE",
"324 528 LINE",
"49 188 LINE",
"104 147 LINE"
);
}
);
width = 770;
}
);
unicode = 00BB;
},
{
glyphname = guilsinglleft;
lastChange = "2013-03-10 17:26:55 +0200";
layers = (
{
layerId = UUID0;
name = "Light Condensed Italic";
paths = (
{
closed = 1;
nodes = (
"131 541 LINE",
"127 514 LINE",
"307 147 LINE",
"371 176 LINE",
"246 526 LINE",
"522 866 LINE",
"465 907 LINE"
);
}
);
width = 461;
}
);
unicode = 2039;
},
{
glyphname = guilsinglright;
lastChange = "2013-03-10 17:26:55 +0200";
layers = (
{
layerId = UUID0;
name = "Light Condensed Italic";
paths = (
{
closed = 1;
nodes = (
"440 514 LINE",
"444 541 LINE",
"264 907 LINE",
"201 879 LINE",
"326 528 LINE",
"49 188 LINE",
"106 147 LINE"
);
}
);
width = 461;
}
);
unicode = 203A;
},
{
glyphname = quotedblbase;
lastChange = "2013-03-10 17:26:55 +0200";
layers = (
{
layerId = UUID0;
name = "Light Condensed Italic";
paths = (
{
closed = 1;
nodes = (
"219 205 LINE",
"111 205 LINE",
"58 47 OFFCURVE",
"-5 -109 OFFCURVE",
"-80 -264 CURVE",
"-16 -264 LINE",
"81 -105 OFFCURVE",
"162 44 OFFCURVE",
"227 182 CURVE"
);
},
{
closed = 1;
nodes = (
"475 205 LINE",
"365 205 LINE",
"339 127 OFFCURVE",
"307 43 OFFCURVE",
"269 -47 CURVE SMOOTH",
"232 -137 OFFCURVE",
"200 -209 OFFCURVE",
"174 -264 CURVE",
"238 -264 LINE",
"335 -105 OFFCURVE",
"416 44 OFFCURVE",
"481 182 CURVE"
);
}
);
width = 539;
}
);
unicode = 201E;
},
{
glyphname = quotedblleft;
lastChange = "2013-03-10 17:26:55 +0200";
layers = (
{
layerId = UUID0;
name = "Light Condensed Italic";
paths = (
{
closed = 1;
nodes = (
"422 993 LINE",
"532 993 LINE",
"557 1072 OFFCURVE",
"587 1155 OFFCURVE",
"624 1243 CURVE SMOOTH",
"661 1332 OFFCURVE",
"694 1405 OFFCURVE",
"723 1462 CURVE",
"659 1462 LINE",
"572 1323 OFFCURVE",
"491 1174 OFFCURVE",
"414 1016 CURVE"
);
},
{
closed = 1;
nodes = (
"168 993 LINE",
"279 993 LINE",
"301 1064 OFFCURVE",
"330 1144 OFFCURVE",
"366 1232 CURVE SMOOTH",
"402 1321 OFFCURVE",
"436 1397 OFFCURVE",
"469 1462 CURVE",
"406 1462 LINE",
"321 1327 OFFCURVE",
"239 1178 OFFCURVE",
"160 1016 CURVE"
);
}
);
width = 539;
}
);
unicode = 201C;
},
{
glyphname = quotedblright;
lastChange = "2013-03-10 17:26:55 +0200";
layers = (
{
layerId = UUID0;
name = "Light Condensed Italic";
paths = (
{
closed = 1;
nodes = (
"442 1462 LINE",
"334 1462 LINE",
"281 1304 OFFCURVE",
"218 1148 OFFCURVE",
"143 993 CURVE",
"207 993 LINE",
"306 1156 OFFCURVE",
"388 1305 OFFCURVE",
"451 1440 CURVE"
);
},
{
closed = 1;
nodes = (
"698 1462 LINE",
"588 1462 LINE",
"535 1304 OFFCURVE",
"472 1148 OFFCURVE",
"397 993 CURVE",
"461 993 LINE",
"560 1156 OFFCURVE",
"642 1305 OFFCURVE",
"705 1440 CURVE"
);
}
);
width = 539;
}
);
unicode = 201D;
},
{
glyphname = quoteleft;
lastChange = "2013-03-10 17:26:55 +0200";
layers = (
{
layerId = UUID0;
name = "Light Condensed Italic";
paths = (
{
closed = 1;
nodes = (
"156 993 LINE",
"268 993 LINE",
"293 1072 OFFCURVE",
"323 1155 OFFCURVE",
"360 1243 CURVE SMOOTH",
"397 1332 OFFCURVE",
"430 1405 OFFCURVE",
"459 1462 CURVE",
"393 1462 LINE",
"304 1318 OFFCURVE",
"222 1169 OFFCURVE",
"147 1016 CURVE"
);
}
);
width = 285;
}
);
unicode = 2018;
},
{
glyphname = quoteright;
lastChange = "2013-03-10 17:26:55 +0200";
layers = (
{
layerId = UUID0;
name = "Light Condensed Italic";
paths = (
{
closed = 1;
nodes = (
"451 1462 LINE",
"340 1462 LINE",
"293 1319 OFFCURVE",
"229 1163 OFFCURVE",
"150 993 CURVE",
"215 993 LINE",
"314 1156 OFFCURVE",
"396 1305 OFFCURVE",
"459 1440 CURVE"
);
}
);
width = 285;
}
);
unicode = 2019;
},
{
glyphname = "geresh-hb";
lastChange = "2013-03-13 10:50:05 +0200";
layers = (
{
layerId = UUID0;
name = "Light Condensed Italic";
paths = (
{
closed = 1;
nodes = (
"401 1290 LINE",
"290 1290 LINE",
"243 1147 OFFCURVE",
"179 991 OFFCURVE",
"100 821 CURVE",
"165 821 LINE",
"264 984 OFFCURVE",
"346 1133 OFFCURVE",
"409 1268 CURVE"
);
}
);
width = 316;
}
);
unicode = 05F3;
},
{
glyphname = "gershayim-hb";
lastChange = "2013-03-13 10:50:10 +0200";
layers = (
{
layerId = UUID0;
name = "Light Condensed Italic";
paths = (
{
closed = 1;
nodes = (
"421 1290 LINE",
"313 1290 LINE",
"260 1132 OFFCURVE",
"197 976 OFFCURVE",
"122 821 CURVE",
"186 821 LINE",
"285 984 OFFCURVE",
"367 1133 OFFCURVE",
"430 1268 CURVE"
);
},
{
closed = 1;
nodes = (
"677 1290 LINE",
"567 1290 LINE",
"514 1132 OFFCURVE",
"451 976 OFFCURVE",
"376 821 CURVE",
"440 821 LINE",
"539 984 OFFCURVE",
"621 1133 OFFCURVE",
"684 1268 CURVE"
);
}
);
width = 598;
}
);
unicode = 05F4;
},
{
glyphname = "maqaf-hb";
lastChange = "2013-03-13 10:50:16 +0200";
layers = (
{
layerId = UUID0;
name = "Light Condensed Italic";
paths = (
{
closed = 1;
nodes = (
"214 1289 LINE",
"192 1187 LINE",
"602 1187 LINE",
"624 1289 LINE"
);
}
);
width = 516;
}
);
unicode = 05BE;
},
{
glyphname = .notdef;
lastChange = "2013-03-10 17:26:55 +0200";
layers = (
{
layerId = UUID0;
name = "Light Condensed Italic";
paths = (
{
closed = 1;
nodes = (
"96 0 LINE",
"852 0 LINE",
"1161 1462 LINE",
"406 1462 LINE"
);
},
{
closed = 1;
nodes = (
"477 1372 LINE",
"1055 1372 LINE",
"782 90 LINE",
"205 90 LINE"
);
}
);
width = 1106;
}
);
},
{
glyphname = florin;
lastChange = "2013-03-10 17:26:55 +0200";
layers = (
{
layerId = UUID0;
name = "Light Condensed Italic";
paths = (
{
closed = 1;
nodes = (
"204 -488 OFFCURVE",
"256 -402 OFFCURVE",
"324 -117 CURVE",
"530 846 LINE",
"702 846 LINE",
"721 930 LINE",
"549 930 LINE",
"585 1099 OFFCURVE",
"609 1203 OFFCURVE",
"620 1242 CURVE SMOOTH",
"631 1281 OFFCURVE",
"643 1312 OFFCURVE",
"655 1334 CURVE SMOOTH",
"680 1378 OFFCURVE",
"707 1391 OFFCURVE",
"750 1391 CURVE SMOOTH",
"784 1391 OFFCURVE",
"814 1383 OFFCURVE",
"839 1368 CURVE SMOOTH",
"856 1358 LINE",
"907 1444 LINE",
"885 1456 LINE SMOOTH",
"852 1474 OFFCURVE",
"815 1483 OFFCURVE",
"772 1483 CURVE",
"610 1480 OFFCURVE",
"556 1391 OFFCURVE",
"492 1110 CURVE",
"455 940 LINE",
"303 899 LINE",
"293 846 LINE",
"434 846 LINE",
"233 -100 LINE",
"178 -344 OFFCURVE",
"154 -398 OFFCURVE",
"55 -403 CURVE",
"22 -403 OFFCURVE",
"-17 -396 OFFCURVE",
"-61 -381 CURVE",
"-61 -473 LINE",
"-25 -486 OFFCURVE",
"11 -492 OFFCURVE",
"47 -492 CURVE"
);
}
);
width = 737;
}
);
unicode = 0192;
},
{
glyphname = Euro;
lastChange = "2013-03-10 17:26:55 +0200";
layers = (
{
layerId = UUID0;
name = "Light Condensed Italic";
paths = (
{
closed = 1;
nodes = (
"782 1389 OFFCURVE",
"825 1372 OFFCURVE",
"860 1337 CURVE",
"915 1423 LINE",
"872 1464 OFFCURVE",
"812 1485 OFFCURVE",
"735 1485 CURVE SMOOTH",
"628 1485 OFFCURVE",
"530 1432 OFFCURVE",
"439 1327 CURVE SMOOTH",
"349 1222 OFFCURVE",
"280 1080 OFFCURVE",
"231 899 CURVE",
"121 899 LINE",
"102 817 LINE",
"211 817 LINE",
"198 758 OFFCURVE",
"187 691 OFFCURVE",
"180 616 CURVE",
"61 616 LINE",
"43 535 LINE",
"174 535 LINE",
"172 449 LINE",
"172 144 OFFCURVE",
"263 -20 OFFCURVE",
"446 -20 CURVE SMOOTH",
"524 -20 OFFCURVE",
"589 -7 OFFCURVE",
"641 20 CURVE",
"625 111 LINE",
"580 85 OFFCURVE",
"528 72 OFFCURVE",
"467 72 CURVE SMOOTH",
"397 72 OFFCURVE",
"347 102 OFFCURVE",
"316 163 CURVE SMOOTH",
"285 224 OFFCURVE",
"270 325 OFFCURVE",
"270 467 CURVE SMOOTH",
"270 535 LINE",
"549 535 LINE",
"567 616 LINE",
"276 616 LINE",
"288 702 OFFCURVE",
"300 769 OFFCURVE",
"311 817 CURVE",
"637 817 LINE",
"655 899 LINE",
"332 899 LINE",
"375 1051 OFFCURVE",
"431 1171 OFFCURVE",
"501 1258 CURVE SMOOTH",
"572 1345 OFFCURVE",
"648 1389 OFFCURVE",
"729 1389 CURVE SMOOTH"
);
}
);
width = 737;
}
);
unicode = 20AC;
},
{
glyphname = cent;
lastChange = "2013-03-10 17:26:55 +0200";
layers = (
{
layerId = UUID0;
name = "Light Condensed Italic";
paths = (
{
closed = 1;
nodes = (
"385 -20 LINE",
"430 188 LINE",
"491 191 OFFCURVE",
"559 208 OFFCURVE",
"594 229 CURVE",
"571 313 LINE",
"540 297 OFFCURVE",
"498 274 OFFCURVE",
"438 274 CURVE SMOOTH",
"342 274 OFFCURVE",
"291 336 OFFCURVE",
"291 489 CURVE SMOOTH",
"291 603 OFFCURVE",
"307 721 OFFCURVE",
"340 842 CURVE SMOOTH",
"373 964 OFFCURVE",
"414 1058 OFFCURVE",
"465 1125 CURVE SMOOTH",
"516 1192 OFFCURVE",
"573 1225 OFFCURVE",
"635 1225 CURVE SMOOTH",
"675 1225 OFFCURVE",
"713 1215 OFFCURVE",
"748 1196 CURVE",
"786 1282 LINE",
"755 1299 OFFCURVE",
"717 1309 OFFCURVE",
"670 1313 CURVE",
"705 1483 LINE",
"621 1483 LINE",
"584 1309 LINE",
"436 1274 OFFCURVE",
"316 1117 OFFCURVE",
"245 869 CURVE SMOOTH",
"210 745 OFFCURVE",
"193 618 OFFCURVE",
"193 487 CURVE SMOOTH",
"193 324 OFFCURVE",
"245 228 OFFCURVE",
"348 199 CURVE",
"301 -20 LINE"
);
}
);
width = 737;
}
);
unicode = 00A2;
},
{
glyphname = dollar;
lastChange = "2013-03-10 17:26:55 +0200";
layers = (
{
layerId = UUID0;
name = "Light Condensed Italic";
paths = (
{
closed = 1;
nodes = (
"305 -119 LINE",
"356 125 LINE",
"567 146 OFFCURVE",
"682 268 OFFCURVE",
"682 451 CURVE SMOOTH",
"682 550 OFFCURVE",
"655 623 OFFCURVE",
"611 683 CURVE",
"590 714 OFFCURVE",
"552 751 OFFCURVE",
"498 795 CURVE",
"602 1284 LINE",
"659 1282 OFFCURVE",
"720 1263 OFFCURVE",
"786 1227 CURVE",
"834 1317 LINE",
"773 1353 OFFCURVE",
"702 1372 OFFCURVE",
"623 1374 CURVE",
"662 1556 LINE",
"580 1556 LINE",
"539 1370 LINE",
"340 1347 OFFCURVE",
"223 1225 OFFCURVE",
"223 1034 CURVE SMOOTH",
"223 955 OFFCURVE",
"249 896 OFFCURVE",
"290 845 CURVE SMOOTH",
"311 820 OFFCURVE",
"349 786 OFFCURVE",
"406 743 CURVE",
"293 215 LINE",
"173 218 OFFCURVE",
"92 250 OFFCURVE",
"53 279 CURVE",
"53 176 LINE",
"99 144 OFFCURVE",
"173 126 OFFCURVE",
"274 123 CURVE",
"223 -119 LINE"
);
},
{
closed = 1;
nodes = (
"588 318 OFFCURVE",
"513 238 OFFCURVE",
"377 219 CURVE",
"475 688 LINE",
"539 633 OFFCURVE",
"588 562 OFFCURVE",
"588 449 CURVE SMOOTH"
);
},
{
closed = 1;
nodes = (
"319 1181 OFFCURVE",
"386 1260 OFFCURVE",
"520 1278 CURVE",
"428 850 LINE",
"349 915 OFFCURVE",
"319 972 OFFCURVE",
"319 1040 CURVE SMOOTH"
);
}
);
width = 737;
}
);
unicode = 0024;
},
{
glyphname = sterling;
lastChange = "2013-03-10 17:26:55 +0200";
layers = (
{
layerId = UUID0;
name = "Light Condensed Italic";
paths = (
{
closed = 1;
nodes = (
"513 1483 OFFCURVE",
"422 1364 OFFCURVE",
"377 1153 CURVE SMOOTH",
"295 768 LINE",
"154 768 LINE",
"135 682 LINE",
"276 682 LINE",
"215 393 LINE SMOOTH",
"180 228 OFFCURVE",
"111 119 OFFCURVE",
"27 82 CURVE",
"8 0 LINE",
"590 0 LINE",
"610 94 LINE",
"154 94 LINE",
"229 146 OFFCURVE",
"282 246 OFFCURVE",
"313 395 CURVE",
"375 682 LINE",
"598 682 LINE",
"616 768 LINE",
"393 768 LINE",
"467 1120 LINE SMOOTH",
"506 1308 OFFCURVE",
"564 1393 OFFCURVE",
"672 1393 CURVE SMOOTH",
"731 1393 OFFCURVE",
"781 1370 OFFCURVE",
"823 1323 CURVE",
"887 1401 LINE",
"815 1464 OFFCURVE",
"760 1483 OFFCURVE",
"680 1483 CURVE SMOOTH"
);
}
);
width = 737;
}
);
unicode = 00A3;
},
{
glyphname = uni20AA;
lastChange = "2013-03-10 17:28:51 +0200";
layers = (
{
layerId = UUID0;
name = "Light Condensed Italic";
paths = (
{
closed = 1;
nodes = (
"1033 1290 LINE",
"896 647 LINE SMOOTH",
"817 275 OFFCURVE",
"710 84 OFFCURVE",
"376 84 CURVE SMOOTH",
"353 84 LINE",
"553 1026 LINE",
"458 1026 LINE",
"240 0 LINE",
"358 0 LINE SMOOTH",
"746 0 OFFCURVE",
"903 231 OFFCURVE",
"991 647 CURVE SMOOTH",
"1128 1290 LINE"
);
},
{
closed = 1;
nodes = (
"282 1290 LINE",
"8 0 LINE",
"103 0 LINE",
"359 1206 LINE",
"405 1206 LINE SMOOTH",
"633 1206 OFFCURVE",
"760 1173 OFFCURVE",
"709 933 CURVE SMOOTH",
"567 264 LINE",
"662 264 LINE",
"804 933 LINE SMOOTH",
"868 1234 OFFCURVE",
"713 1290 OFFCURVE",
"423 1290 CURVE SMOOTH"
);
}
);
width = 1131;
}
);
unicode = 20AA;
},
{
glyphname = yen;
lastChange = "2013-03-10 17:26:55 +0200";
layers = (
{
layerId = UUID0;
name = "Light Condensed Italic";
paths = (
{
closed = 1;
nodes = (
"182 655 LINE",
"164 573 LINE",
"356 573 LINE",
"315 373 LINE",
"121 373 LINE",
"104 291 LINE",
"299 291 LINE",
"238 0 LINE",
"334 0 LINE",
"397 291 LINE",
"596 291 LINE",
"612 373 LINE",
"414 373 LINE",
"455 573 LINE",
"655 573 LINE",
"674 655 LINE",
"494 655 LINE",
"870 1462 LINE",
"776 1462 LINE",
"438 717 LINE",
"414 1462 LINE",
"322 1462 LINE",
"358 655 LINE"
);
}
);
width = 737;
}
);
unicode = 00A5;
},
{
glyphname = asciitilde;
lastChange = "2013-03-10 17:26:55 +0200";
layers = (
{
layerId = UUID0;
name = "Light Condensed Italic";
paths = (
{
closed = 1;
nodes = (
"671 625 OFFCURVE",
"733 660 OFFCURVE",
"788 729 CURVE",
"788 827 LINE",
"728 750 OFFCURVE",
"678 711 OFFCURVE",
"621 711 CURVE SMOOTH",
"582 711 OFFCURVE",
"539 726 OFFCURVE",
"490 755 CURVE SMOOTH",
"425 794 OFFCURVE",
"364 823 OFFCURVE",
"299 823 CURVE SMOOTH",
"231 823 OFFCURVE",
"168 788 OFFCURVE",
"111 717 CURVE",
"111 618 LINE",
"177 699 OFFCURVE",
"234 739 OFFCURVE",
"281 739 CURVE SMOOTH",
"338 739 OFFCURVE",
"383 709 OFFCURVE",
"434 680 CURVE",
"492 643 OFFCURVE",
"548 625 OFFCURVE",
"602 625 CURVE SMOOTH"
);
}
);
width = 737;
}
);
unicode = 007E;
},
{
glyphname = divide;
lastChange = "2013-03-10 17:26:55 +0200";
layers = (
{
layerId = UUID0;
name = "Light Condensed Italic";
paths = (
{
closed = 1;
nodes = (
"131 760 LINE",
"131 686 LINE",
"764 686 LINE",
"764 760 LINE"
);
},
{
closed = 1;
nodes = (
"377 340 OFFCURVE",
"406 311 OFFCURVE",
"446 311 CURVE SMOOTH",
"485 311 OFFCURVE",
"516 340 OFFCURVE",
"516 408 CURVE SMOOTH",
"516 477 OFFCURVE",
"485 504 OFFCURVE",
"446 504 CURVE SMOOTH",
"400 504 OFFCURVE",
"377 472 OFFCURVE",
"377 408 CURVE SMOOTH"
);
},
{
closed = 1;
nodes = (
"377 972 OFFCURVE",
"400 940 OFFCURVE",
"446 940 CURVE SMOOTH",
"485 940 OFFCURVE",
"516 968 OFFCURVE",
"516 1036 CURVE SMOOTH",
"516 1107 OFFCURVE",
"485 1133 OFFCURVE",
"446 1133 CURVE SMOOTH",
"400 1133 OFFCURVE",
"377 1101 OFFCURVE",
"377 1036 CURVE SMOOTH"
);
}
);
width = 737;
}
);
unicode = 00F7;
},
{
glyphname = equal;
lastChange = "2013-03-10 17:26:55 +0200";
layers = (
{
layerId = UUID0;
name = "Light Condensed Italic";
paths = (
{
closed = 1;
nodes = (
"135 547 LINE",
"135 465 LINE",
"768 465 LINE",
"768 547 LINE"
);
},
{
closed = 1;
nodes = (
"135 977 LINE",
"135 895 LINE",
"768 895 LINE",
"768 977 LINE"
);
}
);
width = 737;
}
);
unicode = 003D;
},
{
glyphname = greater;
lastChange = "2013-03-10 17:26:55 +0200";
layers = (
{
layerId = UUID0;
name = "Light Condensed Italic";
paths = (
{
closed = 1;
nodes = (
"170 287 LINE",
"803 690 LINE",
"803 758 LINE",
"170 1157 LINE",
"170 1057 LINE",
"711 723 LINE",
"170 389 LINE"
);
}
);
width = 737;
}
);
unicode = 003E;
},
{
glyphname = integral;
lastChange = "2013-03-10 17:26:55 +0200";
layers = (
{
layerId = UUID0;
name = "Light Condensed Italic";
paths = (
{
closed = 1;
nodes = (
"483 1176 LINE",
"486 1399 OFFCURVE",
"507 1473 OFFCURVE",
"606 1475 CURVE SMOOTH",
"639 1475 OFFCURVE",
"671 1468 OFFCURVE",
"702 1454 CURVE",
"735 1542 LINE",
"697 1559 OFFCURVE",
"655 1567 OFFCURVE",
"608 1567 CURVE SMOOTH",
"449 1567 OFFCURVE",
"389 1461 OFFCURVE",
"389 1210 CURVE SMOOTH",
"389 -100 LINE",
"385 -321 OFFCURVE",
"365 -398 OFFCURVE",
"266 -399 CURVE SMOOTH",
"233 -399 OFFCURVE",
"201 -392 OFFCURVE",
"170 -379 CURVE",
"137 -467 LINE",
"175 -484 OFFCURVE",
"217 -492 OFFCURVE",
"264 -492 CURVE SMOOTH",
"344 -492 OFFCURVE",
"400 -462 OFFCURVE",
"433 -401 CURVE SMOOTH",
"466 -341 OFFCURVE",
"483 -241 OFFCURVE",
"483 -102 CURVE SMOOTH"
);
}
);
width = 762;
}
);
unicode = 222B;
},
{
glyphname = less;
lastChange = "2013-03-10 17:26:55 +0200";
layers = (
{
layerId = UUID0;
name = "Light Condensed Italic";
paths = (
{
closed = 1;
nodes = (
"709 410 LINE",
"168 743 LINE",
"709 1077 LINE",
"709 1178 LINE",
"76 778 LINE",
"76 711 LINE",
"709 307 LINE"
);
}
);
width = 737;
}
);
unicode = 003C;
},
{
glyphname = logicalnot;
lastChange = "2013-03-10 17:26:55 +0200";
layers = (
{
layerId = UUID0;
name = "Light Condensed Italic";
paths = (
{
closed = 1;
nodes = (
"104 776 LINE",
"104 694 LINE",
"664 694 LINE",
"664 315 LINE",
"737 315 LINE",
"737 776 LINE"
);
}
);
width = 737;
}
);
unicode = 00AC;
},
{
glyphname = notequal;
lastChange = "2013-03-10 17:26:55 +0200";
layers = (
{
layerId = UUID0;
name = "Light Condensed Italic";
paths = (
{
closed = 1;
nodes = (
"123 977 LINE",
"123 895 LINE",
"494 895 LINE",
"332 547 LINE",
"123 547 LINE",
"123 465 LINE",
"293 465 LINE",
"176 213 LINE",
"242 178 LINE",
"375 465 LINE",
"784 465 LINE",
"784 547 LINE",
"414 547 LINE",
"578 895 LINE",
"784 895 LINE",
"784 977 LINE",
"616 977 LINE",
"735 1227 LINE",
"666 1262 LINE",
"532 977 LINE"
);
}
);
width = 737;
}
);
unicode = 2260;
},
{
glyphname = percent;
lastChange = "2013-03-10 17:26:55 +0200";
layers = (
{
layerId = UUID0;
name = "Light Condensed Italic";
paths = (
{
closed = 1;
nodes = (
"930 1462 LINE",
"190 0 LINE",
"279 0 LINE",
"1014 1462 LINE"
);
},
{
closed = 1;
nodes = (
"965 819 OFFCURVE",
"985 777 OFFCURVE",
"985 694 CURVE SMOOTH",
"985 621 OFFCURVE",
"973 530 OFFCURVE",
"950 421 CURVE SMOOTH",
"927 313 OFFCURVE",
"899 226 OFFCURVE",
"866 161 CURVE SMOOTH",
"833 96 OFFCURVE",
"799 63 OFFCURVE",
"764 63 CURVE SMOOTH",
"723 63 OFFCURVE",
"702 102 OFFCURVE",
"702 180 CURVE SMOOTH",
"702 251 OFFCURVE",
"715 344 OFFCURVE",
"740 457 CURVE SMOOTH",
"765 570 OFFCURVE",
"794 659 OFFCURVE",
"827 723 CURVE SMOOTH",
"860 787 OFFCURVE",
"892 819 OFFCURVE",
"924 819 CURVE SMOOTH"
);
},
{
closed = 1;
nodes = (
"1067 817 OFFCURVE",
"1022 897 OFFCURVE",
"938 897 CURVE SMOOTH",
"884 897 OFFCURVE",
"833 863 OFFCURVE",
"785 796 CURVE SMOOTH",
"738 729 OFFCURVE",
"699 636 OFFCURVE",
"668 517 CURVE SMOOTH",
"638 399 OFFCURVE",
"623 287 OFFCURVE",
"623 182 CURVE SMOOTH",
"623 57 OFFCURVE",
"666 -20 OFFCURVE",
"750 -20 CURVE SMOOTH",
"804 -20 OFFCURVE",
"855 13 OFFCURVE",
"902 79 CURVE SMOOTH",
"950 146 OFFCURVE",
"989 237 OFFCURVE",
"1020 354 CURVE SMOOTH",
"1051 471 OFFCURVE",
"1067 585 OFFCURVE",
"1067 696 CURVE SMOOTH"
);
},
{
closed = 1;
nodes = (
"494 1405 OFFCURVE",
"514 1363 OFFCURVE",
"514 1280 CURVE SMOOTH",
"514 1207 OFFCURVE",
"502 1116 OFFCURVE",
"479 1007 CURVE SMOOTH",
"456 899 OFFCURVE",
"428 812 OFFCURVE",
"395 747 CURVE SMOOTH",
"362 682 OFFCURVE",
"328 649 OFFCURVE",
"293 649 CURVE SMOOTH",
"252 649 OFFCURVE",
"231 688 OFFCURVE",
"231 766 CURVE SMOOTH",
"231 837 OFFCURVE",
"244 930 OFFCURVE",
"269 1043 CURVE SMOOTH",
"294 1156 OFFCURVE",
"323 1245 OFFCURVE",
"356 1309 CURVE SMOOTH",
"389 1373 OFFCURVE",
"421 1405 OFFCURVE",
"453 1405 CURVE SMOOTH"
);
},
{
closed = 1;
nodes = (
"596 1407 OFFCURVE",
"548 1483 OFFCURVE",
"467 1483 CURVE SMOOTH",
"412 1483 OFFCURVE",
"361 1449 OFFCURVE",
"313 1380 CURVE SMOOTH",
"266 1311 OFFCURVE",
"227 1218 OFFCURVE",
"197 1100 CURVE SMOOTH",
"167 983 OFFCURVE",
"152 872 OFFCURVE",
"152 768 CURVE SMOOTH",
"152 639 OFFCURVE",
"198 565 OFFCURVE",
"279 565 CURVE SMOOTH",
"332 565 OFFCURVE",
"383 598 OFFCURVE",
"430 663 CURVE SMOOTH",
"478 729 OFFCURVE",
"518 821 OFFCURVE",
"549 938 CURVE SMOOTH",
"580 1056 OFFCURVE",
"596 1171 OFFCURVE",
"596 1282 CURVE SMOOTH"
);
}
);
width = 1087;
}
);
unicode = 0025;
},
{
glyphname = perthousand;
lastChange = "2013-03-10 17:26:55 +0200";
layers = (
{
layerId = UUID0;
name = "Light Condensed Italic";
paths = (
{
closed = 1;
nodes = (
"492 1405 OFFCURVE",
"512 1372 OFFCURVE",
"512 1280 CURVE SMOOTH",
"512 1204 OFFCURVE",
"500 1110 OFFCURVE",
"476 998 CURVE SMOOTH",
"452 886 OFFCURVE",
"424 800 OFFCURVE",
"391 739 CURVE SMOOTH",
"359 679 OFFCURVE",
"326 649 OFFCURVE",
"293 649 CURVE SMOOTH",
"252 649 OFFCURVE",
"231 688 OFFCURVE",
"231 766 CURVE SMOOTH",
"231 838 OFFCURVE",
"243 931 OFFCURVE",
"267 1045 CURVE SMOOTH",
"291 1160 OFFCURVE",
"319 1248 OFFCURVE",
"352 1311 CURVE SMOOTH",
"385 1374 OFFCURVE",
"418 1405 OFFCURVE",
"451 1405 CURVE SMOOTH"
);
},
{
closed = 1;
nodes = (
"594 1408 OFFCURVE",
"540 1483 OFFCURVE",
"457 1483 CURVE SMOOTH",
"404 1483 OFFCURVE",
"354 1448 OFFCURVE",
"308 1379 CURVE SMOOTH",
"262 1310 OFFCURVE",
"225 1217 OFFCURVE",
"196 1100 CURVE SMOOTH",
"168 983 OFFCURVE",
"154 872 OFFCURVE",
"154 768 CURVE SMOOTH",
"154 633 OFFCURVE",
"199 565 OFFCURVE",
"289 565 CURVE SMOOTH",
"340 565 OFFCURVE",
"388 600 OFFCURVE",
"435 670 CURVE SMOOTH",
"482 740 OFFCURVE",
"520 833 OFFCURVE",
"549 950 CURVE SMOOTH",
"579 1067 OFFCURVE",
"594 1177 OFFCURVE",
"594 1280 CURVE SMOOTH"
);
},
{
closed = 1;
nodes = (
"938 1462 LINE",
"199 0 LINE",
"283 0 LINE",
"1018 1462 LINE"
);
},
{
closed = 1;
nodes = (
"967 819 OFFCURVE",
"987 786 OFFCURVE",
"987 694 CURVE SMOOTH",
"987 618 OFFCURVE",
"975 524 OFFCURVE",
"951 412 CURVE SMOOTH",
"927 300 OFFCURVE",
"899 214 OFFCURVE",
"866 153 CURVE SMOOTH",
"834 93 OFFCURVE",
"801 63 OFFCURVE",
"768 63 CURVE SMOOTH",
"727 63 OFFCURVE",
"707 102 OFFCURVE",
"707 180 CURVE SMOOTH",
"707 257 OFFCURVE",
"719 352 OFFCURVE",
"744 465 CURVE SMOOTH",
"769 578 OFFCURVE",
"797 666 OFFCURVE",
"828 727 CURVE SMOOTH",
"860 788 OFFCURVE",
"893 819 OFFCURVE",
"926 819 CURVE SMOOTH"
);
},
{
closed = 1;
nodes = (
"1069 822 OFFCURVE",
"1015 897 OFFCURVE",
"932 897 CURVE SMOOTH",
"879 897 OFFCURVE",
"829 863 OFFCURVE",
"783 795 CURVE SMOOTH",
"738 727 OFFCURVE",
"701 634 OFFCURVE",
"672 516 CURVE SMOOTH",
"643 399 OFFCURVE",
"629 287 OFFCURVE",
"629 182 CURVE SMOOTH",
"629 47 OFFCURVE",
"674 -20 OFFCURVE",
"764 -20 CURVE SMOOTH",
"814 -20 OFFCURVE",
"862 15 OFFCURVE",
"909 85 CURVE SMOOTH",
"956 155 OFFCURVE",
"995 248 OFFCURVE",
"1024 365 CURVE SMOOTH",
"1054 482 OFFCURVE",
"1069 592 OFFCURVE",
"1069 694 CURVE SMOOTH"
);
},
{
closed = 1;
nodes = (
"1440 819 OFFCURVE",
"1460 786 OFFCURVE",
"1460 694 CURVE SMOOTH",
"1460 618 OFFCURVE",
"1448 524 OFFCURVE",
"1424 412 CURVE SMOOTH",
"1400 300 OFFCURVE",
"1372 214 OFFCURVE",
"1339 153 CURVE SMOOTH",
"1307 93 OFFCURVE",
"1274 63 OFFCURVE",
"1241 63 CURVE SMOOTH",
"1200 63 OFFCURVE",
"1180 102 OFFCURVE",
"1180 180 CURVE SMOOTH",
"1180 257 OFFCURVE",
"1192 352 OFFCURVE",
"1217 465 CURVE SMOOTH",
"1242 578 OFFCURVE",
"1270 666 OFFCURVE",
"1301 727 CURVE SMOOTH",
"1333 788 OFFCURVE",
"1366 819 OFFCURVE",
"1399 819 CURVE SMOOTH"
);
},
{
closed = 1;
nodes = (
"1542 822 OFFCURVE",
"1488 897 OFFCURVE",
"1405 897 CURVE SMOOTH",
"1304 897 OFFCURVE",
"1208 763 OFFCURVE",
"1147 523 CURVE SMOOTH",
"1117 404 OFFCURVE",
"1102 290 OFFCURVE",
"1102 182 CURVE SMOOTH",
"1102 47 OFFCURVE",
"1147 -20 OFFCURVE",
"1237 -20 CURVE SMOOTH",
"1287 -20 OFFCURVE",
"1335 15 OFFCURVE",
"1382 85 CURVE SMOOTH",
"1429 155 OFFCURVE",
"1468 248 OFFCURVE",
"1497 365 CURVE SMOOTH",
"1527 482 OFFCURVE",
"1542 592 OFFCURVE",
"1542 694 CURVE SMOOTH"
);
}
);
width = 1546;
}
);
unicode = 2030;
},
{
glyphname = plus;
lastChange = "2013-03-10 17:26:55 +0200";
layers = (
{
layerId = UUID0;
name = "Light Condensed Italic";
paths = (
{
closed = 1;
nodes = (
"485 1120 LINE",
"408 1120 LINE",
"408 782 LINE",
"131 782 LINE",
"131 709 LINE",
"408 709 LINE",
"408 373 LINE",
"485 373 LINE",
"485 709 LINE",
"764 709 LINE",
"764 782 LINE",
"485 782 LINE"
);
}
);
width = 737;
}
);
unicode = 002B;
},
{
glyphname = plusminus;
lastChange = "2013-03-10 17:26:55 +0200";
layers = (
{
layerId = UUID0;
name = "Light Condensed Italic";
paths = (
{
closed = 1;
nodes = (
"41 0 LINE",
"674 0 LINE",
"674 74 LINE",
"41 74 LINE"
);
},
{
closed = 1;
nodes = (
"393 1038 LINE",
"319 1038 LINE",
"319 688 LINE",
"41 688 LINE",
"41 614 LINE",
"319 614 LINE",
"319 264 LINE",
"393 264 LINE",
"393 614 LINE",
"674 614 LINE",
"674 688 LINE",
"393 688 LINE"
);
}
);
width = 737;
}
);
unicode = 00B1;
},
{
glyphname = ampersand;
lastChange = "2013-03-10 17:26:55 +0200";
layers = (
{
layerId = UUID0;
name = "Light Condensed Italic";
paths = (
{
closed = 1;
nodes = (
"680 0 LINE",
"598 252 LINE",
"625 290 OFFCURVE",
"657 349 OFFCURVE",
"692 429 CURVE SMOOTH",
"728 510 OFFCURVE",
"753 582 OFFCURVE",
"766 645 CURVE",
"682 645 LINE",
"652 532 OFFCURVE",
"614 433 OFFCURVE",
"569 350 CURVE",
"451 770 LINE",
"528 842 OFFCURVE",
"587 925 OFFCURVE",
"629 1018 CURVE SMOOTH",
"671 1112 OFFCURVE",
"692 1207 OFFCURVE",
"692 1303 CURVE SMOOTH",
"692 1420 OFFCURVE",
"636 1483 OFFCURVE",
"553 1483 CURVE SMOOTH",
"477 1483 OFFCURVE",
"417 1446 OFFCURVE",
"374 1371 CURVE SMOOTH",
"331 1297 OFFCURVE",
"309 1194 OFFCURVE",
"309 1063 CURVE SMOOTH",
"309 979 OFFCURVE",
"323 890 OFFCURVE",
"350 795 CURVE",
"239 711 OFFCURVE",
"160 624 OFFCURVE",
"112 535 CURVE SMOOTH",
"65 446 OFFCURVE",
"41 346 OFFCURVE",
"41 236 CURVE SMOOTH",
"41 79 OFFCURVE",
"123 -20 OFFCURVE",
"262 -20 CURVE SMOOTH",
"311 -20 OFFCURVE",
"356 -7 OFFCURVE",
"397 19 CURVE SMOOTH",
"438 45 OFFCURVE",
"484 94 OFFCURVE",
"535 166 CURVE",
"582 0 LINE"
);
},
{
closed = 1;
nodes = (
"508 260 LINE",
"457 184 OFFCURVE",
"414 134 OFFCURVE",
"379 109 CURVE SMOOTH",
"345 84 OFFCURVE",
"308 72 OFFCURVE",
"268 72 CURVE SMOOTH",
"179 72 OFFCURVE",
"135 133 OFFCURVE",
"135 254 CURVE SMOOTH",
"135 436 OFFCURVE",
"214 590 OFFCURVE",
"373 717 CURVE"
);
},
{
closed = 1;
nodes = (
"406 923 OFFCURVE",
"395 999 OFFCURVE",
"395 1081 CURVE SMOOTH",
"395 1177 OFFCURVE",
"408 1253 OFFCURVE",
"433 1309 CURVE SMOOTH",
"459 1365 OFFCURVE",
"494 1393 OFFCURVE",
"537 1393 CURVE SMOOTH",
"583 1393 OFFCURVE",
"606 1357 OFFCURVE",
"606 1286 CURVE SMOOTH",
"606 1119 OFFCURVE",
"543 959 OFFCURVE",
"428 852 CURVE"
);
}
);
width = 750;
}
);
unicode = 0026;
},
{
glyphname = asciicircum;
lastChange = "2013-03-10 17:26:55 +0200";
layers = (
{
layerId = UUID0;
name = "Light Condensed Italic";
paths = (
{
closed = 1;
nodes = (
"784 758 LINE",
"625 1462 LINE",
"543 1462 LINE",
"111 758 LINE",
"217 758 LINE",
"569 1348 LINE",
"692 758 LINE"
);
}
);
width = 737;
}
);
unicode = 005E;
},
{
glyphname = at;
lastChange = "2013-03-10 17:26:55 +0200";
layers = (
{
layerId = UUID0;
name = "Light Condensed Italic";
paths = (
{
closed = 1;
nodes = (
"1137 1165 OFFCURVE",
"1110 1275 OFFCURVE",
"1055 1354 CURVE SMOOTH",
"1001 1433 OFFCURVE",
"927 1473 OFFCURVE",
"834 1473 CURVE SMOOTH",
"709 1473 OFFCURVE",
"590 1420 OFFCURVE",
"478 1314 CURVE SMOOTH",
"366 1209 OFFCURVE",
"277 1064 OFFCURVE",
"210 881 CURVE SMOOTH",
"144 698 OFFCURVE",
"111 498 OFFCURVE",
"111 279 CURVE SMOOTH",
"111 136 OFFCURVE",
"141 24 OFFCURVE",
"202 -57 CURVE SMOOTH",
"263 -139 OFFCURVE",
"345 -180 OFFCURVE",
"446 -180 CURVE SMOOTH",
"525 -180 OFFCURVE",
"599 -162 OFFCURVE",
"668 -125 CURVE",
"657 -47 LINE",
"610 -76 OFFCURVE",
"532 -100 OFFCURVE",
"455 -100 CURVE SMOOTH",
"376 -100 OFFCURVE",
"313 -66 OFFCURVE",
"267 3 CURVE SMOOTH",
"222 72 OFFCURVE",
"199 168 OFFCURVE",
"199 291 CURVE SMOOTH",
"199 486 OFFCURVE",
"228 670 OFFCURVE",
"286 841 CURVE SMOOTH",
"345 1013 OFFCURVE",
"421 1147 OFFCURVE",
"515 1244 CURVE SMOOTH",
"610 1341 OFFCURVE",
"709 1389 OFFCURVE",
"813 1389 CURVE SMOOTH",
"974 1389 OFFCURVE",
"1055 1257 OFFCURVE",
"1055 1012 CURVE SMOOTH",
"1055 930 OFFCURVE",
"1041 829 OFFCURVE",
"1014 710 CURVE SMOOTH",
"987 591 OFFCURVE",
"955 495 OFFCURVE",
"918 423 CURVE SMOOTH",
"882 351 OFFCURVE",
"847 315 OFFCURVE",
"813 315 CURVE SMOOTH",
"770 315 OFFCURVE",
"748 347 OFFCURVE",
"748 412 CURVE SMOOTH",
"748 447 OFFCURVE",
"756 496 OFFCURVE",
"773 561 CURVE",
"891 1032 LINE",
"850 1051 OFFCURVE",
"803 1061 OFFCURVE",
"750 1061 CURVE SMOOTH",
"625 1061 OFFCURVE",
"518 947 OFFCURVE",
"446 722 CURVE SMOOTH",
"411 610 OFFCURVE",
"393 506 OFFCURVE",
"393 410 CURVE SMOOTH",
"393 291 OFFCURVE",
"430 231 OFFCURVE",
"504 231 CURVE SMOOTH",
"583 231 OFFCURVE",
"647 302 OFFCURVE",
"696 444 CURVE",
"689 412 OFFCURVE",
"686 382 OFFCURVE",
"686 354 CURVE SMOOTH",
"686 282 OFFCURVE",
"723 236 OFFCURVE",
"799 236 CURVE SMOOTH",
"855 236 OFFCURVE",
"908 273 OFFCURVE",
"959 348 CURVE SMOOTH",
"1010 423 OFFCURVE",
"1052 526 OFFCURVE",
"1086 658 CURVE SMOOTH",
"1120 791 OFFCURVE",
"1137 913 OFFCURVE",
"1137 1024 CURVE SMOOTH"
);
},
{
closed = 1;
nodes = (
"751 981 OFFCURVE",
"772 978 OFFCURVE",
"788 973 CURVE",
"707 666 LINE SMOOTH",
"643 426 OFFCURVE",
"594 319 OFFCURVE",
"535 319 CURVE SMOOTH",
"496 319 OFFCURVE",
"477 355 OFFCURVE",
"477 428 CURVE SMOOTH",
"477 510 OFFCURVE",
"489 596 OFFCURVE",
"514 687 CURVE SMOOTH",
"539 778 OFFCURVE",
"571 849 OFFCURVE",
"608 902 CURVE SMOOTH",
"646 955 OFFCURVE",
"685 981 OFFCURVE",
"725 981 CURVE SMOOTH"
);
}
);
width = 1110;
}
);
unicode = 0040;
},
{
glyphname = bar;
lastChange = "2013-03-10 17:26:55 +0200";
layers = (
{
layerId = UUID0;
name = "Light Condensed Italic";
paths = (
{
closed = 1;
nodes = (
"659 1556 LINE",
"567 1556 LINE",
"133 -492 LINE",
"225 -492 LINE"
);
}
);
width = 737;
}
);
unicode = 007C;
},
{
glyphname = copyright;
lastChange = "2013-03-10 17:26:55 +0200";
layers = (
{
layerId = UUID0;
name = "Light Condensed Italic";
paths = (
{
closed = 1;
nodes = (
"1032 1092 OFFCURVE",
"1096 1077 OFFCURVE",
"1161 1047 CURVE",
"1198 1130 LINE",
"1126 1165 OFFCURVE",
"1050 1182 OFFCURVE",
"971 1182 CURVE SMOOTH",
"847 1182 OFFCURVE",
"748 1140 OFFCURVE",
"674 1057 CURVE SMOOTH",
"600 974 OFFCURVE",
"563 864 OFFCURVE",
"563 725 CURVE SMOOTH",
"563 440 OFFCURVE",
"703 279 OFFCURVE",
"952 279 CURVE SMOOTH",
"1023 279 OFFCURVE",
"1093 294 OFFCURVE",
"1161 324 CURVE",
"1161 412 LINE",
"1085 383 OFFCURVE",
"1019 369 OFFCURVE",
"963 369 CURVE SMOOTH",
"768 369 OFFCURVE",
"668 485 OFFCURVE",
"668 733 CURVE SMOOTH",
"668 846 OFFCURVE",
"695 934 OFFCURVE",
"748 997 CURVE SMOOTH",
"802 1060 OFFCURVE",
"876 1092 OFFCURVE",
"971 1092 CURVE SMOOTH"
);
},
{
closed = 1;
nodes = (
"174 599 OFFCURVE",
"206 475 OFFCURVE",
"271 360 CURVE SMOOTH",
"336 245 OFFCURVE",
"427 152 OFFCURVE",
"544 83 CURVE SMOOTH",
"661 14 OFFCURVE",
"788 -20 OFFCURVE",
"926 -20 CURVE SMOOTH",
"1063 -20 OFFCURVE",
"1190 14 OFFCURVE",
"1306 82 CURVE SMOOTH",
"1422 150 OFFCURVE",
"1513 242 OFFCURVE",
"1578 358 CURVE SMOOTH",
"1644 474 OFFCURVE",
"1677 598 OFFCURVE",
"1677 731 CURVE SMOOTH",
"1677 865 OFFCURVE",
"1643 991 OFFCURVE",
"1575 1108 CURVE",
"1508 1226 OFFCURVE",
"1416 1318 OFFCURVE",
"1299 1384 CURVE SMOOTH",
"1183 1450 OFFCURVE",
"1059 1483 OFFCURVE",
"926 1483 CURVE SMOOTH",
"791 1483 OFFCURVE",
"666 1449 OFFCURVE",
"549 1382 CURVE SMOOTH",
"432 1315 OFFCURVE",
"341 1223 OFFCURVE",
"274 1106 CURVE SMOOTH",
"207 989 OFFCURVE",
"174 864 OFFCURVE",
"174 731 CURVE SMOOTH"
);
},
{
closed = 1;
nodes = (
"266 850 OFFCURVE",
"296 960 OFFCURVE",
"355 1061 CURVE SMOOTH",
"414 1162 OFFCURVE",
"495 1243 OFFCURVE",
"596 1302 CURVE SMOOTH",
"697 1361 OFFCURVE",
"807 1391 OFFCURVE",
"926 1391 CURVE SMOOTH",
"1047 1391 OFFCURVE",
"1158 1360 OFFCURVE",
"1260 1299 CURVE SMOOTH",
"1363 1238 OFFCURVE",
"1442 1157 OFFCURVE",
"1499 1056 CURVE SMOOTH",
"1556 955 OFFCURVE",
"1585 847 OFFCURVE",
"1585 731 CURVE SMOOTH",
"1585 612 OFFCURVE",
"1555 502 OFFCURVE",
"1496 401 CURVE SMOOTH",
"1437 300 OFFCURVE",
"1356 219 OFFCURVE",
"1255 160 CURVE SMOOTH",
"1154 101 OFFCURVE",
"1045 72 OFFCURVE",
"926 72 CURVE SMOOTH",
"810 72 OFFCURVE",
"702 100 OFFCURVE",
"601 157 CURVE SMOOTH",
"500 214 OFFCURVE",
"419 294 OFFCURVE",
"358 396 CURVE SMOOTH",
"297 498 OFFCURVE",
"266 610 OFFCURVE",
"266 731 CURVE SMOOTH"
);
}
);
width = 1704;
}
);
unicode = 00A9;
},
{
glyphname = dagger;
lastChange = "2013-03-10 17:26:55 +0200";
layers = (
{
layerId = UUID0;
name = "Light Condensed Italic";
paths = (
{
closed = 1;
nodes = (
"844 1147 LINE",
"580 1128 LINE",
"694 1556 LINE",
"582 1556 LINE",
"512 1128 LINE",
"270 1147 LINE",
"252 1055 LINE",
"500 1065 LINE",
"250 0 LINE",
"362 0 LINE",
"567 1065 LINE",
"825 1055 LINE"
);
}
);
width = 795;
}
);
unicode = 2020;
},
{
glyphname = daggerdbl;
lastChange = "2013-03-10 17:26:55 +0200";
layers = (
{
layerId = UUID0;
name = "Light Condensed Italic";
paths = (
{
closed = 1;
nodes = (
"516 786 LINE",
"573 1110 LINE",
"834 1100 LINE",
"854 1192 LINE",
"588 1174 LINE",
"692 1556 LINE",
"580 1556 LINE",
"520 1174 LINE",
"281 1192 LINE",
"260 1100 LINE",
"506 1110 LINE",
"426 786 LINE",
"365 446 LINE",
"125 457 LINE",
"104 365 LINE",
"352 381 LINE",
"248 0 LINE",
"360 0 LINE",
"420 381 LINE",
"678 365 LINE",
"698 457 LINE",
"432 446 LINE"
);
}
);
width = 795;
}
);
unicode = 2021;
},
{
glyphname = degree;
lastChange = "2013-03-10 17:26:55 +0200";
layers = (
{
layerId = UUID0;
name = "Light Condensed Italic";
paths = (
{
closed = 1;
nodes = (
"240 1095 OFFCURVE",
"268 1023 OFFCURVE",
"324 968 CURVE SMOOTH",
"381 913 OFFCURVE",
"452 885 OFFCURVE",
"539 885 CURVE SMOOTH",
"624 885 OFFCURVE",
"695 913 OFFCURVE",
"752 970 CURVE SMOOTH",
"809 1027 OFFCURVE",
"838 1098 OFFCURVE",
"838 1184 CURVE SMOOTH",
"838 1270 OFFCURVE",
"809 1341 OFFCURVE",
"752 1398 CURVE SMOOTH",
"695 1455 OFFCURVE",
"624 1483 OFFCURVE",
"539 1483 CURVE SMOOTH",
"455 1483 OFFCURVE",
"384 1455 OFFCURVE",
"326 1399 CURVE SMOOTH",
"269 1344 OFFCURVE",
"240 1272 OFFCURVE",
"240 1184 CURVE SMOOTH"
);
},
{
closed = 1;
nodes = (
"324 1247 OFFCURVE",
"344 1299 OFFCURVE",
"385 1342 CURVE SMOOTH",
"426 1385 OFFCURVE",
"478 1407 OFFCURVE",
"539 1407 CURVE SMOOTH",
"598 1407 OFFCURVE",
"649 1386 OFFCURVE",
"691 1343 CURVE SMOOTH",
"733 1301 OFFCURVE",
"754 1248 OFFCURVE",
"754 1184 CURVE SMOOTH",
"754 1120 OFFCURVE",
"733 1067 OFFCURVE",
"690 1024 CURVE SMOOTH",
"647 982 OFFCURVE",
"597 961 OFFCURVE",
"539 961 CURVE SMOOTH",
"480 961 OFFCURVE",
"429 982 OFFCURVE",
"387 1025 CURVE SMOOTH",
"345 1068 OFFCURVE",
"324 1121 OFFCURVE",
"324 1184 CURVE SMOOTH"
);
}
);
width = 764;
}
);
unicode = 00B0;
},
{
glyphname = paragraph;
lastChange = "2013-03-10 17:26:55 +0200";
layers = (
{
layerId = UUID0;
name = "Light Condensed Italic";
paths = (
{
closed = 1;
nodes = (
"950 1556 LINE",
"696 1556 LINE SMOOTH",
"525 1556 OFFCURVE",
"379 1420 OFFCURVE",
"291 1164 CURVE SMOOTH",
"247 1037 OFFCURVE",
"225 904 OFFCURVE",
"225 766 CURVE SMOOTH",
"225 630 OFFCURVE",
"282 541 OFFCURVE",
"362 541 CURVE SMOOTH",
"395 541 OFFCURVE",
"419 545 OFFCURVE",
"434 553 CURVE",
"262 -260 LINE",
"350 -260 LINE",
"715 1460 LINE",
"842 1460 LINE",
"477 -260 LINE",
"565 -260 LINE"
);
}
);
width = 870;
}
);
unicode = 00B6;
},
{
glyphname = registered;
lastChange = "2013-03-10 17:26:55 +0200";
layers = (
{
layerId = UUID0;
name = "Light Condensed Italic";
paths = (
{
closed = 1;
nodes = (
"782 1085 LINE",
"893 1085 LINE SMOOTH",
"1024 1085 OFFCURVE",
"1090 1028 OFFCURVE",
"1090 913 CURVE SMOOTH",
"1090 794 OFFCURVE",
"1016 731 OFFCURVE",
"895 731 CURVE SMOOTH",
"782 731 LINE"
);
},
{
closed = 1;
nodes = (
"1194 1090 OFFCURVE",
"1082 1171 OFFCURVE",
"893 1171 CURVE SMOOTH",
"682 1171 LINE",
"682 291 LINE",
"782 291 LINE",
"782 651 LINE",
"950 651 LINE",
"1161 291 LINE",
"1282 291 LINE",
"1044 684 LINE",
"1140 728 OFFCURVE",
"1194 813 OFFCURVE",
"1194 918 CURVE SMOOTH"
);
},
{
closed = 1;
nodes = (
"174 599 OFFCURVE",
"206 475 OFFCURVE",
"271 360 CURVE SMOOTH",
"336 245 OFFCURVE",
"427 152 OFFCURVE",
"544 83 CURVE SMOOTH",
"661 14 OFFCURVE",
"788 -20 OFFCURVE",
"926 -20 CURVE SMOOTH",
"1063 -20 OFFCURVE",
"1190 14 OFFCURVE",
"1306 82 CURVE SMOOTH",
"1422 150 OFFCURVE",
"1513 242 OFFCURVE",
"1578 358 CURVE SMOOTH",
"1644 474 OFFCURVE",
"1677 598 OFFCURVE",
"1677 731 CURVE SMOOTH",
"1677 865 OFFCURVE",
"1643 991 OFFCURVE",
"1575 1108 CURVE",
"1508 1226 OFFCURVE",
"1416 1318 OFFCURVE",
"1299 1384 CURVE SMOOTH",
"1183 1450 OFFCURVE",
"1059 1483 OFFCURVE",
"926 1483 CURVE SMOOTH",
"791 1483 OFFCURVE",
"666 1449 OFFCURVE",
"549 1382 CURVE SMOOTH",
"432 1315 OFFCURVE",
"341 1223 OFFCURVE",
"274 1106 CURVE SMOOTH",
"207 989 OFFCURVE",
"174 864 OFFCURVE",
"174 731 CURVE SMOOTH"
);
},
{
closed = 1;
nodes = (
"266 850 OFFCURVE",
"296 960 OFFCURVE",
"355 1061 CURVE SMOOTH",
"414 1162 OFFCURVE",
"495 1243 OFFCURVE",
"596 1302 CURVE SMOOTH",
"697 1361 OFFCURVE",
"807 1391 OFFCURVE",
"926 1391 CURVE SMOOTH",
"1047 1391 OFFCURVE",
"1158 1360 OFFCURVE",
"1260 1299 CURVE SMOOTH",
"1363 1238 OFFCURVE",
"1442 1157 OFFCURVE",
"1499 1056 CURVE SMOOTH",
"1556 955 OFFCURVE",
"1585 847 OFFCURVE",
"1585 731 CURVE SMOOTH",
"1585 612 OFFCURVE",
"1555 502 OFFCURVE",
"1496 401 CURVE SMOOTH",
"1437 300 OFFCURVE",
"1356 219 OFFCURVE",
"1255 160 CURVE SMOOTH",
"1154 101 OFFCURVE",
"1045 72 OFFCURVE",
"926 72 CURVE SMOOTH",
"810 72 OFFCURVE",
"702 100 OFFCURVE",
"601 157 CURVE SMOOTH",
"500 214 OFFCURVE",
"419 294 OFFCURVE",
"358 396 CURVE SMOOTH",
"297 498 OFFCURVE",
"266 610 OFFCURVE",
"266 731 CURVE SMOOTH"
);
}
);
width = 1704;
}
);
unicode = 00AE;
},
{
glyphname = section;
lastChange = "2013-03-10 17:26:55 +0200";
layers = (
{
layerId = UUID0;
name = "Light Condensed Italic";
paths = (
{
closed = 1;
nodes = (
"469 1556 OFFCURVE",
"399 1530 OFFCURVE",
"343 1477 CURVE SMOOTH",
"288 1425 OFFCURVE",
"260 1361 OFFCURVE",
"260 1284 CURVE SMOOTH",
"260 1212 OFFCURVE",
"284 1152 OFFCURVE",
"348 1092 CURVE",
"217 1032 OFFCURVE",
"152 945 OFFCURVE",
"152 831 CURVE SMOOTH",
"152 788 OFFCURVE",
"164 748 OFFCURVE",
"189 710 CURVE SMOOTH",
"214 673 OFFCURVE",
"264 627 OFFCURVE",
"338 573 CURVE SMOOTH",
"375 545 OFFCURVE",
"400 523 OFFCURVE",
"413 507 CURVE SMOOTH",
"426 492 OFFCURVE",
"435 474 OFFCURVE",
"441 455 CURVE SMOOTH",
"448 436 OFFCURVE",
"451 415 OFFCURVE",
"451 391 CURVE SMOOTH",
"451 329 OFFCURVE",
"430 278 OFFCURVE",
"389 239 CURVE SMOOTH",
"348 200 OFFCURVE",
"298 180 OFFCURVE",
"240 180 CURVE SMOOTH",
"163 180 OFFCURVE",
"76 207 OFFCURVE",
"27 248 CURVE",
"27 147 LINE",
"67 118 OFFCURVE",
"152 98 OFFCURVE",
"240 98 CURVE",
"407 96 OFFCURVE",
"550 221 OFFCURVE",
"547 406 CURVE",
"547 471 OFFCURVE",
"520 531 OFFCURVE",
"467 584 CURVE",
"591 659 OFFCURVE",
"641 746 OFFCURVE",
"641 866 CURVE SMOOTH",
"641 947 OFFCURVE",
"600 1015 OFFCURVE",
"481 1100 CURVE SMOOTH",
"427 1138 OFFCURVE",
"392 1170 OFFCURVE",
"376 1197 CURVE SMOOTH",
"360 1224 OFFCURVE",
"352 1255 OFFCURVE",
"352 1292 CURVE SMOOTH",
"352 1345 OFFCURVE",
"370 1389 OFFCURVE",
"407 1424 CURVE SMOOTH",
"444 1459 OFFCURVE",
"493 1477 OFFCURVE",
"553 1477 CURVE SMOOTH",
"609 1477 OFFCURVE",
"662 1458 OFFCURVE",
"713 1419 CURVE",
"762 1493 LINE",
"707 1535 OFFCURVE",
"638 1556 OFFCURVE",
"553 1556 CURVE SMOOTH"
);
},
{
closed = 1;
nodes = (
"545 762 OFFCURVE",
"503 690 OFFCURVE",
"418 635 CURVE",
"298 708 OFFCURVE",
"244 765 OFFCURVE",
"244 844 CURVE SMOOTH",
"244 935 OFFCURVE",
"298 1001 OFFCURVE",
"406 1042 CURVE",
"436 1020 LINE",
"513 967 OFFCURVE",
"545 922 OFFCURVE",
"545 850 CURVE SMOOTH"
);
}
);
width = 629;
}
);
unicode = 00A7;
},
{
glyphname = trademark;
lastChange = "2013-03-10 17:26:55 +0200";
layers = (
{
layerId = UUID0;
name = "Light Condensed Italic";
paths = (
{
closed = 1;
nodes = (
"504 1393 LINE",
"700 1393 LINE",
"700 1462 LINE",
"231 1462 LINE",
"231 1393 LINE",
"426 1393 LINE",
"426 815 LINE",
"504 815 LINE"
);
},
{
closed = 1;
nodes = (
"1110 815 LINE",
"1315 1358 LINE",
"1319 1358 LINE",
"1317 1171 LINE",
"1317 815 LINE",
"1393 815 LINE",
"1393 1462 LINE",
"1282 1462 LINE",
"1079 918 LINE",
"881 1462 LINE",
"768 1462 LINE",
"768 815 LINE",
"842 815 LINE",
"842 1182 LINE",
"840 1362 LINE",
"844 1362 LINE",
"1042 815 LINE"
);
}
);
width = 1378;
}
);
unicode = 2122;
},
{
glyphname = acute;
lastChange = "2013-03-10 17:26:55 +0200";
layers = (
{
layerId = UUID0;
name = "Light Condensed Italic";
paths = (
{
closed = 1;
nodes = (
"551 1241 LINE",
"605 1282 OFFCURVE",
"663 1334 OFFCURVE",
"726 1396 CURVE SMOOTH",
"789 1458 OFFCURVE",
"834 1510 OFFCURVE",
"862 1552 CURVE",
"862 1569 LINE",
"723 1569 LINE",
"677 1485 OFFCURVE",
"603 1381 OFFCURVE",
"500 1257 CURVE",
"500 1241 LINE"
);
}
);
width = 1014;
}
);
unicode = 00B4;
},
{
glyphname = breve;
lastChange = "2013-03-10 17:26:55 +0200";
layers = (
{
layerId = UUID0;
name = "Light Condensed Italic";
paths = (
{
closed = 1;
nodes = (
"813 1479 LINE",
"780 1374 OFFCURVE",
"738 1331 OFFCURVE",
"666 1331 CURVE SMOOTH",
"603 1331 OFFCURVE",
"557 1365 OFFCURVE",
"557 1448 CURVE SMOOTH",
"557 1464 LINE",
"559 1479 LINE",
"492 1479 LINE",
"489 1466 OFFCURVE",
"487 1446 OFFCURVE",
"487 1421 CURVE SMOOTH",
"487 1306 OFFCURVE",
"551 1241 OFFCURVE",
"659 1241 CURVE SMOOTH",
"788 1241 OFFCURVE",
"854 1328 OFFCURVE",
"883 1479 CURVE"
);
}
);
width = 1040;
}
);
unicode = 02D8;
},
{
glyphname = caron;
lastChange = "2013-03-10 17:26:55 +0200";
layers = (
{
layerId = UUID0;
name = "Light Condensed Italic";
paths = (
{
closed = 1;
nodes = (
"485 1569 LINE",
"481 1550 LINE",
"501 1507 OFFCURVE",
"522 1453 OFFCURVE",
"545 1389 CURVE SMOOTH",
"568 1325 OFFCURVE",
"584 1276 OFFCURVE",
"592 1241 CURVE",
"678 1241 LINE",
"701 1279 OFFCURVE",
"738 1330 OFFCURVE",
"788 1394 CURVE SMOOTH",
"838 1458 OFFCURVE",
"881 1510 OFFCURVE",
"918 1550 CURVE",
"922 1569 LINE",
"877 1569 LINE",
"820 1524 OFFCURVE",
"747 1456 OFFCURVE",
"657 1366 CURVE",
"595 1469 OFFCURVE",
"553 1537 OFFCURVE",
"532 1569 CURVE"
);
}
);
width = 1040;
}
);
unicode = 02C7;
},
{
glyphname = cedilla;
lastChange = "2013-03-10 17:26:55 +0200";
layers = (
{
layerId = UUID0;
name = "Light Condensed Italic";
paths = (
{
closed = 1;
nodes = (
"330 -197 OFFCURVE",
"282 -139 OFFCURVE",
"195 -115 CURVE",
"274 0 LINE",
"193 0 LINE",
"90 -160 LINE",
"199 -181 OFFCURVE",
"242 -219 OFFCURVE",
"242 -279 CURVE SMOOTH",
"242 -362 OFFCURVE",
"180 -414 OFFCURVE",
"76 -414 CURVE SMOOTH",
"25 -414 OFFCURVE",
"-10 -410 OFFCURVE",
"-27 -403 CURVE",
"-27 -481 LINE",
"-18 -484 OFFCURVE",
"-2 -486 OFFCURVE",
"22 -488 CURVE SMOOTH",
"46 -491 OFFCURVE",
"66 -492 OFFCURVE",
"82 -492 CURVE SMOOTH",
"156 -492 OFFCURVE",
"216 -471 OFFCURVE",
"261 -429 CURVE SMOOTH",
"307 -387 OFFCURVE",
"330 -333 OFFCURVE",
"330 -266 CURVE SMOOTH"
);
}
);
width = 418;
}
);
unicode = 00B8;
},
{
glyphname = circumflex;
lastChange = "2013-03-10 17:26:55 +0200";
layers = (
{
layerId = UUID0;
name = "Light Condensed Italic";
paths = (
{
closed = 1;
nodes = (
"850 1241 LINE",
"854 1260 LINE",
"836 1299 OFFCURVE",
"815 1352 OFFCURVE",
"790 1418 CURVE",
"766 1485 OFFCURVE",
"750 1535 OFFCURVE",
"743 1569 CURVE",
"657 1569 LINE",
"604 1484 OFFCURVE",
"525 1381 OFFCURVE",
"418 1260 CURVE",
"414 1241 LINE",
"459 1241 LINE",
"517 1288 OFFCURVE",
"590 1356 OFFCURVE",
"678 1444 CURVE",
"722 1367 OFFCURVE",
"764 1300 OFFCURVE",
"803 1241 CURVE"
);
}
);
width = 1040;
}
);
unicode = 02C6;
},
{
glyphname = dieresis;
lastChange = "2013-03-10 17:26:55 +0200";
layers = (
{
layerId = UUID0;
name = "Light Condensed Italic";
paths = (
{
closed = 1;
nodes = (
"453 1319 OFFCURVE",
"469 1298 OFFCURVE",
"502 1298 CURVE SMOOTH",
"551 1298 OFFCURVE",
"582 1346 OFFCURVE",
"582 1417 CURVE SMOOTH",
"582 1456 OFFCURVE",
"566 1475 OFFCURVE",
"535 1475 CURVE SMOOTH",
"486 1475 OFFCURVE",
"453 1427 OFFCURVE",
"453 1362 CURVE SMOOTH"
);
},
{
closed = 1;
nodes = (
"725 1319 OFFCURVE",
"741 1298 OFFCURVE",
"774 1298 CURVE SMOOTH",
"823 1298 OFFCURVE",
"854 1346 OFFCURVE",
"854 1417 CURVE SMOOTH",
"854 1456 OFFCURVE",
"838 1475 OFFCURVE",
"807 1475 CURVE SMOOTH",
"759 1475 OFFCURVE",
"725 1427 OFFCURVE",
"725 1362 CURVE SMOOTH"
);
}
);
width = 1014;
}
);
unicode = 00A8;
},
{
glyphname = dotaccent;
lastChange = "2013-03-10 17:26:55 +0200";
layers = (
{
layerId = UUID0;
name = "Light Condensed Italic";
paths = (
{
closed = 1;
nodes = (
"305 1313 OFFCURVE",
"321 1292 OFFCURVE",
"354 1292 CURVE SMOOTH",
"402 1292 OFFCURVE",
"434 1347 OFFCURVE",
"434 1423 CURVE SMOOTH",
"434 1462 OFFCURVE",
"418 1481 OFFCURVE",
"387 1481 CURVE SMOOTH",
"339 1481 OFFCURVE",
"305 1424 OFFCURVE",
"305 1356 CURVE SMOOTH"
);
}
);
width = 346;
}
);
unicode = 02D9;
},
{
glyphname = grave;
lastChange = "2013-03-10 17:26:55 +0200";
layers = (
{
layerId = UUID0;
name = "Light Condensed Italic";
paths = (
{
closed = 1;
nodes = (
"782 1241 LINE",
"782 1260 LINE",
"743 1362 OFFCURVE",
"715 1465 OFFCURVE",
"698 1569 CURVE",
"571 1569 LINE",
"571 1552 LINE",
"582 1508 OFFCURVE",
"606 1455 OFFCURVE",
"641 1392 CURVE SMOOTH",
"677 1329 OFFCURVE",
"711 1279 OFFCURVE",
"743 1241 CURVE"
);
}
);
width = 1014;
}
);
unicode = 0060;
},
{
glyphname = hungarumlaut;
lastChange = "2013-03-10 17:26:55 +0200";
layers = (
{
layerId = UUID0;
name = "Light Condensed Italic";
paths = (
{
closed = 1;
nodes = (
"393 1241 LINE",
"446 1282 OFFCURVE",
"503 1332 OFFCURVE",
"565 1393 CURVE SMOOTH",
"627 1454 OFFCURVE",
"673 1507 OFFCURVE",
"702 1552 CURVE",
"705 1569 LINE",
"565 1569 LINE",
"517 1482 OFFCURVE",
"444 1379 OFFCURVE",
"346 1260 CURVE",
"342 1241 LINE"
);
},
{
closed = 1;
nodes = (
"668 1241 LINE",
"722 1283 OFFCURVE",
"779 1334 OFFCURVE",
"839 1394 CURVE SMOOTH",
"900 1455 OFFCURVE",
"946 1507 OFFCURVE",
"977 1552 CURVE",
"979 1569 LINE",
"840 1569 LINE",
"792 1482 OFFCURVE",
"719 1379 OFFCURVE",
"621 1260 CURVE",
"616 1241 LINE"
);
}
);
width = 1044;
}
);
unicode = 02DD;
},
{
glyphname = ogonek;
lastChange = "2013-03-10 17:26:55 +0200";
layers = (
{
layerId = UUID0;
name = "Light Condensed Italic";
paths = (
{
closed = 1;
nodes = (
"113 -197 OFFCURVE",
"170 -101 OFFCURVE",
"285 0 CURVE",
"211 0 LINE",
"138 -55 OFFCURVE",
"86 -107 OFFCURVE",
"57 -155 CURVE SMOOTH",
"28 -204 OFFCURVE",
"14 -254 OFFCURVE",
"14 -305 CURVE SMOOTH",
"14 -388 OFFCURVE",
"59 -446 OFFCURVE",
"143 -446 CURVE SMOOTH",
"180 -446 OFFCURVE",
"211 -441 OFFCURVE",
"236 -430 CURVE",
"252 -358 LINE",
"227 -365 OFFCURVE",
"205 -369 OFFCURVE",
"184 -369 CURVE SMOOTH",
"137 -369 OFFCURVE",
"113 -342 OFFCURVE",
"113 -289 CURVE SMOOTH"
);
}
);
width = 344;
}
);
unicode = 02DB;
},
{
glyphname = ring;
lastChange = "2013-03-10 17:26:55 +0200";
layers = (
{
layerId = UUID0;
name = "Light Condensed Italic";
paths = (
{
closed = 1;
nodes = (
"868 1495 OFFCURVE",
"850 1539 OFFCURVE",
"815 1573 CURVE SMOOTH",
"780 1607 OFFCURVE",
"734 1624 OFFCURVE",
"678 1624 CURVE SMOOTH",
"558 1624 OFFCURVE",
"487 1551 OFFCURVE",
"487 1438 CURVE SMOOTH",
"487 1325 OFFCURVE",
"558 1251 OFFCURVE",
"678 1251 CURVE SMOOTH",
"795 1251 OFFCURVE",
"868 1325 OFFCURVE",
"868 1442 CURVE SMOOTH"
);
},
{
closed = 1;
nodes = (
"797 1366 OFFCURVE",
"749 1319 OFFCURVE",
"678 1319 CURVE SMOOTH",
"595 1319 OFFCURVE",
"559 1366 OFFCURVE",
"559 1438 CURVE SMOOTH",
"559 1507 OFFCURVE",
"603 1559 OFFCURVE",
"678 1559 CURVE SMOOTH",
"753 1559 OFFCURVE",
"797 1507 OFFCURVE",
"797 1438 CURVE SMOOTH"
);
}
);
width = 1063;
}
);
unicode = 02DA;
},
{
glyphname = tilde;
lastChange = "2013-03-10 17:26:55 +0200";
layers = (
{
layerId = UUID0;
name = "Light Condensed Italic";
paths = (
{
closed = 1;
nodes = (
"821 1251 OFFCURVE",
"852 1267 OFFCURVE",
"876 1300 CURVE SMOOTH",
"901 1333 OFFCURVE",
"923 1394 OFFCURVE",
"942 1483 CURVE",
"872 1483 LINE",
"857 1423 OFFCURVE",
"843 1385 OFFCURVE",
"831 1370 CURVE SMOOTH",
"820 1355 OFFCURVE",
"804 1348 OFFCURVE",
"784 1348 CURVE SMOOTH",
"719 1348 OFFCURVE",
"662 1479 OFFCURVE",
"567 1479 CURVE SMOOTH",
"487 1479 OFFCURVE",
"428 1409 OFFCURVE",
"387 1249 CURVE",
"457 1249 LINE",
"480 1333 OFFCURVE",
"506 1382 OFFCURVE",
"559 1382 CURVE SMOOTH",
"626 1382 OFFCURVE",
"692 1251 OFFCURVE",
"784 1251 CURVE SMOOTH"
);
}
);
width = 1040;
}
);
unicode = 02DC;
},
{
glyphname = "sheva-hb";
lastChange = "2013-03-10 17:29:26 +0200";
layers = (
{
anchors = (
{
name = _bottom;
position = "{84, 110}";
}
);
layerId = UUID0;
name = "Light Condensed Italic";
paths = (
{
closed = 1;
nodes = (
"-51 -343 OFFCURVE",
"-77 -369 OFFCURVE",
"-88 -419 CURVE SMOOTH",
"-99 -469 OFFCURVE",
"-83 -494 OFFCURVE",
"-43 -494 CURVE SMOOTH",
"0 -494 OFFCURVE",
"26 -469 OFFCURVE",
"37 -419 CURVE SMOOTH",
"48 -369 OFFCURVE",
"32 -343 OFFCURVE",
"-11 -343 CURVE SMOOTH"
);
},
{
closed = 1;
nodes = (
"5 -80 OFFCURVE",
"-21 -105 OFFCURVE",
"-32 -156 CURVE SMOOTH",
"-43 -205 OFFCURVE",
"-27 -230 OFFCURVE",
"13 -230 CURVE SMOOTH",
"56 -230 OFFCURVE",
"82 -205 OFFCURVE",
"93 -156 CURVE SMOOTH",
"104 -105 OFFCURVE",
"88 -80 OFFCURVE",
"45 -80 CURVE SMOOTH"
);
}
);
width = 0;
}
);
unicode = 05B0;
},
{
glyphname = "hatafsegol-hb";
lastChange = "2013-03-10 17:29:26 +0200";
layers = (
{
anchors = (
{
name = _bottom;
position = "{84, 110}";
}
);
layerId = UUID0;
name = "Light Condensed Italic";
paths = (
{
closed = 1;
nodes = (
"-182 -343 OFFCURVE",
"-208 -369 OFFCURVE",
"-219 -419 CURVE SMOOTH",
"-230 -469 OFFCURVE",
"-214 -494 OFFCURVE",
"-174 -494 CURVE SMOOTH",
"-131 -494 OFFCURVE",
"-105 -469 OFFCURVE",
"-94 -419 CURVE SMOOTH",
"-83 -369 OFFCURVE",
"-99 -343 OFFCURVE",
"-142 -343 CURVE SMOOTH"
);
},
{
closed = 1;
nodes = (
"-268 -80 OFFCURVE",
"-294 -105 OFFCURVE",
"-305 -156 CURVE SMOOTH",
"-316 -205 OFFCURVE",
"-300 -230 OFFCURVE",
"-260 -230 CURVE SMOOTH",
"-218 -230 OFFCURVE",
"-192 -205 OFFCURVE",
"-181 -156 CURVE SMOOTH",
"-170 -105 OFFCURVE",
"-186 -80 OFFCURVE",
"-228 -80 CURVE SMOOTH"
);
},
{
closed = 1;
nodes = (
"217 -343 OFFCURVE",
"192 -369 OFFCURVE",
"181 -419 CURVE SMOOTH",
"170 -469 OFFCURVE",
"185 -494 OFFCURVE",
"225 -494 CURVE SMOOTH",
"268 -494 OFFCURVE",
"294 -469 OFFCURVE",
"305 -419 CURVE SMOOTH",
"316 -369 OFFCURVE",
"300 -343 OFFCURVE",
"257 -343 CURVE SMOOTH"
);
},
{
closed = 1;
nodes = (
"19 -80 OFFCURVE",
"-7 -105 OFFCURVE",
"-18 -156 CURVE SMOOTH",
"-29 -205 OFFCURVE",
"-13 -230 OFFCURVE",
"27 -230 CURVE SMOOTH",
"69 -230 OFFCURVE",
"95 -205 OFFCURVE",
"106 -156 CURVE SMOOTH",
"117 -105 OFFCURVE",
"101 -80 OFFCURVE",
"59 -80 CURVE SMOOTH"
);
},
{
closed = 1;
nodes = (
"273 -80 OFFCURVE",
"248 -105 OFFCURVE",
"237 -156 CURVE SMOOTH",
"226 -205 OFFCURVE",
"241 -230 OFFCURVE",
"281 -230 CURVE SMOOTH",
"324 -230 OFFCURVE",
"350 -205 OFFCURVE",
"361 -156 CURVE SMOOTH",
"372 -105 OFFCURVE",
"356 -80 OFFCURVE",
"313 -80 CURVE SMOOTH"
);
}
);
width = 0;
}
);
unicode = 05B1;
},
{
glyphname = "hatafpatah-hb";
lastChange = "2013-03-10 17:29:26 +0200";
layers = (
{
anchors = (
{
name = _bottom;
position = "{84, 110}";
}
);
layerId = UUID0;
name = "Light Condensed Italic";
paths = (
{
closed = 1;
nodes = (
"-251 -119 LINE",
"-266 -190 LINE",
"90 -190 LINE",
"105 -119 LINE"
);
},
{
closed = 1;
nodes = (
"170 -343 OFFCURVE",
"144 -369 OFFCURVE",
"133 -419 CURVE SMOOTH",
"122 -469 OFFCURVE",
"138 -494 OFFCURVE",
"178 -494 CURVE SMOOTH",
"221 -494 OFFCURVE",
"247 -469 OFFCURVE",
"258 -419 CURVE SMOOTH",
"269 -369 OFFCURVE",
"253 -343 OFFCURVE",
"210 -343 CURVE SMOOTH"
);
},
{
closed = 1;
nodes = (
"226 -80 OFFCURVE",
"200 -105 OFFCURVE",
"189 -156 CURVE SMOOTH",
"178 -205 OFFCURVE",
"194 -230 OFFCURVE",
"234 -230 CURVE SMOOTH",
"277 -230 OFFCURVE",
"303 -205 OFFCURVE",
"314 -156 CURVE SMOOTH",
"325 -105 OFFCURVE",
"309 -80 OFFCURVE",
"266 -80 CURVE SMOOTH"
);
}
);
width = 0;
}
);
unicode = 05B2;
},
{
glyphname = "hatafqamats-hb";
lastChange = "2013-03-10 17:29:26 +0200";
layers = (
{
anchors = (
{
name = _bottom;
position = "{84, 110}";
}
);
layerId = UUID0;
name = "Light Condensed Italic";
paths = (
{
closed = 1;
nodes = (
"-251 -119 LINE",
"-266 -190 LINE",
"-124 -190 LINE",
"-167 -392 LINE",
"-95 -392 LINE",
"-52 -190 LINE",
"90 -190 LINE",
"105 -119 LINE"
);
},
{
closed = 1;
nodes = (
"170 -343 OFFCURVE",
"144 -369 OFFCURVE",
"133 -419 CURVE SMOOTH",
"122 -469 OFFCURVE",
"138 -494 OFFCURVE",
"178 -494 CURVE SMOOTH",
"221 -494 OFFCURVE",
"247 -469 OFFCURVE",
"258 -419 CURVE SMOOTH",
"269 -369 OFFCURVE",
"253 -343 OFFCURVE",
"210 -343 CURVE SMOOTH"
);
},
{
closed = 1;
nodes = (
"226 -80 OFFCURVE",
"200 -105 OFFCURVE",
"189 -156 CURVE SMOOTH",
"178 -205 OFFCURVE",
"194 -230 OFFCURVE",
"234 -230 CURVE SMOOTH",
"277 -230 OFFCURVE",
"303 -205 OFFCURVE",
"314 -156 CURVE SMOOTH",
"325 -105 OFFCURVE",
"309 -80 OFFCURVE",
"266 -80 CURVE SMOOTH"
);
}
);
width = 0;
}
);
unicode = 05B3;
},
{
glyphname = "hiriq-hb";
lastChange = "2013-03-10 17:29:26 +0200";
layers = (
{
anchors = (
{
name = _bottom;
position = "{56, 110}";
}
);
layerId = UUID0;
name = "Light Condensed Italic";
paths = (
{
closed = 1;
nodes = (
"-24 -80 OFFCURVE",
"-50 -105 OFFCURVE",
"-61 -156 CURVE SMOOTH",
"-72 -205 OFFCURVE",
"-56 -230 OFFCURVE",
"-16 -230 CURVE SMOOTH",
"27 -230 OFFCURVE",
"53 -205 OFFCURVE",
"64 -156 CURVE SMOOTH",
"75 -105 OFFCURVE",
"59 -80 OFFCURVE",
"16 -80 CURVE SMOOTH"
);
}
);
width = 0;
}
);
unicode = 05B4;
},
{
glyphname = "tsere-hb";
lastChange = "2013-03-10 17:29:26 +0200";
layers = (
{
anchors = (
{
name = _bottom;
position = "{56, 110}";
}
);
layerId = UUID0;
name = "Light Condensed Italic";
paths = (
{
closed = 1;
nodes = (
"119 -80 OFFCURVE",
"93 -105 OFFCURVE",
"82 -156 CURVE SMOOTH",
"71 -205 OFFCURVE",
"87 -230 OFFCURVE",
"127 -230 CURVE SMOOTH",
"169 -230 OFFCURVE",
"195 -205 OFFCURVE",
"206 -156 CURVE SMOOTH",
"217 -105 OFFCURVE",
"201 -80 OFFCURVE",
"159 -80 CURVE SMOOTH"
);
},
{
closed = 1;
nodes = (
"-168 -80 OFFCURVE",
"-194 -105 OFFCURVE",
"-205 -156 CURVE SMOOTH",
"-216 -205 OFFCURVE",
"-200 -230 OFFCURVE",
"-160 -230 CURVE SMOOTH",
"-118 -230 OFFCURVE",
"-92 -205 OFFCURVE",
"-81 -156 CURVE SMOOTH",
"-70 -105 OFFCURVE",
"-86 -80 OFFCURVE",
"-128 -80 CURVE SMOOTH"
);
}
);
width = 0;
}
);
unicode = 05B5;
},
{
glyphname = "segol-hb";
lastChange = "2013-03-10 17:29:26 +0200";
layers = (
{
anchors = (
{
name = _bottom;
position = "{84, 110}";
}
);
layerId = UUID0;
name = "Light Condensed Italic";
paths = (
{
closed = 1;
nodes = (
"-52 -343 OFFCURVE",
"-78 -369 OFFCURVE",
"-89 -419 CURVE SMOOTH",
"-100 -469 OFFCURVE",
"-84 -494 OFFCURVE",
"-44 -494 CURVE SMOOTH",
"-1 -494 OFFCURVE",
"25 -469 OFFCURVE",
"36 -419 CURVE SMOOTH",
"47 -369 OFFCURVE",
"31 -343 OFFCURVE",
"-12 -343 CURVE SMOOTH"
);
},
{
closed = 1;
nodes = (
"-138 -80 OFFCURVE",
"-164 -105 OFFCURVE",
"-175 -156 CURVE SMOOTH",
"-186 -205 OFFCURVE",
"-170 -230 OFFCURVE",
"-130 -230 CURVE SMOOTH",
"-88 -230 OFFCURVE",
"-62 -205 OFFCURVE",
"-51 -156 CURVE SMOOTH",
"-40 -105 OFFCURVE",
"-56 -80 OFFCURVE",
"-98 -80 CURVE SMOOTH"
);
},
{
closed = 1;
nodes = (
"149 -80 OFFCURVE",
"123 -105 OFFCURVE",
"112 -156 CURVE SMOOTH",
"101 -205 OFFCURVE",
"117 -230 OFFCURVE",
"157 -230 CURVE SMOOTH",
"199 -230 OFFCURVE",
"225 -205 OFFCURVE",
"236 -156 CURVE SMOOTH",
"247 -105 OFFCURVE",
"231 -80 OFFCURVE",
"189 -80 CURVE SMOOTH"
);
}
);
width = 0;
}
);
unicode = 05B6;
},
{
glyphname = "patah-hb";
lastChange = "2013-03-10 17:29:26 +0200";
layers = (
{
anchors = (
{
name = _bottom;
position = "{55, 110}";
}
);
layerId = UUID0;
name = "Light Condensed Italic";
paths = (
{
closed = 1;
nodes = (
"-170 -111 LINE",
"-186 -183 LINE",
"171 -183 LINE",
"187 -111 LINE"
);
}
);
width = 0;
}
);
unicode = 05B7;
},
{
glyphname = "qamats-hb";
lastChange = "2013-03-10 17:29:26 +0200";
layers = (
{
anchors = (
{
name = _bottom;
position = "{76, 110}";
}
);
layerId = UUID0;
name = "Light Condensed Italic";
paths = (
{
closed = 1;
nodes = (
"-149 -111 LINE",
"-164 -183 LINE",
"-21 -183 LINE",
"-64 -384 LINE",
"7 -384 LINE",
"50 -183 LINE",
"193 -183 LINE",
"208 -111 LINE"
);
}
);
width = 0;
}
);
unicode = 05B8;
},
{
glyphname = "holam-hb";
lastChange = "2013-03-10 17:29:26 +0200";
layers = (
{
anchors = (
{
name = _topleft;
position = "{-79, 1118}";
}
);
layerId = UUID0;
name = "Light Condensed Italic";
paths = (
{
closed = 1;
nodes = (
"-24 1560 OFFCURVE",
"-50 1535 OFFCURVE",
"-61 1484 CURVE SMOOTH",
"-72 1435 OFFCURVE",
"-56 1410 OFFCURVE",
"-16 1410 CURVE SMOOTH",
"27 1410 OFFCURVE",
"53 1435 OFFCURVE",
"64 1484 CURVE SMOOTH",
"75 1535 OFFCURVE",
"59 1560 OFFCURVE",
"16 1560 CURVE SMOOTH"
);
}
);
width = 0;
}
);
unicode = 05B9;
},
{
glyphname = "holamhaser-hb";
lastChange = "2013-03-10 17:29:26 +0200";
layers = (
{
anchors = (
{
name = _topleft;
position = "{-79, 1118}";
}
);
layerId = UUID0;
name = "Light Condensed Italic";
paths = (
{
closed = 1;
nodes = (
"-24 1560 OFFCURVE",
"-49 1535 OFFCURVE",
"-60 1484 CURVE SMOOTH",
"-71 1435 OFFCURVE",
"-56 1410 OFFCURVE",
"-16 1410 CURVE SMOOTH",
"27 1410 OFFCURVE",
"53 1435 OFFCURVE",
"64 1484 CURVE SMOOTH",
"75 1535 OFFCURVE",
"59 1560 OFFCURVE",
"16 1560 CURVE SMOOTH"
);
}
);
width = 0;
}
);
unicode = 05BA;
},
{
glyphname = "qubuts-hb";
lastChange = "2013-03-10 17:29:26 +0200";
layers = (
{
anchors = (
{
name = _bottom;
position = "{84, 110}";
}
);
layerId = UUID0;
name = "Light Condensed Italic";
paths = (
{
closed = 1;
nodes = (
"-24 -211 OFFCURVE",
"-50 -237 OFFCURVE",
"-61 -287 CURVE SMOOTH",
"-72 -337 OFFCURVE",
"-56 -362 OFFCURVE",
"-16 -362 CURVE SMOOTH",
"27 -362 OFFCURVE",
"53 -337 OFFCURVE",
"64 -287 CURVE SMOOTH",
"75 -237 OFFCURVE",
"59 -211 OFFCURVE",
"16 -211 CURVE SMOOTH"
);
},
{
closed = 1;
nodes = (
"-138 -80 OFFCURVE",
"-164 -105 OFFCURVE",
"-175 -156 CURVE SMOOTH",
"-186 -205 OFFCURVE",
"-170 -230 OFFCURVE",
"-130 -230 CURVE SMOOTH",
"-88 -230 OFFCURVE",
"-62 -205 OFFCURVE",
"-51 -156 CURVE SMOOTH",
"-40 -105 OFFCURVE",
"-56 -80 OFFCURVE",
"-98 -80 CURVE SMOOTH"
);
},
{
closed = 1;
nodes = (
"93 -343 OFFCURVE",
"67 -369 OFFCURVE",
"56 -419 CURVE SMOOTH",
"45 -469 OFFCURVE",
"61 -494 OFFCURVE",
"101 -494 CURVE SMOOTH",
"143 -494 OFFCURVE",
"169 -469 OFFCURVE",
"180 -419 CURVE SMOOTH",
"191 -369 OFFCURVE",
"175 -343 OFFCURVE",
"133 -343 CURVE SMOOTH"
);
}
);
width = 0;
}
);
unicode = 05BB;
},
{
glyphname = "dagesh-hb";
lastChange = "2013-03-10 17:29:26 +0200";
layers = (
{
anchors = (
{
name = _center;
position = "{0, 670}";
}
);
layerId = UUID0;
name = "Light Condensed Italic";
paths = (
{
closed = 1;
nodes = (
"-24 745 OFFCURVE",
"-50 720 OFFCURVE",
"-61 669 CURVE SMOOTH",
"-72 620 OFFCURVE",
"-56 595 OFFCURVE",
"-16 595 CURVE SMOOTH",
"27 595 OFFCURVE",
"53 620 OFFCURVE",
"64 669 CURVE SMOOTH",
"75 720 OFFCURVE",
"59 745 OFFCURVE",
"16 745 CURVE"
);
}
);
width = 0;
}
);
unicode = 05BC;
},
{
glyphname = "shindot-hb";
lastChange = "2013-03-10 17:29:26 +0200";
layers = (
{
anchors = (
{
name = _topright;
position = "{-78, 1118}";
}
);
layerId = UUID0;
name = "Light Condensed Italic";
paths = (
{
closed = 1;
nodes = (
"-24 1560 OFFCURVE",
"-50 1535 OFFCURVE",
"-61 1484 CURVE SMOOTH",
"-72 1435 OFFCURVE",
"-56 1410 OFFCURVE",
"-16 1410 CURVE SMOOTH",
"27 1410 OFFCURVE",
"53 1435 OFFCURVE",
"64 1484 CURVE SMOOTH",
"75 1535 OFFCURVE",
"59 1560 OFFCURVE",
"16 1560 CURVE SMOOTH"
);
}
);
width = 0;
}
);
unicode = 05C1;
},
{
glyphname = "sindot-hb";
lastChange = "2013-03-10 17:29:26 +0200";
layers = (
{
anchors = (
{
name = _topleft;
position = "{-79, 1118}";
}
);
layerId = UUID0;
name = "Light Condensed Italic";
paths = (
{
closed = 1;
nodes = (
"-25 1560 OFFCURVE",
"-51 1535 OFFCURVE",
"-62 1484 CURVE SMOOTH",
"-73 1435 OFFCURVE",
"-57 1410 OFFCURVE",
"-17 1410 CURVE SMOOTH",
"26 1410 OFFCURVE",
"52 1435 OFFCURVE",
"63 1484 CURVE SMOOTH",
"74 1535 OFFCURVE",
"58 1560 OFFCURVE",
"15 1560 CURVE SMOOTH"
);
}
);
width = 0;
}
);
unicode = 05C2;
},
{
glyphname = "qamatsqatan-hb";
lastChange = "2013-03-10 17:29:26 +0200";
layers = (
{
anchors = (
{
name = _bottom;
position = "{56, 110}";
}
);
layerId = UUID0;
name = "Light Condensed Italic";
paths = (
{
closed = 1;
nodes = (
"-126 -57 LINE",
"-141 -129 LINE",
"-33 -129 LINE",
"-58 -246 LINE",
"13 -246 LINE",
"38 -129 LINE",
"146 -129 LINE",
"161 -57 LINE"
);
}
);
width = 0;
}
);
unicode = 05C7;
},
{
glyphname = "meteg-hb";
lastChange = "2013-03-10 17:29:26 +0200";
layers = (
{
anchors = (
{
name = _bottom;
position = "{85, 110}";
}
);
layerId = UUID0;
name = "Light Condensed Italic";
paths = (
{
closed = 1;
nodes = (
"-12 -137 LINE",
"-78 -443 LINE",
"11 -443 LINE",
"77 -137 LINE"
);
}
);
width = 0;
}
);
unicode = 05BD;
},
{
glyphname = overscore;
lastChange = "2013-03-10 17:26:55 +0200";
layers = (
{
layerId = UUID0;
name = "Light Condensed Italic";
paths = (
{
closed = 1;
nodes = (
"1018 1638 LINE",
"246 1638 LINE",
"227 1556 LINE",
"999 1556 LINE"
);
}
);
width = 758;
}
);
unicode = 00AF;
},
